<svg width="190" height="71" viewBox="0 0 190 71" fill="none" xmlns="http://www.w3.org/2000/svg">
<path d="M3.16238 57V18.12H19.1464V23.016H10.2664V34.344H17.5144V39.288H10.2664V57H3.16238ZM22.9905 57V18.12H30.0945V52.104H39.5025V57H22.9905ZM53.4746 57.528C50.5946 57.528 48.3546 57 46.7546 55.944C45.1546 54.888 44.0506 53.384 43.4426 51.432C42.8346 49.48 42.5306 47.144 42.5306 44.424V18.12H49.4426V45.24C49.4426 46.456 49.5226 47.608 49.6826 48.696C49.8426 49.752 50.2106 50.616 50.7866 51.288C51.3946 51.928 52.2906 52.248 53.4746 52.248C54.7226 52.248 55.6186 51.928 56.1626 51.288C56.7386 50.616 57.1066 49.752 57.2666 48.696C57.4586 47.608 57.5546 46.456 57.5546 45.24V18.12H64.4186V44.424C64.4186 47.144 64.1146 49.48 63.5066 51.432C62.8986 53.384 61.7946 54.888 60.1946 55.944C58.6266 57 56.3866 57.528 53.4746 57.528ZM73.8941 57V23.352H67.7021V18.12H87.0941V23.352H80.9981V57H73.8941ZM94.5191 57V23.352H88.3271V18.12H107.719V23.352H101.623V57H94.5191ZM111.256 57V18.12H127.576V23.112H118.36V34.296H125.608V39.24H118.36V52.104H127.672V57H111.256ZM131.787 57V18.12H141.099C143.723 18.12 145.931 18.44 147.723 19.08C149.547 19.688 150.923 20.744 151.851 22.248C152.811 23.752 153.291 25.8 153.291 28.392C153.291 29.96 153.147 31.368 152.859 32.616C152.571 33.864 152.075 34.936 151.371 35.832C150.699 36.696 149.755 37.368 148.539 37.848L153.963 57H146.859L142.155 39.192H138.891V57H131.787ZM138.891 34.728H141.099C142.475 34.728 143.563 34.536 144.363 34.152C145.195 33.736 145.787 33.096 146.139 32.232C146.491 31.336 146.667 30.2 146.667 28.824C146.667 26.872 146.299 25.416 145.563 24.456C144.859 23.464 143.499 22.968 141.483 22.968H138.891V34.728Z" fill="#6C6C6C"/>
<path d="M188 57L168 37" stroke="#6C6C6C" stroke-width="3" stroke-miterlimit="10" stroke-linecap="round" stroke-linejoin="round"/>
<path d="M188 42.3286V57H173.329" stroke="#6C6C6C" stroke-width="3" stroke-miterlimit="10" stroke-linecap="round" stroke-linejoin="round"/>
</svg>
