<svg width="177" height="71" viewBox="0 0 177 71" fill="none" xmlns="http://www.w3.org/2000/svg">
<path d="M3.27175 57V18.12H8.21575L17.6718 40.296V18.12H23.5278V57H18.8238L9.31975 33.768V57H3.27175ZM29.428 57V18.12H45.748V23.112H36.532V34.296H43.78V39.24H36.532V52.104H45.844V57H29.428ZM47.5113 57L55.3353 36.36L47.7513 18.12H54.3753L59.4153 30.168L63.8313 18.12H69.9753L62.4873 37.704L70.5513 57H63.9273L58.4073 43.944L53.6073 57H47.5113ZM77.8004 57V23.352H71.6084V18.12H91.0004V23.352H84.9044V57H77.8004ZM103.761 57.96V52.968C104.785 52.968 105.633 52.904 106.305 52.776C106.977 52.648 107.489 52.424 107.841 52.104C108.225 51.752 108.497 51.256 108.657 50.616C108.817 49.944 108.897 49.096 108.897 48.072V18.12H115.953V48.36C115.953 50.536 115.697 52.344 115.185 53.784C114.673 55.192 113.777 56.248 112.497 56.952C111.249 57.624 109.473 57.96 107.169 57.96H103.761ZM131.658 57.528C129.322 57.528 127.37 57.08 125.802 56.184C124.234 55.256 123.05 53.912 122.25 52.152C121.45 50.392 121.002 48.232 120.906 45.672L127.002 44.472C127.066 45.976 127.242 47.304 127.53 48.456C127.85 49.608 128.314 50.504 128.922 51.144C129.562 51.752 130.394 52.056 131.418 52.056C132.57 52.056 133.386 51.72 133.866 51.048C134.346 50.344 134.586 49.464 134.586 48.408C134.586 46.712 134.202 45.32 133.434 44.232C132.666 43.144 131.642 42.056 130.362 40.968L125.466 36.648C124.09 35.464 122.986 34.152 122.154 32.712C121.354 31.24 120.954 29.432 120.954 27.288C120.954 24.216 121.85 21.848 123.642 20.184C125.434 18.52 127.882 17.688 130.986 17.688C132.81 17.688 134.33 17.976 135.546 18.552C136.762 19.096 137.722 19.864 138.426 20.856C139.162 21.848 139.706 22.984 140.058 24.264C140.41 25.512 140.634 26.84 140.73 28.248L134.682 29.304C134.618 28.088 134.474 27 134.25 26.04C134.058 25.08 133.69 24.328 133.146 23.784C132.634 23.24 131.866 22.968 130.842 22.968C129.786 22.968 128.97 23.32 128.394 24.024C127.85 24.696 127.578 25.544 127.578 26.568C127.578 27.88 127.85 28.968 128.394 29.832C128.938 30.664 129.722 31.528 130.746 32.424L135.594 36.696C137.194 38.04 138.554 39.624 139.674 41.448C140.826 43.24 141.402 45.416 141.402 47.976C141.402 49.832 140.986 51.48 140.154 52.92C139.354 54.36 138.218 55.496 136.746 56.328C135.306 57.128 133.61 57.528 131.658 57.528Z" fill="#969696"/>
<path d="M175 57L155 37" stroke="#969696" stroke-width="3" stroke-miterlimit="10" stroke-linecap="round" stroke-linejoin="round"/>
<path d="M175 42.3286V57H160.329" stroke="#969696" stroke-width="3" stroke-miterlimit="10" stroke-linecap="round" stroke-linejoin="round"/>
</svg>
