<svg width="212" height="71" viewBox="0 0 212 71" fill="none" xmlns="http://www.w3.org/2000/svg">
<path d="M1.24906 57L9.02506 18.12H16.6091L24.3851 57H17.8091L16.2731 48.024H9.50506L7.92106 57H1.24906ZM10.2251 43.512H15.5051L12.8651 27.192L10.2251 43.512ZM28.2952 57V18.12H33.2392L42.6952 40.296V18.12H48.5512V57H43.8472L34.3432 33.768V57H28.2952ZM64.1954 57.528C61.6354 57.528 59.6034 56.984 58.0994 55.896C56.5954 54.808 55.5074 53.272 54.8354 51.288C54.1954 49.272 53.8754 46.904 53.8754 44.184V31.128C53.8754 28.344 54.1954 25.944 54.8354 23.928C55.4754 21.912 56.5954 20.376 58.1954 19.32C59.8274 18.232 62.0674 17.688 64.9154 17.688C67.5714 17.688 69.6834 18.136 71.2514 19.032C72.8194 19.928 73.9394 21.224 74.6114 22.92C75.3154 24.584 75.6674 26.616 75.6674 29.016V31.032H68.8994V28.824C68.8994 27.576 68.8034 26.504 68.6114 25.608C68.4514 24.712 68.0994 24.04 67.5554 23.592C67.0434 23.112 66.1954 22.872 65.0114 22.872C63.7634 22.872 62.8514 23.176 62.2754 23.784C61.7314 24.392 61.3794 25.192 61.2194 26.184C61.0914 27.176 61.0274 28.264 61.0274 29.448V45.72C61.0274 47.064 61.1394 48.232 61.3634 49.224C61.5874 50.216 62.0034 50.984 62.6114 51.528C63.2194 52.04 64.0834 52.296 65.2034 52.296C66.3554 52.296 67.2354 52.008 67.8434 51.432C68.4514 50.856 68.8674 50.056 69.0914 49.032C69.3474 48.008 69.4754 46.792 69.4754 45.384V41.736H65.2994V37.272H75.8594V57H71.2994L70.7714 53.16C70.2594 54.44 69.4754 55.496 68.4194 56.328C67.3954 57.128 65.9874 57.528 64.1954 57.528ZM91.9199 57.528C89.0399 57.528 86.7999 57 85.1999 55.944C83.5999 54.888 82.4959 53.384 81.8879 51.432C81.2799 49.48 80.9759 47.144 80.9759 44.424V18.12H87.8879V45.24C87.8879 46.456 87.9679 47.608 88.1279 48.696C88.2879 49.752 88.6559 50.616 89.2319 51.288C89.8399 51.928 90.7359 52.248 91.9199 52.248C93.1679 52.248 94.0639 51.928 94.6079 51.288C95.1839 50.616 95.5519 49.752 95.7119 48.696C95.9039 47.608 95.9999 46.456 95.9999 45.24V18.12H102.864V44.424C102.864 47.144 102.56 49.48 101.952 51.432C101.344 53.384 100.24 54.888 98.6399 55.944C97.0719 57 94.8319 57.528 91.9199 57.528ZM108.451 57V18.12H115.555V52.104H124.963V57H108.451ZM126.687 57L134.463 18.12H142.047L149.823 57H143.247L141.711 48.024H134.943L133.359 57H126.687ZM135.663 43.512H140.943L138.303 27.192L135.663 43.512ZM153.733 57V18.12H163.045C165.669 18.12 167.877 18.44 169.669 19.08C171.493 19.688 172.869 20.744 173.797 22.248C174.757 23.752 175.237 25.8 175.237 28.392C175.237 29.96 175.093 31.368 174.805 32.616C174.517 33.864 174.021 34.936 173.317 35.832C172.645 36.696 171.701 37.368 170.485 37.848L175.909 57H168.805L164.101 39.192H160.837V57H153.733ZM160.837 34.728H163.045C164.421 34.728 165.509 34.536 166.309 34.152C167.141 33.736 167.733 33.096 168.085 32.232C168.437 31.336 168.613 30.2 168.613 28.824C168.613 26.872 168.245 25.416 167.509 24.456C166.805 23.464 165.445 22.968 163.429 22.968H160.837V34.728Z" fill="#6C6C6C"/>
<path d="M210 57L190 37" stroke="#6C6C6C" stroke-width="3" stroke-miterlimit="10" stroke-linecap="round" stroke-linejoin="round"/>
<path d="M210 42.3286V57H195.329" stroke="#6C6C6C" stroke-width="3" stroke-miterlimit="10" stroke-linecap="round" stroke-linejoin="round"/>
</svg>
