<svg width="149" height="71" viewBox="0 0 149 71" fill="none" xmlns="http://www.w3.org/2000/svg">
<path d="M3.01169 57L3.68369 18.12H11.0277L16.5477 45.048L22.3077 18.12H29.4117L30.1317 57H24.8517L24.2757 29.976L18.7557 57H14.4837L8.86769 29.88L8.33969 57H3.01169ZM33.9053 57L41.6813 18.12H49.2653L57.0413 57H50.4653L48.9293 48.024H42.1613L40.5773 57H33.9053ZM42.8813 43.512H48.1613L45.5213 27.192L42.8813 43.512ZM60.9514 57V18.12H70.2634C72.8874 18.12 75.0954 18.44 76.8874 19.08C78.7114 19.688 80.0874 20.744 81.0154 22.248C81.9754 23.752 82.4554 25.8 82.4554 28.392C82.4554 29.96 82.3114 31.368 82.0234 32.616C81.7354 33.864 81.2394 34.936 80.5354 35.832C79.8634 36.696 78.9194 37.368 77.7034 37.848L83.1274 57H76.0234L71.3194 39.192H68.0554V57H60.9514ZM68.0554 34.728H70.2634C71.6394 34.728 72.7274 34.536 73.5274 34.152C74.3594 33.736 74.9514 33.096 75.3034 32.232C75.6554 31.336 75.8314 30.2 75.8314 28.824C75.8314 26.872 75.4634 25.416 74.7274 24.456C74.0234 23.464 72.6634 22.968 70.6474 22.968H68.0554V34.728ZM87.8577 57V18.12H94.9617V35.208L102.642 18.12H109.41L101.97 35.496L110.178 57H103.122L96.5937 39.288L94.9617 42.264V57H87.8577ZM113.405 57V18.12H129.725V23.112H120.509V34.296H127.757V39.24H120.509V52.104H129.821V57H113.405ZM137.824 57V23.352H131.632V18.12H151.024V23.352H144.928V57H137.824ZM154.753 57V18.12H161.761V57H154.753ZM167.78 57V18.12H172.724L182.18 40.296V18.12H188.036V57H183.332L173.828 33.768V57H167.78ZM203.68 57.528C201.12 57.528 199.088 56.984 197.584 55.896C196.08 54.808 194.992 53.272 194.32 51.288C193.68 49.272 193.36 46.904 193.36 44.184V31.128C193.36 28.344 193.68 25.944 194.32 23.928C194.96 21.912 196.08 20.376 197.68 19.32C199.312 18.232 201.552 17.688 204.4 17.688C207.056 17.688 209.168 18.136 210.736 19.032C212.304 19.928 213.424 21.224 214.096 22.92C214.8 24.584 215.152 26.616 215.152 29.016V31.032H208.384V28.824C208.384 27.576 208.288 26.504 208.096 25.608C207.936 24.712 207.584 24.04 207.04 23.592C206.528 23.112 205.68 22.872 204.496 22.872C203.248 22.872 202.336 23.176 201.76 23.784C201.216 24.392 200.864 25.192 200.704 26.184C200.576 27.176 200.512 28.264 200.512 29.448V45.72C200.512 47.064 200.624 48.232 200.848 49.224C201.072 50.216 201.488 50.984 202.096 51.528C202.704 52.04 203.568 52.296 204.688 52.296C205.84 52.296 206.72 52.008 207.328 51.432C207.936 50.856 208.352 50.056 208.576 49.032C208.832 48.008 208.96 46.792 208.96 45.384V41.736H204.784V37.272H215.344V57H210.784L210.256 53.16C209.744 54.44 208.96 55.496 207.904 56.328C206.88 57.128 205.472 57.528 203.68 57.528Z" fill="#969696"/>
</svg>
