<svg width="234" height="71" viewBox="0 0 234 71" fill="none" xmlns="http://www.w3.org/2000/svg">
<path d="M13.5996 57.528C10.7196 57.528 8.47963 57 6.87963 55.944C5.27963 54.888 4.17563 53.384 3.56763 51.432C2.95963 49.48 2.65563 47.144 2.65563 44.424V18.12H9.56763V45.24C9.56763 46.456 9.64763 47.608 9.80763 48.696C9.96763 49.752 10.3356 50.616 10.9116 51.288C11.5196 51.928 12.4156 52.248 13.5996 52.248C14.8476 52.248 15.7436 51.928 16.2876 51.288C16.8636 50.616 17.2316 49.752 17.3916 48.696C17.5836 47.608 17.6796 46.456 17.6796 45.24V18.12H24.5436V44.424C24.5436 47.144 24.2396 49.48 23.6316 51.432C23.0236 53.384 21.9196 54.888 20.3196 55.944C18.7516 57 16.5116 57.528 13.5996 57.528ZM27.6831 57L35.5071 36.36L27.9231 18.12H34.5471L39.5871 30.168L44.0031 18.12H50.1471L42.6591 37.704L50.7231 57H44.0991L38.5791 43.944L33.7791 57H27.6831ZM65.7561 57V18.12H74.9241C78.0921 18.12 80.5561 18.552 82.3161 19.416C84.1081 20.28 85.3721 21.608 86.1081 23.4C86.8761 25.192 87.2601 27.464 87.2601 30.216V44.424C87.2601 47.24 86.8761 49.592 86.1081 51.48C85.3721 53.336 84.1241 54.728 82.3641 55.656C80.6361 56.552 78.2521 57 75.2121 57H65.7561ZM72.8601 52.056H75.0201C76.6521 52.056 77.8201 51.768 78.5241 51.192C79.2281 50.616 79.6601 49.784 79.8201 48.696C79.9801 47.576 80.0601 46.216 80.0601 44.616V29.736C80.0601 28.168 79.9481 26.904 79.7241 25.944C79.5001 24.984 79.0361 24.28 78.3321 23.832C77.6281 23.384 76.4921 23.16 74.9241 23.16H72.8601V52.056ZM92.4749 57V18.12H108.795V23.112H99.5789V34.296H106.827V39.24H99.5789V52.104H108.891V57H92.4749ZM122.798 57.528C120.462 57.528 118.51 57.08 116.942 56.184C115.374 55.256 114.19 53.912 113.39 52.152C112.59 50.392 112.142 48.232 112.046 45.672L118.142 44.472C118.206 45.976 118.382 47.304 118.67 48.456C118.99 49.608 119.454 50.504 120.062 51.144C120.702 51.752 121.534 52.056 122.558 52.056C123.71 52.056 124.526 51.72 125.006 51.048C125.486 50.344 125.726 49.464 125.726 48.408C125.726 46.712 125.342 45.32 124.574 44.232C123.806 43.144 122.782 42.056 121.502 40.968L116.606 36.648C115.23 35.464 114.126 34.152 113.294 32.712C112.494 31.24 112.094 29.432 112.094 27.288C112.094 24.216 112.99 21.848 114.782 20.184C116.574 18.52 119.022 17.688 122.126 17.688C123.95 17.688 125.47 17.976 126.686 18.552C127.902 19.096 128.862 19.864 129.566 20.856C130.302 21.848 130.846 22.984 131.198 24.264C131.55 25.512 131.774 26.84 131.87 28.248L125.822 29.304C125.758 28.088 125.614 27 125.39 26.04C125.198 25.08 124.83 24.328 124.286 23.784C123.774 23.24 123.006 22.968 121.982 22.968C120.926 22.968 120.11 23.32 119.534 24.024C118.99 24.696 118.718 25.544 118.718 26.568C118.718 27.88 118.99 28.968 119.534 29.832C120.078 30.664 120.862 31.528 121.886 32.424L126.734 36.696C128.334 38.04 129.694 39.624 130.814 41.448C131.966 43.24 132.542 45.416 132.542 47.976C132.542 49.832 132.126 51.48 131.294 52.92C130.494 54.36 129.358 55.496 127.886 56.328C126.446 57.128 124.75 57.528 122.798 57.528ZM136.917 57V18.12H143.925V57H136.917ZM159.688 57.528C157.128 57.528 155.096 56.984 153.592 55.896C152.088 54.808 151 53.272 150.328 51.288C149.688 49.272 149.368 46.904 149.368 44.184V31.128C149.368 28.344 149.688 25.944 150.328 23.928C150.968 21.912 152.088 20.376 153.688 19.32C155.32 18.232 157.56 17.688 160.408 17.688C163.064 17.688 165.176 18.136 166.744 19.032C168.312 19.928 169.432 21.224 170.104 22.92C170.808 24.584 171.16 26.616 171.16 29.016V31.032H164.392V28.824C164.392 27.576 164.296 26.504 164.104 25.608C163.944 24.712 163.592 24.04 163.048 23.592C162.536 23.112 161.688 22.872 160.504 22.872C159.256 22.872 158.344 23.176 157.768 23.784C157.224 24.392 156.872 25.192 156.712 26.184C156.584 27.176 156.52 28.264 156.52 29.448V45.72C156.52 47.064 156.632 48.232 156.856 49.224C157.08 50.216 157.496 50.984 158.104 51.528C158.712 52.04 159.576 52.296 160.696 52.296C161.848 52.296 162.728 52.008 163.336 51.432C163.944 50.856 164.36 50.056 164.584 49.032C164.84 48.008 164.968 46.792 164.968 45.384V41.736H160.792V37.272H171.352V57H166.792L166.264 53.16C165.752 54.44 164.968 55.496 163.912 56.328C162.888 57.128 161.48 57.528 159.688 57.528ZM176.756 57V18.12H181.7L191.156 40.296V18.12H197.012V57H192.308L182.804 33.768V57H176.756Z" fill="#6C6C6C"/>
<path d="M232 57L212 37" stroke="#6C6C6C" stroke-width="3" stroke-miterlimit="10" stroke-linecap="round" stroke-linejoin="round"/>
<path d="M232 42.3286V57H217.329" stroke="#6C6C6C" stroke-width="3" stroke-miterlimit="10" stroke-linecap="round" stroke-linejoin="round"/>
</svg>
