<svg width="254" height="254" viewBox="0 0 254 254" fill="none" xmlns="http://www.w3.org/2000/svg">
<path d="M23.588 240.916C22.9179 240.342 21.4229 238.521 22.5755 236.403C22.9982 235.626 23.8958 235.242 24.7086 234.9C25.5209 234.558 26.3749 234.261 27.0475 233.689C28.3154 232.61 28.6654 230.818 29.5067 229.379C30.4729 227.727 32.2763 226.489 34.1818 226.576C36.3637 226.675 38.1838 228.457 39.0083 230.489C39.8333 232.521 39.8623 234.777 39.879 236.971C39.8887 238.185 39.8348 239.552 38.9438 240.372C38.1224 241.127 36.8859 241.136 35.7729 241.102C31.7983 240.98 27.8232 240.858 23.8486 240.736" fill="#F5F5F5"/>
<path d="M46.3946 208.126H15.0353L20.6842 241.809C20.9311 243.281 21.9954 244.414 23.3614 244.808C23.3975 244.819 23.4346 244.828 23.4711 244.838C23.5646 244.862 23.6545 244.893 23.7505 244.91C23.9573 244.953 24.1712 244.975 24.3881 244.983C24.3896 244.994 24.3916 245.005 24.3931 245.016L24.5461 244.992H24.5471H38.5232C38.7863 244.992 39.0429 244.965 39.2913 244.915C40.9418 244.659 42.2631 243.335 42.4637 241.623L45.1871 218.415L45.31 217.492H45.2953L46.3738 208.301L46.3946 208.126ZM40.479 229.612H37.2608L37.5854 219.836H41.3141L40.479 229.612ZM41.6265 219.836H44.7076L43.5605 229.612H40.7914L41.6265 219.836ZM32.4322 240.449L32.2367 231.956H36.8712L36.5892 240.449H32.4322ZM27.4223 231.956H31.9253L32.1208 240.449H28.0822L27.4223 231.956ZM27.7703 240.449H23.9949C23.6362 238.155 23.1694 235.175 22.6639 231.956H27.1104L27.7703 240.449ZM27.24 229.612L26.4805 219.836H31.6464L31.8714 229.612H27.24ZM32.1828 229.612L31.9578 219.836H37.274L36.9494 229.612H32.1828ZM31.9034 217.492L31.6951 208.439H37.6525L37.3517 217.492H31.9034ZM31.592 217.492H26.2981L25.5946 208.439H31.3837L31.592 217.492ZM25.9857 217.492H20.3845C20.1864 216.242 19.9979 215.058 19.8283 213.993C19.2441 210.333 19.0241 208.957 18.9022 208.439H25.2821L25.9857 217.492ZM26.1681 219.836L26.9276 229.612H22.2951C22.1392 228.62 21.9817 227.616 21.8237 226.613C21.4605 224.305 21.0967 221.998 20.7554 219.836H26.1681ZM21.9807 229.612H18.9545L17.3147 219.836H20.4404C20.9179 222.857 21.4478 226.219 21.9807 229.612ZM22.3484 231.956C22.8097 234.895 23.2639 237.793 23.6794 240.449H20.7721L19.3477 231.956H22.3484ZM36.9006 240.449L37.1826 231.956H40.2783L39.5529 240.449H36.9006ZM37.6631 217.492L37.9639 208.439H42.288L41.5148 217.492H37.6631ZM18.606 208.439C18.7305 209.093 19.3025 212.656 20.0696 217.492H16.9215L15.4031 208.439H18.606ZM42.289 240.449H39.8653L40.5907 231.956H43.2852L42.289 240.449ZM44.9824 217.492H41.8267L42.6004 208.439H46.0451L44.9824 217.492Z" fill="#E0E0E0"/>
<path d="M237.036 64.7446H194.77V102.559H237.036V64.7446Z" fill="#FAFAFA"/>
<path d="M237.037 102.559C237.037 102.559 237.03 102.316 237.026 101.857C237.024 101.393 237.02 100.714 237.015 99.8306C237.009 98.0552 237.001 95.4603 236.99 92.1548C236.978 85.5477 236.961 76.107 236.941 64.7446L237.037 64.8401C224.865 64.8452 210.338 64.8508 194.774 64.8574H194.771L194.884 64.7446C194.878 78.5018 194.874 91.4471 194.87 102.559L194.77 102.459C207.379 102.48 217.933 102.497 225.34 102.509C229.047 102.521 231.964 102.53 233.962 102.536C234.958 102.541 235.723 102.545 236.245 102.547C236.5 102.55 236.696 102.552 236.834 102.553C236.966 102.555 237.037 102.559 237.037 102.559C237.037 102.559 236.974 102.562 236.845 102.564C236.71 102.566 236.519 102.567 236.268 102.57C235.75 102.572 234.991 102.576 234.005 102.581C232.012 102.588 229.101 102.597 225.405 102.608C217.981 102.62 207.406 102.637 194.771 102.658H194.671V102.559C194.667 91.4476 194.663 78.5018 194.657 64.7446V64.6318H194.77H194.774C210.337 64.6379 224.864 64.644 237.036 64.6491H237.132V64.7451C237.112 76.1324 237.095 85.5945 237.083 92.2157C237.072 95.5116 237.064 98.0999 237.058 99.8698C237.053 100.746 237.05 101.418 237.047 101.877C237.044 102.33 237.037 102.559 237.037 102.559Z" fill="#E0E0E0"/>
<path d="M210.977 71.4634C210.977 71.5258 208.752 71.5761 206.009 71.5761C203.264 71.5761 201.04 71.5253 201.04 71.4634C201.04 71.4009 203.264 71.3506 206.009 71.3506C208.752 71.3501 210.977 71.4009 210.977 71.4634Z" fill="#E0E0E0"/>
<path d="M228.886 74.3027C228.886 74.3652 222.774 74.4155 215.236 74.4155C207.696 74.4155 201.585 74.3652 201.585 74.3027C201.585 74.2402 207.696 74.1899 215.236 74.1899C222.774 74.1894 228.886 74.2402 228.886 74.3027Z" fill="#E0E0E0"/>
<path d="M202.893 79.1118H201.112V80.8924H202.893V79.1118Z" fill="#E0E0E0"/>
<path d="M207.276 79.1118H205.496V80.8924H207.276V79.1118Z" fill="#E0E0E0"/>
<path d="M211.74 79.031H209.959V80.8115H211.74V79.031Z" fill="#E0E0E0"/>
<path d="M216.042 79.1118H214.262V80.8924H216.042V79.1118Z" fill="#E0E0E0"/>
<path d="M220.426 79.1118H218.645V80.8924H220.426V79.1118Z" fill="#E0E0E0"/>
<path d="M224.809 79.1118H223.028V80.8924H224.809V79.1118Z" fill="#E0E0E0"/>
<path d="M229.192 79.1118H227.411V80.8924H229.192V79.1118Z" fill="#EBEBEB"/>
<path d="M202.893 82.8975H201.112V84.678H202.893V82.8975Z" fill="#EBEBEB"/>
<path d="M207.276 82.8975H205.496V84.678H207.276V82.8975Z" fill="#E0E0E0"/>
<path d="M211.659 82.8975H209.879V84.678H211.659V82.8975Z" fill="#EBEBEB"/>
<path d="M216.042 82.8975H214.262V84.678H216.042V82.8975Z" fill="#E0E0E0"/>
<path d="M220.426 82.8975H218.645V84.678H220.426V82.8975Z" fill="#E0E0E0"/>
<path d="M224.89 82.8167H223.109V84.5972H224.89V82.8167Z" fill="#E0E0E0"/>
<path d="M229.192 82.8975H227.411V84.678H229.192V82.8975Z" fill="#E0E0E0"/>
<path d="M202.893 86.6831H201.112V88.4636H202.893V86.6831Z" fill="#E0E0E0"/>
<path d="M207.357 86.6023H205.576V88.3828H207.357V86.6023Z" fill="#E0E0E0"/>
<path d="M211.659 86.6831H209.879V88.4636H211.659V86.6831Z" fill="#E0E0E0"/>
<path d="M216.042 86.6831H214.262V88.4636H216.042V86.6831Z" fill="#EBEBEB"/>
<path d="M220.426 86.6831H218.645V88.4636H220.426V86.6831Z" fill="#E0E0E0"/>
<path d="M224.809 86.6831H223.028V88.4636H224.809V86.6831Z" fill="#E0E0E0"/>
<path d="M229.192 86.6831H227.411V88.4636H229.192V86.6831Z" fill="#E0E0E0"/>
<path d="M202.893 90.4688H201.112V92.2493H202.893V90.4688Z" fill="#E0E0E0"/>
<path d="M207.276 90.4688H205.496V92.2493H207.276V90.4688Z" fill="#E0E0E0"/>
<path d="M211.659 90.4688H209.879V92.2493H211.659V90.4688Z" fill="#E0E0E0"/>
<path d="M216.123 90.3879H214.342V92.1685H216.123V90.3879Z" fill="#E0E0E0"/>
<path d="M220.426 90.4688H218.645V92.2493H220.426V90.4688Z" fill="#E0E0E0"/>
<path d="M224.809 90.4688H223.028V92.2493H224.809V90.4688Z" fill="#EBEBEB"/>
<path d="M229.192 90.4688H227.411V92.2493H229.192V90.4688Z" fill="#E0E0E0"/>
<path d="M202.893 94.2544H201.112V96.0349H202.893V94.2544Z" fill="#E0E0E0"/>
<path d="M207.276 94.2544H205.496V96.0349H207.276V94.2544Z" fill="#EBEBEB"/>
<path d="M211.659 94.2544H209.879V96.0349H211.659V94.2544Z" fill="#E0E0E0"/>
<path d="M216.042 94.2544H214.262V96.0349H216.042V94.2544Z" fill="#E0E0E0"/>
<path d="M220.426 94.2544H218.645V96.0349H220.426V94.2544Z" fill="#E0E0E0"/>
<path d="M224.89 94.1736H223.109V95.9541H224.89V94.1736Z" fill="#E0E0E0"/>
<path d="M229.192 94.2544H227.411V96.0349H229.192V94.2544Z" fill="#E0E0E0"/>
<path d="M228.888 40.2907C230.238 31.8921 224.524 23.9894 216.126 22.6394C207.727 21.2894 199.824 27.0034 198.474 35.4019C197.124 43.8005 202.838 51.7033 211.237 53.0533C219.635 54.4033 227.538 48.6893 228.888 40.2907Z" fill="#E0E0E0"/>
<path d="M213.84 51.6234C221.538 51.6234 227.779 45.3827 227.779 37.6844C227.779 29.9861 221.538 23.7454 213.84 23.7454C206.141 23.7454 199.901 29.9861 199.901 37.6844C199.901 45.3827 206.141 51.6234 213.84 51.6234Z" fill="white"/>
<path d="M199.759 36.8483C199.759 36.8483 199.763 36.9255 199.764 37.0759C199.763 37.2308 199.762 37.4528 199.761 37.7429C199.76 37.8897 199.759 38.0538 199.758 38.2341C199.765 38.4145 199.79 38.611 199.808 38.8244C199.827 39.0378 199.848 39.2674 199.871 39.5127C199.883 39.7596 199.958 40.0136 200.003 40.288C200.177 41.3852 200.599 42.6964 201.307 44.1035C202.022 45.5051 203.089 46.991 204.591 48.291C204.78 48.452 204.971 48.6146 205.164 48.7797C205.367 48.9321 205.582 49.0743 205.793 49.2247C206.009 49.3674 206.212 49.5371 206.447 49.6621C206.678 49.7921 206.911 49.9237 207.147 50.0563C207.266 50.1223 207.384 50.1884 207.504 50.2549C207.629 50.3098 207.755 50.3652 207.881 50.421C208.133 50.5323 208.388 50.6446 208.646 50.7583C208.906 50.864 209.181 50.9387 209.452 51.0316C209.726 51.1129 209.994 51.2293 210.282 51.278C210.853 51.3974 211.427 51.5544 212.03 51.5976C212.329 51.6275 212.63 51.6768 212.935 51.692C213.241 51.6961 213.549 51.7007 213.859 51.7047C214.014 51.7042 214.171 51.7154 214.326 51.7053C214.482 51.6915 214.638 51.6778 214.795 51.6641C215.109 51.6331 215.426 51.6174 215.742 51.5737C216.367 51.4467 217.012 51.3639 217.633 51.151L218.106 51.0118C218.185 50.988 218.265 50.9671 218.343 50.9402L218.573 50.8472C218.88 50.7233 219.19 50.5978 219.501 50.4723C219.805 50.3321 220.099 50.165 220.401 50.0116C220.55 49.9298 220.707 49.8617 220.849 49.7683L221.279 49.4883C221.871 49.1373 222.397 48.6842 222.946 48.2503C223.197 48.0075 223.45 47.7632 223.704 47.5178L223.895 47.3334L224.069 47.1322L224.415 46.7269L224.763 46.3199L225.073 45.8805L225.383 45.4381L225.539 45.2161C225.586 45.1394 225.629 45.0591 225.674 44.9804C225.852 44.6649 226.031 44.3479 226.211 44.0299C226.359 43.6956 226.507 43.3608 226.656 43.024C227.201 41.657 227.543 40.1899 227.662 38.6811C227.741 37.1698 227.595 35.6697 227.233 34.2428C227.13 33.8897 227.027 33.5377 226.924 33.1871C226.787 32.8483 226.651 32.5105 226.515 32.1747L226.413 31.9232L226.287 31.6829L226.038 31.2034L225.788 30.7269L225.496 30.2778L225.205 29.8303L225.059 29.6083L224.894 29.4005C224.674 29.1241 224.456 28.8488 224.238 28.575C223.75 28.0731 223.287 27.5549 222.747 27.1292L222.357 26.7955C222.228 26.6837 222.081 26.5958 221.945 26.4952C221.665 26.3037 221.396 26.0995 221.112 25.9207C220.82 25.7556 220.53 25.591 220.241 25.4274L220.025 25.305C219.951 25.2684 219.875 25.2374 219.8 25.2029L219.349 25.0033C218.761 24.7106 218.132 24.5445 217.529 24.3368C217.221 24.2519 216.908 24.195 216.602 24.1234C216.448 24.0894 216.295 24.0553 216.142 24.0213C215.989 23.9908 215.833 23.9817 215.679 23.9608C215.371 23.9248 215.064 23.8887 214.761 23.8526C214.456 23.8282 214.151 23.8374 213.851 23.8282C213.247 23.7922 212.657 23.873 212.076 23.9166C211.784 23.9273 211.503 24.0076 211.221 24.0523C210.94 24.1092 210.658 24.1473 210.386 24.2184C210.115 24.2971 209.848 24.3754 209.583 24.4526C209.45 24.4912 209.318 24.5298 209.187 24.5679C209.06 24.6182 208.934 24.6685 208.808 24.7183C208.556 24.8194 208.308 24.9189 208.062 25.018C207.814 25.112 207.59 25.2532 207.357 25.3665C207.127 25.4879 206.896 25.6001 206.676 25.7251C206.462 25.8633 206.252 25.9994 206.044 26.1346C204.385 27.2273 203.132 28.5608 202.24 29.8572C201.354 31.1592 200.765 32.4043 200.448 33.4691C200.368 33.7348 200.261 33.9771 200.216 34.2204C200.162 34.4607 200.111 34.6852 200.064 34.8945C200.018 35.1038 199.968 35.2953 199.937 35.4731C199.915 35.6519 199.894 35.8145 199.877 35.9603C199.84 36.2478 199.812 36.4678 199.792 36.6217C199.774 36.7721 199.759 36.8483 199.759 36.8483C199.759 36.8483 199.763 36.7716 199.778 36.6217C199.794 36.4673 199.817 36.2463 199.847 35.9573C199.863 35.8109 199.881 35.6474 199.901 35.4675C199.929 35.2887 199.977 35.0962 200.02 34.8859C200.065 34.6756 200.114 34.4495 200.166 34.2077C200.208 33.9634 200.314 33.719 200.392 33.4518C200.702 32.3794 201.285 31.1241 202.17 29.8089C203.061 28.4998 204.316 27.1516 205.984 26.0441C206.194 25.9075 206.405 25.7693 206.62 25.6296C206.842 25.5026 207.075 25.3883 207.306 25.2654C207.54 25.1506 207.765 25.0073 208.016 24.9118C208.264 24.8112 208.514 24.7096 208.767 24.6075C208.894 24.5567 209.021 24.5059 209.149 24.4546C209.281 24.4155 209.414 24.3764 209.548 24.3368C209.815 24.258 210.085 24.1788 210.357 24.0985C210.632 24.0264 210.917 23.9867 211.199 23.9288C211.484 23.8826 211.767 23.8013 212.063 23.7896C212.649 23.7439 213.244 23.6611 213.853 23.6962C214.157 23.7048 214.464 23.6946 214.772 23.719C215.079 23.7546 215.388 23.7901 215.7 23.8262C215.855 23.847 216.013 23.8562 216.168 23.8867C216.322 23.9207 216.477 23.9542 216.632 23.9888C216.942 24.0604 217.258 24.1178 217.568 24.2032C218.178 24.4114 218.813 24.5791 219.409 24.8732L219.864 25.0744C219.94 25.1089 220.018 25.1399 220.093 25.177L220.311 25.3004C220.603 25.465 220.896 25.6306 221.192 25.7973C221.478 25.9776 221.752 26.1833 222.034 26.3769C222.172 26.4785 222.321 26.5669 222.451 26.6797L222.845 27.0165C223.392 27.4462 223.86 27.969 224.354 28.4764C224.574 28.7533 224.796 29.0312 225.018 29.3106L225.185 29.5204L225.333 29.7449L225.627 30.197L225.922 30.6512L226.176 31.1328L226.428 31.6174L226.555 31.8602L226.659 32.1142C226.796 32.4541 226.934 32.7955 227.072 33.1379C227.176 33.4924 227.281 33.848 227.386 34.2052C227.753 35.6479 227.901 37.1653 227.82 38.6933C227.7 40.2184 227.354 41.7022 226.802 43.0845C226.651 43.4249 226.5 43.7637 226.351 44.101C226.169 44.4226 225.988 44.7426 225.808 45.0616C225.762 45.1409 225.719 45.2216 225.671 45.2994L225.514 45.5239L225.2 45.971L224.886 46.4149L224.534 46.8264L224.183 47.2359L224.008 47.4391L223.815 47.625C223.558 47.8729 223.302 48.1193 223.048 48.3646C222.493 48.8031 221.959 49.2597 221.362 49.6143L220.927 49.8968C220.782 49.9913 220.624 50.0598 220.474 50.1421C220.168 50.2971 219.871 50.4652 219.563 50.6065C219.248 50.7329 218.935 50.8589 218.625 50.9839L218.392 51.0774C218.314 51.1043 218.232 51.1251 218.153 51.1495L217.675 51.2892C217.047 51.5031 216.395 51.5864 215.763 51.7129C215.444 51.7566 215.123 51.7723 214.807 51.8028C214.648 51.8165 214.49 51.8297 214.333 51.8429C214.176 51.8531 214.018 51.8414 213.861 51.8419C213.548 51.8368 213.237 51.8317 212.928 51.8267C212.62 51.8104 212.317 51.7606 212.014 51.7291C211.406 51.6839 210.827 51.5249 210.252 51.4025C209.96 51.3522 209.691 51.2348 209.414 51.152C209.142 51.0576 208.864 50.9808 208.602 50.8737C208.342 50.7583 208.085 50.6446 207.83 50.5313C207.703 50.4749 207.576 50.4185 207.45 50.3626C207.33 50.295 207.211 50.228 207.091 50.1614C206.854 50.0268 206.619 49.8937 206.386 49.7616C206.15 49.6346 205.946 49.4629 205.728 49.3182C205.515 49.1658 205.3 49.022 205.096 48.8676C204.902 48.7009 204.71 48.5358 204.52 48.3733C203.011 47.0576 201.942 45.5564 201.23 44.1421C200.524 42.7228 200.11 41.402 199.944 40.2981C199.901 40.0228 199.828 39.7667 199.818 39.5188C199.798 39.2725 199.78 39.0418 199.762 38.8275C199.747 38.6131 199.724 38.416 199.72 38.2351C199.724 38.0543 199.728 37.8902 199.731 37.7429C199.739 37.4528 199.745 37.2303 199.749 37.0754C199.753 36.925 199.759 36.8483 199.759 36.8483Z" fill="#EBEBEB"/>
<path d="M220.189 38.0664C220.189 38.0781 220.013 38.0893 219.693 38.0989C219.343 38.106 218.885 38.1152 218.33 38.1263C217.174 38.1421 215.563 38.1533 213.744 38.1563H213.654V38.0664C213.654 37.7753 213.654 37.4685 213.654 37.1571C213.654 35.1256 213.664 33.2871 213.68 31.9562C213.692 31.3146 213.701 30.7837 213.709 30.3804C213.72 30.008 213.732 29.8022 213.744 29.8022C213.757 29.8022 213.768 30.008 213.78 30.3804C213.787 30.7837 213.797 31.3146 213.809 31.9562C213.825 33.2871 213.836 35.1256 213.836 37.1571C213.835 37.4685 213.835 37.7753 213.835 38.0664L213.745 37.9765C215.564 37.9795 217.175 37.9902 218.331 38.0064C218.886 38.0176 219.343 38.0268 219.694 38.0339C220.013 38.044 220.189 38.0547 220.189 38.0664Z" fill="#E0E0E0"/>
<path d="M213.787 25.9165C213.837 25.9165 213.878 26.4438 213.878 27.094C213.878 27.7448 213.837 28.2721 213.787 28.2721C213.737 28.2721 213.696 27.7448 213.696 27.094C213.696 26.4438 213.737 25.9165 213.787 25.9165Z" fill="#E0E0E0"/>
<path d="M220.176 27.8082C220.211 27.8438 219.873 28.24 219.419 28.6932C218.965 29.1468 218.569 29.4851 218.534 29.4501C218.498 29.4145 218.837 29.0183 219.291 28.5651C219.744 28.1115 220.14 27.7727 220.176 27.8082Z" fill="#E0E0E0"/>
<path d="M223.911 31.8891C223.934 31.9348 223.49 32.2025 222.945 32.5337C222.4 32.8644 221.957 33.1357 221.928 33.0946C221.899 33.0549 222.298 32.7136 222.851 32.3788C223.403 32.043 223.89 31.8454 223.911 31.8891Z" fill="#E0E0E0"/>
<path d="M226.101 37.9449C226.101 37.9952 225.381 38.0359 224.495 38.0359C223.608 38.0359 222.889 37.9952 222.889 37.9449C222.889 37.8946 223.607 37.854 224.495 37.854C225.381 37.854 226.101 37.8946 226.101 37.9449Z" fill="#E0E0E0"/>
<path d="M203.829 37.7306C203.829 37.7804 203.15 37.8215 202.312 37.8215C201.474 37.8215 200.795 37.7809 200.795 37.7306C200.795 37.6803 201.474 37.6396 202.312 37.6396C203.15 37.6396 203.829 37.6803 203.829 37.7306Z" fill="#E0E0E0"/>
<path d="M205.404 42.239C205.437 42.2766 204.924 42.7424 204.258 43.2789C203.592 43.8153 203.028 44.2177 202.998 44.1775C202.968 44.1374 203.481 43.6721 204.144 43.1377C204.807 42.6032 205.371 42.2014 205.404 42.239Z" fill="#E0E0E0"/>
<path d="M209.29 45.7255C209.332 45.756 208.951 46.3412 208.51 47.0778C208.067 47.8133 207.728 48.424 207.682 48.4011C207.638 48.3803 207.906 47.728 208.354 46.9838C208.801 46.2396 209.251 45.6965 209.29 45.7255Z" fill="#E0E0E0"/>
<path d="M213.787 50.2228C213.737 50.2228 213.696 49.5035 213.696 48.6166C213.696 47.7296 213.737 47.0103 213.787 47.0103C213.837 47.0103 213.878 47.7291 213.878 48.6166C213.878 49.5035 213.837 50.2228 213.787 50.2228Z" fill="#E0E0E0"/>
<path d="M220.71 48.0825C220.685 48.1226 220.056 47.7614 219.386 47.1752C218.713 46.591 218.27 46.018 218.306 45.987C218.346 45.9525 218.843 46.4635 219.505 47.0386C220.165 47.6157 220.739 48.0388 220.71 48.0825Z" fill="#E0E0E0"/>
<path d="M223.959 44.5834C223.924 44.6189 223.448 44.1998 222.896 43.6481C222.344 43.0959 221.925 42.6199 221.96 42.5844C221.996 42.5488 222.472 42.9674 223.024 43.5196C223.576 44.0718 223.995 44.5478 223.959 44.5834Z" fill="#E0E0E0"/>
<path d="M205.257 33.4121C205.221 33.4477 204.801 33.0844 204.319 32.6018C203.836 32.1187 203.473 31.6986 203.508 31.6631C203.544 31.6275 203.964 31.9902 204.447 32.4733C204.929 32.9559 205.292 33.3765 205.257 33.4121Z" fill="#E0E0E0"/>
<path d="M209.267 29.188C209.231 29.2235 208.818 28.8694 208.344 28.3975C207.87 27.9256 207.514 27.5141 207.55 27.4785C207.585 27.443 207.998 27.7971 208.472 28.269C208.946 28.7409 209.302 29.1524 209.267 29.188Z" fill="#E0E0E0"/>
<path d="M201.359 37.8216C201.359 30.4017 207.157 24.3382 214.469 23.9095C214.195 23.8932 213.919 23.8831 213.64 23.8831C205.942 23.8831 199.701 30.1238 199.701 37.8221C199.701 45.5203 205.942 51.7606 213.64 51.7606C213.919 51.7606 214.195 51.7499 214.469 51.7342C207.156 51.3044 201.359 45.2414 201.359 37.8216Z" fill="#F5F5F5"/>
<path d="M58.546 25.407H19.3046V87.4216H58.546V25.407Z" fill="#E0E0E0"/>
<path d="M57.3548 26.5718H20.3617V86.402H57.3548V26.5718Z" fill="#F5F5F5"/>
<path d="M53.6093 30.0571H38.8585V52.9466H53.6093V30.0571Z" fill="white"/>
<path d="M47.0186 32.0809C47.0186 32.3852 46.7722 32.6316 46.4679 32.6316C46.1636 32.6316 45.9172 32.3852 45.9172 32.0809C45.9172 31.7767 46.1636 31.5303 46.4679 31.5303C46.7722 31.5303 47.0186 31.7767 47.0186 32.0809Z" fill="#E0E0E0"/>
<path d="M38.7432 59.3169H23.9924V82.2064H38.7432V59.3169Z" fill="white"/>
<path d="M32.1525 61.3402C32.1525 61.6445 31.9061 61.8909 31.6018 61.8909C31.2975 61.8909 31.0511 61.6445 31.0511 61.3402C31.0511 61.0364 31.2975 60.7896 31.6018 60.7896C31.9061 60.7901 32.1525 61.0364 32.1525 61.3402Z" fill="#E0E0E0"/>
<path d="M36.3906 30.0571H23.7927V47.9311H36.3906V30.0571Z" fill="white"/>
<path d="M30.5492 31.6806C30.5492 31.9331 30.3444 32.1378 30.092 32.1378C29.8395 32.1378 29.6348 31.9331 29.6348 31.6806C29.6348 31.4281 29.8395 31.2234 30.092 31.2234C30.3444 31.2234 30.5492 31.4281 30.5492 31.6806Z" fill="#E0E0E0"/>
<path d="M54.0941 59.632L40.6215 61.1519L41.4635 68.6163L54.9361 67.0965L54.0941 59.632Z" fill="white"/>
<path d="M47.9837 61.8072C47.9837 62.0647 47.7749 62.2735 47.5174 62.2735C47.2598 62.2735 47.051 62.0647 47.051 61.8072C47.051 61.5496 47.2598 61.3408 47.5174 61.3408C47.7749 61.3403 47.9837 61.5496 47.9837 61.8072Z" fill="#E0E0E0"/>
<path d="M36.7751 64.5377C36.7751 64.5982 34.4587 64.6474 31.6022 64.6474C28.7447 64.6474 26.4287 64.5982 26.4287 64.5377C26.4287 64.4773 28.7447 64.428 31.6022 64.428C34.4587 64.428 36.7751 64.4773 36.7751 64.5377Z" fill="#E0E0E0"/>
<path d="M36.7751 66.1754C36.7751 66.2364 34.4587 66.2856 31.6022 66.2856C28.7447 66.2856 26.4287 66.2364 26.4287 66.1754C26.4287 66.115 28.7447 66.0657 31.6022 66.0657C34.4587 66.0657 36.7751 66.1144 36.7751 66.1754Z" fill="#E0E0E0"/>
<path d="M36.7751 67.8133C36.7751 67.8738 34.4587 67.9231 31.6022 67.9231C28.7447 67.9231 26.4287 67.8738 26.4287 67.8133C26.4287 67.7524 28.7447 67.7036 31.6022 67.7036C34.4587 67.7031 36.7751 67.7524 36.7751 67.8133Z" fill="#E0E0E0"/>
<path d="M36.7751 69.4506C36.7751 69.5115 34.4587 69.5603 31.6022 69.5603C28.7447 69.5603 26.4287 69.511 26.4287 69.4506C26.4287 69.3901 28.7447 69.3408 31.6022 69.3408C34.4587 69.3408 36.7751 69.3901 36.7751 69.4506Z" fill="#E0E0E0"/>
<path d="M36.7751 71.0885C36.7751 71.1494 34.4587 71.1987 31.6022 71.1987C28.7447 71.1987 26.4287 71.1494 26.4287 71.0885C26.4287 71.028 28.7447 70.9788 31.6022 70.9788C34.4587 70.9788 36.7751 71.028 36.7751 71.0885Z" fill="#E0E0E0"/>
<path d="M36.7751 72.7262C36.7751 72.7871 34.4587 72.8359 31.6022 72.8359C28.7447 72.8359 26.4287 72.7866 26.4287 72.7262C26.4287 72.6657 28.7447 72.6165 31.6022 72.6165C34.4587 72.616 36.7751 72.6652 36.7751 72.7262Z" fill="#E0E0E0"/>
<path d="M36.7751 74.3639C36.7751 74.4248 34.4587 74.4736 31.6022 74.4736C28.7447 74.4736 26.4287 74.4243 26.4287 74.3639C26.4287 74.3034 28.7447 74.2542 31.6022 74.2542C34.4587 74.2536 36.7751 74.3029 36.7751 74.3639Z" fill="#E0E0E0"/>
<path d="M52.8315 62.7836C52.8402 62.8435 50.5531 63.2159 47.7246 63.6152C44.895 64.0145 42.5948 64.2893 42.5867 64.2294C42.5781 64.1694 44.8646 63.7971 47.6941 63.3978C50.5227 62.9985 52.8229 62.7237 52.8315 62.7836Z" fill="#E0E0E0"/>
<path d="M53.0373 63.8078C53.046 63.8677 50.759 64.2401 47.9304 64.6394C45.1009 65.0386 42.8006 65.3135 42.7925 65.2535C42.7844 65.1936 45.0704 64.8212 47.8999 64.4219C50.728 64.0227 53.0287 63.7478 53.0373 63.8078Z" fill="#E0E0E0"/>
<path d="M53.2252 64.7536C53.2338 64.8135 50.9468 65.1864 48.1183 65.5852C45.2887 65.9844 42.989 66.2593 42.9804 66.1993C42.9717 66.1394 45.2582 65.767 48.0878 65.3677C50.9158 64.9685 53.2166 64.6936 53.2252 64.7536Z" fill="#E0E0E0"/>
<path d="M52.3123 34.8456C52.3123 34.9065 49.6956 34.9553 46.4683 34.9553C43.24 34.9553 40.6238 34.906 40.6238 34.8456C40.6238 34.7851 43.24 34.7358 46.4683 34.7358C49.6951 34.7358 52.3123 34.7851 52.3123 34.8456Z" fill="#E0E0E0"/>
<path d="M52.3123 35.8194C52.3123 35.8799 49.6956 35.9292 46.4683 35.9292C43.24 35.9292 40.6238 35.8799 40.6238 35.8194C40.6238 35.759 43.24 35.7097 46.4683 35.7097C49.6951 35.7097 52.3123 35.7585 52.3123 35.8194Z" fill="#E0E0E0"/>
<path d="M52.3123 36.7933C52.3123 36.8543 49.6956 36.9031 46.4683 36.9031C43.24 36.9031 40.6238 36.8538 40.6238 36.7933C40.6238 36.7329 43.24 36.6836 46.4683 36.6836C49.6951 36.6831 52.3123 36.7324 52.3123 36.7933Z" fill="#E0E0E0"/>
<path d="M52.3123 37.7667C52.3123 37.8272 49.6956 37.8764 46.4683 37.8764C43.24 37.8764 40.6238 37.8272 40.6238 37.7667C40.6238 37.7063 43.24 37.657 46.4683 37.657C49.6951 37.657 52.3123 37.7063 52.3123 37.7667Z" fill="#E0E0E0"/>
<path d="M52.3123 38.7403C52.3123 38.8008 49.6956 38.8501 46.4683 38.8501C43.24 38.8501 40.6238 38.8008 40.6238 38.7403C40.6238 38.6799 43.24 38.6306 46.4683 38.6306C49.6951 38.6306 52.3123 38.6799 52.3123 38.7403Z" fill="#E0E0E0"/>
<path d="M52.3123 39.7142C52.3123 39.7747 49.6956 39.8239 46.4683 39.8239C43.24 39.8239 40.6238 39.7747 40.6238 39.7142C40.6238 39.6538 43.24 39.6045 46.4683 39.6045C49.6951 39.6045 52.3123 39.6538 52.3123 39.7142Z" fill="#E0E0E0"/>
<path d="M52.3123 40.6881C52.3123 40.7486 49.6956 40.7978 46.4683 40.7978C43.24 40.7978 40.6238 40.7486 40.6238 40.6881C40.6238 40.6276 43.24 40.5784 46.4683 40.5784C49.6951 40.5784 52.3123 40.6276 52.3123 40.6881Z" fill="#E0E0E0"/>
<path d="M52.3123 43.5777C52.3123 43.6387 49.6956 43.6875 46.4683 43.6875C43.24 43.6875 40.6238 43.6382 40.6238 43.5777C40.6238 43.5173 43.24 43.468 46.4683 43.468C49.6951 43.468 52.3123 43.5173 52.3123 43.5777Z" fill="#E0E0E0"/>
<path d="M52.3941 44.6063C52.3941 44.6668 49.7774 44.716 46.5501 44.716C43.3218 44.716 40.7056 44.6668 40.7056 44.6063C40.7056 44.5459 43.3218 44.4966 46.5501 44.4966C49.7774 44.4961 52.3941 44.5454 52.3941 44.6063Z" fill="#E0E0E0"/>
<path d="M52.4764 45.6346C52.4764 45.6956 49.8597 45.7444 46.6324 45.7444C43.404 45.7444 40.7878 45.6951 40.7878 45.6346C40.7878 45.5742 43.404 45.5249 46.6324 45.5249C49.8597 45.5249 52.4764 45.5742 52.4764 45.6346Z" fill="#E0E0E0"/>
<path d="M52.5588 46.6632C52.5588 46.7236 49.9421 46.7729 46.7148 46.7729C43.4864 46.7729 40.8702 46.7236 40.8702 46.6632C40.8702 46.6027 43.4864 46.5535 46.7148 46.5535C49.9421 46.5535 52.5588 46.6027 52.5588 46.6632Z" fill="#E0E0E0"/>
<path d="M52.6411 47.6915C52.6411 47.752 50.0244 47.8012 46.7971 47.8012C43.5687 47.8012 40.9525 47.752 40.9525 47.6915C40.9525 47.6311 43.5687 47.5818 46.7971 47.5818C50.0244 47.5818 52.6411 47.6311 52.6411 47.6915Z" fill="#E0E0E0"/>
<path d="M52.7234 48.7201C52.7234 48.781 50.1067 48.8298 46.8793 48.8298C43.651 48.8298 41.0348 48.7805 41.0348 48.7201C41.0348 48.6596 43.651 48.6104 46.8793 48.6104C50.1067 48.6104 52.7234 48.6596 52.7234 48.7201Z" fill="#E0E0E0"/>
<path d="M243.913 245.03C243.913 245.103 191.565 245.162 127.006 245.162C62.4241 245.162 10.0874 245.102 10.0874 245.03C10.0874 244.957 62.4236 244.898 127.006 244.898C191.565 244.898 243.913 244.957 243.913 245.03Z" fill="#263238"/>
<path d="M180.98 191.252H74.233C71.6422 191.252 69.5416 189.151 69.5416 186.56V31.114C69.5416 28.5227 71.6422 26.4226 74.233 26.4226H180.98C183.571 26.4226 185.671 28.5232 185.671 31.114V186.56C185.671 189.151 183.57 191.252 180.98 191.252Z" fill="#E0E0E0"/>
<path d="M180.98 191.252C180.98 191.252 181.1 191.242 181.339 191.228C181.577 191.212 181.932 191.157 182.385 191.025C182.832 190.878 183.374 190.632 183.919 190.193C184.456 189.753 184.996 189.111 185.327 188.253C185.502 187.828 185.601 187.345 185.632 186.834C185.659 186.322 185.638 185.777 185.643 185.209C185.642 184.07 185.64 182.825 185.638 181.477C185.635 178.779 185.632 175.667 185.628 172.164C185.62 158.149 185.607 137.871 185.593 112.816C185.589 100.287 185.584 86.5642 185.579 71.8322C185.577 64.4662 185.575 56.8478 185.573 49.0007C185.572 45.0769 185.572 41.0962 185.571 37.0607C185.568 35.0439 185.565 33.0139 185.562 30.9707C185.542 29.9685 185.158 28.9855 184.527 28.2037C183.882 27.433 182.988 26.86 181.996 26.6436C181.5 26.5308 180.996 26.5207 180.473 26.5273C179.953 26.5273 179.433 26.5273 178.912 26.5273C177.871 26.5273 176.826 26.5278 175.778 26.5278C173.682 26.5283 171.574 26.5283 169.453 26.5288C165.212 26.5293 160.922 26.5298 156.587 26.5303C147.916 26.5313 139.063 26.5323 130.051 26.5334C112.025 26.5339 93.3622 26.5349 74.2472 26.5354C73.0778 26.5313 71.9206 26.9926 71.0808 27.7998C70.234 28.5989 69.7159 29.7297 69.6666 30.8885C69.6432 33.2527 69.66 35.6291 69.6549 37.9872C69.6549 42.7081 69.6544 47.3979 69.6544 52.0533C69.6539 61.3644 69.6534 70.5389 69.6529 79.5538C69.6508 97.5838 69.6483 114.975 69.6463 131.542C69.6427 148.108 69.6391 163.851 69.6356 178.584C69.6351 180.426 69.6346 182.252 69.6341 184.062C69.6381 184.965 69.6234 185.872 69.6432 186.76C69.6727 187.64 69.9749 188.5 70.4758 189.211C70.9777 189.925 71.6838 190.483 72.4804 190.816C72.8812 190.978 73.3018 191.083 73.728 191.135C74.1532 191.173 74.5921 191.164 75.0285 191.165C76.772 191.165 78.4992 191.166 80.2086 191.166C87.0473 191.169 93.6101 191.171 99.8743 191.173C124.93 191.188 145.206 191.201 159.22 191.209C166.225 191.218 171.664 191.225 175.354 191.23C177.197 191.235 178.604 191.239 179.551 191.241C180.495 191.244 180.98 191.252 180.98 191.252C180.98 191.252 180.495 191.259 179.55 191.264C178.603 191.266 177.197 191.27 175.354 191.275C171.664 191.279 166.224 191.286 159.219 191.296C145.206 191.305 124.93 191.316 99.8738 191.332C93.6096 191.334 87.0468 191.336 80.2081 191.339C78.4987 191.339 76.7715 191.34 75.028 191.34C74.5926 191.34 74.1563 191.349 73.7082 191.31C73.2652 191.256 72.8279 191.148 72.4118 190.98C71.5838 190.634 70.8502 190.056 70.3285 189.314C69.8073 188.575 69.4928 187.681 69.4613 186.767C69.4405 185.863 69.4552 184.967 69.4502 184.061C69.4497 182.251 69.4492 180.425 69.4486 178.583C69.4456 163.85 69.442 148.107 69.4385 131.541C69.4364 114.974 69.4344 97.5823 69.4319 79.5528C69.4314 70.5379 69.4309 61.3634 69.4303 52.0522C69.4303 47.3969 69.4298 42.7071 69.4298 37.9862C69.4349 35.6235 69.4182 33.2628 69.4415 30.8768C69.4933 29.6611 70.0374 28.4739 70.9254 27.6362C71.8058 26.7899 73.0219 26.3053 74.2467 26.3098C93.3617 26.3104 112.025 26.3114 130.05 26.3124C139.063 26.3134 147.916 26.3144 156.586 26.3149C160.922 26.3154 165.211 26.3159 169.452 26.317C171.573 26.3175 173.682 26.3175 175.778 26.318C176.826 26.318 177.871 26.3185 178.912 26.3185C179.433 26.3185 179.953 26.3185 180.472 26.3185C180.986 26.3124 181.526 26.322 182.041 26.4404C183.078 26.668 184.012 27.2664 184.685 28.0721C185.345 28.8885 185.746 29.9172 185.766 30.9636C185.768 33.0088 185.77 35.0414 185.773 37.0601C185.771 41.0952 185.771 45.0764 185.77 49.0002C185.768 56.8478 185.766 64.4657 185.764 71.8317C185.759 86.5637 185.755 100.287 185.751 112.815C185.735 137.871 185.723 158.149 185.715 172.164C185.711 175.667 185.708 178.779 185.705 181.476C185.703 182.825 185.701 184.07 185.7 185.208C185.693 185.778 185.712 186.319 185.683 186.836C185.65 187.352 185.548 187.84 185.37 188.268C185.031 189.134 184.484 189.779 183.941 190.219C183.39 190.658 182.842 190.903 182.392 191.046C181.936 191.176 181.579 191.226 181.34 191.239C181.1 191.25 180.98 191.252 180.98 191.252Z" fill="#263238"/>
<g opacity="0.3">
<path d="M79.6731 187.527H177.138L176.069 167.255V156.465L79.6731 171.527V187.527Z" fill="black"/>
</g>
<g opacity="0.3">
<path d="M156.91 26.759L159.124 33.328V36.5462H156.627L156.91 26.759Z" fill="black"/>
</g>
<path d="M74.7207 33.0266V184.439H153.709H180.491V33.0266H74.7207Z" fill="white"/>
<path d="M180.491 157.364C180.491 157.364 180.486 157.168 180.483 156.782C180.481 156.394 180.479 155.819 180.475 155.061C180.472 153.541 180.466 151.291 180.46 148.359C180.453 142.491 180.444 133.898 180.432 122.99C180.422 101.168 180.408 70.0846 180.391 33.0265L180.491 33.1261C149.24 33.1297 113.076 33.1342 74.7197 33.1388L74.832 33.0265C74.832 33.0692 74.832 33.1149 74.832 33.1612C74.8213 91.3668 74.8116 144.521 74.804 184.438L74.7197 184.354C99.0519 184.37 118.798 184.383 132.464 184.391C139.294 184.401 144.605 184.408 148.21 184.414C150.01 184.419 151.383 184.423 152.31 184.426C153.234 184.43 153.708 184.439 153.708 184.439C153.708 184.439 153.234 184.447 152.31 184.452C151.383 184.454 150.009 184.458 148.21 184.464C144.605 184.469 139.294 184.477 132.464 184.487C118.798 184.495 99.0519 184.509 74.7197 184.524H74.6354V184.439C74.6277 144.522 74.6181 91.3678 74.6074 33.1622C74.6074 33.1159 74.6074 33.0697 74.6074 33.0276V32.9153H74.7197C113.076 32.9199 149.24 32.9244 180.491 32.928H180.59V33.0276C180.574 70.0856 180.56 101.169 180.55 122.991C180.538 133.9 180.528 142.492 180.522 148.36C180.515 151.292 180.51 153.542 180.507 155.062C180.503 155.82 180.501 156.395 180.499 156.783C180.497 157.168 180.491 157.364 180.491 157.364Z" fill="#263238"/>
<path d="M156.91 37.8393H103.392V25.5305C103.392 23.7561 104.831 22.3169 106.606 22.3169H153.696C155.47 22.3169 156.91 23.7556 156.91 25.5305V37.8393Z" fill="#263238"/>
<path d="M136.961 16.4795H123.34L124.932 28.1549H135.192L136.961 16.4795Z" fill="#263238"/>
<path d="M153.471 22.3169C153.471 22.3788 143.029 22.4291 130.152 22.4291C117.269 22.4291 106.83 22.3788 106.83 22.3169C106.83 22.2549 117.269 22.2046 130.152 22.2046C143.029 22.2046 153.471 22.2549 153.471 22.3169Z" fill="#455A64"/>
<path d="M104.59 35.3348C104.528 35.3348 104.478 33.1392 104.478 30.4311C104.478 27.7219 104.528 25.5269 104.59 25.5269C104.652 25.5269 104.702 27.7219 104.702 30.4311C104.702 33.1392 104.652 35.3348 104.59 35.3348Z" fill="#455A64"/>
<path d="M155.177 34.1738C155.115 34.1738 155.064 32.1804 155.064 29.7216C155.064 27.2624 155.115 25.2695 155.177 25.2695C155.239 25.2695 155.289 27.2624 155.289 29.7216C155.289 32.1804 155.239 34.1738 155.177 34.1738Z" fill="#455A64"/>
<path d="M152.596 36.2387C152.596 36.3007 141.878 36.351 128.659 36.351C115.435 36.351 104.719 36.3007 104.719 36.2387C104.719 36.1768 115.435 36.1265 128.659 36.1265C141.877 36.1265 152.596 36.1768 152.596 36.2387Z" fill="#455A64"/>
<path d="M167.1 62.0852H108.687V65.6758H167.1V62.0852Z" fill="#E0E0E0"/>
<path d="M135.187 69.4197H108.687V72.9853H135.187V69.4197Z" fill="#E0E0E0"/>
<path d="M100.781 74.0567H91.1997C90.1161 74.0567 89.2373 73.1784 89.2373 72.0943V62.5134C89.2373 61.4299 90.1156 60.551 91.1997 60.551H100.781C101.864 60.551 102.743 61.4294 102.743 62.5134V72.0943C102.743 73.1784 101.865 74.0567 100.781 74.0567Z" fill="#FFDFBA"/>
<path d="M95.7966 70.5215L92.0135 67.598L93.0336 66.2777L95.5706 68.238L99.1784 64.0867L100.438 65.1814L95.7966 70.5215Z" fill="white"/>
<path d="M167.1 84.3164H108.687V87.9069H167.1V84.3164Z" fill="#E0E0E0"/>
<path d="M135.187 91.6509H108.687V95.2165H135.187V91.6509Z" fill="#E0E0E0"/>
<path d="M100.781 96.2879H91.1997C90.1161 96.2879 89.2373 95.4096 89.2373 94.3255V84.7446C89.2373 83.6611 90.1156 82.7822 91.1997 82.7822H100.781C101.864 82.7822 102.743 83.6606 102.743 84.7446V94.3255C102.743 95.4096 101.865 96.2879 100.781 96.2879Z" fill="#FFDFBA"/>
<path d="M95.7966 92.7527L92.0135 89.8292L93.0336 88.5089L95.5706 90.4692L99.1784 86.3179L100.438 87.4126L95.7966 92.7527Z" fill="white"/>
<path d="M167.1 108.135H108.687V111.726H167.1V108.135Z" fill="#E0E0E0"/>
<path d="M135.187 115.47H108.687V119.036H135.187V115.47Z" fill="#E0E0E0"/>
<path d="M167.1 130.156H108.687V133.747H167.1V130.156Z" fill="#E0E0E0"/>
<path d="M135.187 137.491H108.687V141.056H135.187V137.491Z" fill="#E0E0E0"/>
<path d="M100.781 120.108H91.1997C90.1161 120.108 89.2373 119.229 89.2373 118.145V108.564C89.2373 107.481 90.1156 106.602 91.1997 106.602H100.781C101.864 106.602 102.743 107.48 102.743 108.564V118.145C102.743 119.229 101.865 120.108 100.781 120.108Z" fill="#FFDFBA"/>
<path d="M95.7966 116.572L92.0135 113.649L93.0336 112.328L95.5706 114.289L99.1784 110.137L100.438 111.232L95.7966 116.572Z" fill="white"/>
<path d="M100.974 142.984H91.0066C89.9048 142.984 89.0087 142.088 89.0087 140.985V131.019C89.0087 129.917 89.9053 129.021 91.0066 129.021H100.974C102.075 129.021 102.972 129.917 102.972 131.019V140.985C102.972 142.088 102.076 142.984 100.974 142.984ZM91.0071 129.478C90.1578 129.478 89.4669 130.169 89.4669 131.019V140.985C89.4669 141.835 90.1578 142.526 91.0071 142.526H100.974C101.823 142.526 102.514 141.835 102.514 140.985V131.019C102.514 130.17 101.823 129.478 100.974 129.478H91.0071Z" fill="#FFDFBA"/>
<path d="M167.1 155.345H108.687V158.936H167.1V155.345Z" fill="#E0E0E0"/>
<path d="M135.187 162.68H108.687V166.246H135.187V162.68Z" fill="#E0E0E0"/>
<path d="M100.974 168.173H91.0066C89.9048 168.173 89.0087 167.277 89.0087 166.174V156.208C89.0087 155.106 89.9053 154.21 91.0066 154.21H100.974C102.075 154.21 102.972 155.106 102.972 156.208V166.174C102.972 167.277 102.076 168.173 100.974 168.173ZM91.0071 154.668C90.1578 154.668 89.4669 155.359 89.4669 156.208V166.174C89.4669 167.024 90.1578 167.715 91.0071 167.715H100.974C101.823 167.715 102.514 167.024 102.514 166.174V156.208C102.514 155.359 101.823 154.668 100.974 154.668H91.0071Z" fill="#FFDFBA"/>
<path d="M159.895 48.1816H101.656V53.1677H159.895V48.1816Z" fill="#FFDFBA"/>
<path d="M111.706 233.048C111.706 233.048 109.953 220.995 110.099 213.982C110.246 206.97 110.091 199.081 110.091 199.081H110.898C110.898 199.081 110.351 213 110.947 221.395C111.542 229.784 113.109 233.048 113.109 233.048H111.706Z" fill="#263238"/>
<path d="M116.928 185.519C116.766 185.107 116.566 184.678 116.192 184.442C115.68 184.117 115.008 184.252 114.436 184.454C111.995 185.317 109.831 189.869 108.844 192.262L112.085 203.181C117.934 197.755 118.947 190.636 116.928 185.519Z" fill="#455A64"/>
<path d="M116.003 184.884C116.007 184.886 115.991 184.934 115.956 185.026C115.914 185.13 115.861 185.262 115.797 185.424C115.655 185.767 115.456 186.267 115.217 186.887C114.74 188.127 114.132 189.86 113.589 191.813C113.048 193.768 112.675 195.566 112.445 196.875C112.329 197.529 112.243 198.06 112.187 198.428C112.159 198.6 112.136 198.739 112.118 198.851C112.101 198.947 112.09 198.997 112.085 198.997C112.081 198.996 112.083 198.945 112.092 198.847C112.103 198.735 112.118 198.594 112.136 198.421C112.176 198.051 112.248 197.517 112.352 196.859C112.558 195.544 112.918 193.737 113.46 191.777C114.005 189.819 114.629 188.085 115.13 186.852C115.379 186.235 115.592 185.74 115.749 185.403C115.823 185.245 115.883 185.117 115.931 185.015C115.974 184.927 115.999 184.882 116.003 184.884Z" fill="#263238"/>
<path d="M110.645 205.799C107.608 204.12 105.817 200.963 105.65 197.497C105.533 195.074 106.278 192.696 107.121 190.421C107.195 190.224 107.282 190.011 107.464 189.908C107.719 189.763 108.038 189.892 108.292 190.037C110.5 191.293 111.837 193.69 112.548 196.128C113.022 197.751 113.267 199.461 113.048 201.137C112.829 202.813 111.871 204.637 110.645 205.799Z" fill="#455A64"/>
<path d="M110.645 205.799C110.64 205.799 110.636 205.749 110.633 205.653C110.631 205.542 110.629 205.403 110.625 205.234C110.624 204.87 110.609 204.344 110.579 203.694C110.521 202.396 110.351 200.606 110.016 198.65C109.679 196.694 109.27 194.943 108.969 193.677C108.82 193.058 108.698 192.55 108.609 192.178C108.571 192.012 108.54 191.877 108.515 191.769C108.496 191.675 108.487 191.625 108.492 191.624C108.496 191.623 108.513 191.67 108.541 191.762C108.572 191.869 108.611 192.002 108.659 192.165C108.759 192.515 108.897 193.023 109.06 193.654C109.385 194.915 109.809 196.666 110.147 198.628C110.483 200.588 110.639 202.387 110.673 203.69C110.691 204.342 110.692 204.869 110.676 205.234C110.669 205.404 110.664 205.542 110.659 205.653C110.655 205.749 110.65 205.8 110.645 205.799Z" fill="#263238"/>
<g opacity="0.3">
<path d="M110.645 205.799C107.608 204.12 105.817 200.963 105.65 197.497C105.533 195.074 106.278 192.696 107.121 190.421C107.195 190.224 107.282 190.011 107.464 189.908C107.719 189.763 108.038 189.892 108.292 190.037C110.5 191.293 111.837 193.69 112.548 196.128C113.022 197.751 113.267 199.461 113.048 201.137C112.829 202.813 111.871 204.637 110.645 205.799Z" fill="black"/>
</g>
<path d="M114.072 224.241C117.061 224.898 119.523 227.006 122.407 228.031C124.315 228.71 126.473 228.95 127.997 230.284C127.631 229.361 126.764 228.746 125.923 228.22C123.551 226.739 121.011 225.527 118.368 224.614C117.011 224.146 115.539 223.754 114.156 224.14" fill="#455A64"/>
<path d="M109.749 226.904C106.005 226.844 102.063 223.657 98.3372 223.466C102.237 222.207 107.821 223.235 109.749 226.904Z" fill="#455A64"/>
<path d="M111.212 217.923C113.113 217.238 115.201 217.205 117.198 217.516C119.195 217.826 121.123 218.466 123.041 219.104C122.849 217.805 121.797 216.828 120.809 215.963C120.065 215.313 119.316 214.658 118.462 214.16C117.609 213.662 116.635 213.324 115.648 213.366C114.458 213.416 113.324 214.031 112.542 214.931C111.762 215.832 111.341 216.738 111.212 217.923Z" fill="#455A64"/>
<path d="M103.528 213.789C101.172 211.777 97.6021 211.974 94.5038 212.044C99.2663 214.321 104.398 217.442 108.5 220.766C108.626 218.576 106.506 216.331 103.528 213.789Z" fill="#455A64"/>
<g opacity="0.3">
<path d="M103.528 213.789C101.172 211.777 97.6021 211.974 94.5038 212.044C99.2663 214.321 104.398 217.442 108.5 220.766C108.626 218.576 106.506 216.331 103.528 213.789Z" fill="black"/>
</g>
<path d="M112.272 211.012C113.457 210.222 114.656 209.469 115.897 208.905C117.137 208.342 118.294 207.444 119.492 206.795C121.046 205.954 122.392 204.784 123.817 203.742C125.243 202.699 126.81 201.758 128.555 201.481C127.132 201.188 125.645 201.348 124.244 201.731C122.842 202.113 121.511 202.713 120.186 203.31C118.348 204.138 116.477 204.987 114.975 206.331C113.472 207.675 112.114 209.002 112.272 211.012Z" fill="#455A64"/>
<path d="M122.338 226.904C122.336 226.908 122.295 226.891 122.22 226.853C122.131 226.807 122.024 226.751 121.893 226.684C121.611 226.534 121.206 226.311 120.697 226.055C120.444 225.922 120.165 225.783 119.862 225.641C119.561 225.492 119.235 225.345 118.889 225.195C118.198 224.9 117.426 224.591 116.584 224.391C115.745 224.185 114.908 224.14 114.183 224.331C113.816 224.419 113.472 224.507 113.165 224.635C112.857 224.759 112.583 224.905 112.344 225.056C111.864 225.358 111.529 225.678 111.311 225.909C111.095 226.141 110.989 226.283 110.979 226.276C110.976 226.274 110.999 226.236 111.046 226.166C111.093 226.096 111.169 225.997 111.272 225.874C111.48 225.63 111.81 225.294 112.292 224.977C112.532 224.818 112.81 224.664 113.122 224.532C113.435 224.396 113.787 224.303 114.154 224.211C114.895 224.008 115.765 224.051 116.614 224.261C117.469 224.464 118.246 224.779 118.938 225.082C119.285 225.236 119.61 225.387 119.909 225.541C120.212 225.688 120.49 225.832 120.74 225.971C121.245 226.239 121.644 226.474 121.918 226.638C122.043 226.714 122.148 226.778 122.232 226.829C122.305 226.875 122.341 226.9 122.338 226.904Z" fill="#263238"/>
<path d="M106.957 225.049C106.961 225.04 107.043 225.065 107.192 225.118C107.34 225.168 107.55 225.258 107.802 225.383C108.306 225.632 108.968 226.055 109.59 226.651C110.211 227.249 110.661 227.895 110.93 228.388C111.065 228.635 111.163 228.84 111.219 228.987C111.277 229.133 111.305 229.215 111.297 229.219C111.275 229.228 111.135 228.911 110.848 228.436C110.561 227.96 110.108 227.336 109.497 226.748C108.886 226.162 108.244 225.734 107.757 225.467C107.271 225.198 106.948 225.071 106.957 225.049Z" fill="#263238"/>
<path d="M98.6735 213.601C98.675 213.597 98.7299 213.614 98.833 213.649C98.9488 213.69 99.0977 213.743 99.2826 213.809C99.4822 213.882 99.719 213.97 99.9912 214.07C100.268 214.172 100.567 214.324 100.907 214.473C102.254 215.085 104.048 216.115 105.781 217.578C106.635 218.322 107.408 219.078 108.054 219.817C108.697 220.557 109.242 221.253 109.667 221.86C110.094 222.466 110.419 222.97 110.641 223.319C110.746 223.484 110.831 223.617 110.897 223.721C110.955 223.813 110.984 223.862 110.98 223.865C110.976 223.868 110.94 223.824 110.875 223.736C110.809 223.649 110.714 223.519 110.597 223.348C110.362 223.008 110.026 222.512 109.59 221.916C109.157 221.317 108.607 220.63 107.962 219.898C107.314 219.168 106.543 218.42 105.694 217.681C103.972 216.226 102.199 215.19 100.867 214.559C100.531 214.404 100.235 214.247 99.9628 214.139C99.6946 214.031 99.4614 213.937 99.2643 213.857C99.084 213.782 98.9377 213.721 98.8244 213.674C98.7238 213.631 98.672 213.606 98.6735 213.601Z" fill="#263238"/>
<path d="M116.83 215.819C116.827 215.828 116.721 215.813 116.531 215.78C116.428 215.761 116.314 215.74 116.187 215.716C116.054 215.691 115.897 215.69 115.727 215.672C115.054 215.623 114.073 215.679 113.154 216.18C112.691 216.414 112.302 216.731 111.984 217.048C111.66 217.363 111.416 217.692 111.231 217.979C110.855 218.554 110.739 218.969 110.716 218.962C110.709 218.96 110.73 218.854 110.792 218.669C110.861 218.488 110.967 218.225 111.15 217.929C111.328 217.631 111.57 217.29 111.896 216.962C112.216 216.632 112.614 216.304 113.091 216.062C114.039 215.545 115.054 215.504 115.735 215.578C115.907 215.602 116.065 215.61 116.199 215.643C116.326 215.675 116.44 215.703 116.542 215.729C116.73 215.778 116.832 215.81 116.83 215.819Z" fill="#263238"/>
<path d="M120.593 204.146C120.595 204.15 120.546 204.18 120.451 204.233C120.343 204.292 120.205 204.367 120.033 204.46C119.67 204.656 119.147 204.944 118.512 205.319C117.88 205.698 117.136 206.164 116.344 206.73C115.554 207.297 114.705 207.957 113.922 208.759C113.536 209.162 113.18 209.583 112.931 210.041C112.686 210.512 112.452 210.967 112.237 211.404C111.804 212.277 111.451 213.082 111.196 213.772C110.942 214.463 110.784 215.038 110.69 215.439C110.594 215.84 110.56 216.066 110.546 216.064C110.542 216.063 110.547 216.006 110.561 215.898C110.575 215.79 110.598 215.631 110.639 215.428C110.718 215.022 110.863 214.439 111.107 213.74C111.352 213.041 111.697 212.229 112.125 211.35C112.339 210.91 112.571 210.453 112.815 209.981C113.072 209.502 113.434 209.075 113.825 208.666C114.618 207.855 115.474 207.195 116.272 206.629C117.072 206.066 117.824 205.607 118.464 205.237C119.107 204.872 119.638 204.595 120.009 204.414C120.185 204.33 120.327 204.262 120.439 204.209C120.538 204.164 120.591 204.141 120.593 204.146Z" fill="#263238"/>
<path d="M110.095 215.481C110.086 215.483 110.06 215.37 110.021 215.166C109.977 214.935 109.922 214.645 109.857 214.301C109.714 213.572 109.496 212.568 109.149 211.491C108.805 210.413 108.386 209.475 108.08 208.798C107.934 208.479 107.812 208.211 107.714 207.996C107.629 207.806 107.586 207.699 107.594 207.695C107.603 207.691 107.662 207.79 107.761 207.973C107.861 208.156 108 208.423 108.165 208.757C108.494 209.425 108.929 210.363 109.276 211.45C109.626 212.535 109.831 213.549 109.95 214.284C110.008 214.652 110.05 214.95 110.072 215.158C110.095 215.365 110.104 215.48 110.095 215.481Z" fill="#263238"/>
<path d="M109.823 206.964C109.73 205.55 109.269 204.175 108.606 202.922C106.789 199.487 103.373 196.939 99.5619 196.178C102.353 200.337 105.144 204.497 107.935 208.657L109.016 210.884C109.754 209.674 109.917 208.378 109.823 206.964Z" fill="#455A64"/>
<path d="M121.834 231.557H102.365V235.008H121.834V231.557Z" fill="#FFDFBA"/>
<path d="M103.819 234.323L105.477 245.03H118.402L120.38 234.323H103.819Z" fill="#FFDFBA"/>
<path d="M121.823 235.012C121.823 235.05 117.431 235.081 112.016 235.081C106.598 235.081 102.207 235.05 102.207 235.012C102.207 234.974 106.598 234.943 112.016 234.943C117.431 234.943 121.823 234.974 121.823 235.012Z" fill="#263238"/>
<path d="M193.838 111.55L192.805 109.1C193.419 107.187 193.472 105.065 192.817 102.975C191.272 98.0446 186.132 95.0453 181.077 96.1142C175.237 97.3496 171.709 103.334 173.512 109.072C175.042 113.943 180.079 116.935 185.09 115.957C187.577 115.472 189.653 114.127 191.095 112.305L191.093 112.31L193.838 111.55Z" fill="white"/>
<path d="M193.838 111.55C193.841 111.552 193.785 111.57 193.67 111.606C193.542 111.644 193.371 111.695 193.153 111.76C192.674 111.9 191.988 112.099 191.106 112.356C191.08 112.364 191.053 112.349 191.046 112.324C191.043 112.313 191.044 112.3 191.048 112.291L191.05 112.286L191.133 112.335C190.358 113.326 189.12 114.536 187.273 115.355C186.355 115.766 185.296 116.06 184.138 116.185C182.98 116.299 181.724 116.214 180.464 115.87C179.208 115.522 177.954 114.909 176.831 114.027C175.713 113.147 174.709 112.003 174.03 110.626C173.342 109.258 172.949 107.688 172.93 106.07C172.9 104.45 173.31 102.792 174.089 101.298C174.871 99.7828 176.017 98.4915 177.378 97.5807C178.729 96.6556 180.267 96.0978 181.797 95.8824C183.332 95.6584 184.857 95.8499 186.226 96.2827C187.597 96.7206 188.817 97.4237 189.816 98.2766C190.812 99.1341 191.59 100.134 192.145 101.164C192.271 101.427 192.396 101.686 192.518 101.941C192.634 102.199 192.714 102.466 192.812 102.72C192.998 103.233 193.115 103.746 193.205 104.241C193.552 106.235 193.238 107.933 192.851 109.115L192.849 109.082C193.17 109.873 193.419 110.491 193.595 110.925C193.673 111.122 193.735 111.278 193.782 111.395C193.822 111.499 193.841 111.552 193.838 111.55C193.834 111.548 193.807 111.492 193.758 111.385C193.706 111.268 193.636 111.111 193.548 110.913C193.363 110.49 193.099 109.889 192.762 109.118C192.757 109.108 192.757 109.095 192.76 109.085C193.123 107.907 193.413 106.228 193.054 104.267C192.961 103.78 192.842 103.275 192.655 102.772C192.557 102.523 192.476 102.261 192.36 102.009C192.239 101.759 192.115 101.505 191.989 101.247C191.437 100.24 190.668 99.2626 189.686 98.426C188.703 97.5944 187.504 96.9106 186.16 96.4869C184.819 96.0678 183.326 95.885 181.827 96.1075C180.331 96.3218 178.83 96.87 177.511 97.7742C176.184 98.6647 175.064 99.9266 174.3 101.407C173.54 102.866 173.138 104.485 173.166 106.067C173.182 107.648 173.564 109.184 174.233 110.522C174.893 111.87 175.872 112.99 176.964 113.856C178.06 114.723 179.286 115.33 180.517 115.677C181.75 116.02 182.982 116.111 184.12 116.006C185.257 115.89 186.302 115.609 187.209 115.213C189.035 114.423 190.271 113.243 191.056 112.275C191.072 112.253 191.103 112.25 191.124 112.266C191.142 112.28 191.147 112.304 191.139 112.324L191.137 112.329L191.079 112.263C191.955 112.033 192.637 111.854 193.112 111.729C193.338 111.672 193.515 111.627 193.647 111.593C193.77 111.563 193.834 111.548 193.838 111.55Z" fill="#263238"/>
<path d="M179.703 107.397C180.314 107.397 180.81 106.901 180.81 106.29C180.81 105.678 180.314 105.183 179.703 105.183C179.092 105.183 178.596 105.678 178.596 106.29C178.596 106.901 179.092 107.397 179.703 107.397Z" fill="#263238"/>
<path d="M184.54 106.29C184.54 106.901 184.044 107.397 183.433 107.397C182.821 107.397 182.325 106.901 182.325 106.29C182.325 105.678 182.821 105.183 183.433 105.183C184.044 105.183 184.54 105.679 184.54 106.29Z" fill="#263238"/>
<path d="M187.063 107.397C187.675 107.397 188.17 106.901 188.17 106.29C188.17 105.678 187.675 105.183 187.063 105.183C186.452 105.183 185.957 105.678 185.957 106.29C185.957 106.901 186.452 107.397 187.063 107.397Z" fill="#263238"/>
<path d="M59.3892 90.6708L59.8708 87.8448C59.0184 86.3518 58.5546 84.6124 58.616 82.7679C58.7928 77.4639 63.2358 73.3074 68.5398 73.4842C73.8438 73.661 78.0003 78.1039 77.8235 83.408C77.6467 88.712 73.2037 92.8685 67.8997 92.6917C65.6848 92.618 63.6721 91.7981 62.0892 90.4849L62.0923 90.4895L59.3892 90.6708Z" fill="white"/>
<path d="M59.3892 90.6708C59.3867 90.6733 59.4431 90.6718 59.5579 90.6667C59.6829 90.6606 59.853 90.652 60.072 90.6413C60.5424 90.6154 61.2211 90.5778 62.0959 90.5291C62.1177 90.528 62.135 90.5087 62.1334 90.4869C62.1329 90.4793 62.1299 90.4717 62.1258 90.4656L62.1228 90.461L62.0644 90.5153C62.9838 91.2875 64.3824 92.1638 66.2681 92.5631C66.7375 92.6601 67.2338 92.7267 67.7509 92.7531C68.0095 92.7704 68.2736 92.7516 68.5419 92.7526C68.676 92.748 68.8116 92.7546 68.9478 92.7409C69.0834 92.7251 69.22 92.7094 69.3577 92.6937C70.4586 92.5697 71.6153 92.2446 72.7186 91.667C73.821 91.0919 74.868 90.2659 75.7296 89.2113C76.5916 88.1592 77.2647 86.877 77.628 85.4597C77.9957 84.0444 78.0176 82.4961 77.6884 80.9888C77.5421 80.2289 77.249 79.4984 76.9213 78.7816C76.55 78.0866 76.1375 77.3968 75.5995 76.7963C75.094 76.1776 74.487 75.6619 73.8637 75.191C73.215 74.7552 72.5469 74.3513 71.8271 74.0856C70.4062 73.5177 68.8868 73.2901 67.4415 73.4196C65.9953 73.54 64.6277 73.9845 63.4542 74.6525C62.2777 75.3195 61.2937 76.206 60.5429 77.1875C59.0306 79.1631 58.4865 81.4582 58.5515 83.3597C58.612 85.2819 59.2267 86.8186 59.8358 87.8661L59.8307 87.8387C59.6849 88.7566 59.5726 89.4668 59.4944 89.9581C59.4593 90.1877 59.4324 90.3655 59.4126 90.4955C59.3943 90.6139 59.3867 90.6733 59.3892 90.6708C59.3892 90.6708 59.405 90.6042 59.4289 90.4808C59.4537 90.3492 59.4878 90.1689 59.5315 89.9362C59.6194 89.4531 59.7469 88.7546 59.9115 87.8519C59.9135 87.8422 59.9109 87.8321 59.9064 87.8245C59.3171 86.777 58.7253 85.2525 58.6801 83.3556C58.6298 81.4785 59.1794 79.2235 60.6735 77.2886C61.4156 76.3269 62.3854 75.4603 63.5416 74.809C64.6958 74.1567 66.0369 73.7239 67.4553 73.6091C68.8726 73.4841 70.3615 73.7102 71.7524 74.2675C72.4575 74.5276 73.1113 74.9248 73.7468 75.3515C74.3569 75.8133 74.9523 76.3183 75.4471 76.9248C75.9744 77.5131 76.3783 78.1892 76.7425 78.8694C77.0631 79.5715 77.3516 80.2868 77.4954 81.031C77.819 82.5067 77.8002 84.0251 77.4425 85.413C77.0895 86.8029 76.4321 88.0617 75.5894 89.097C74.7471 90.1349 73.7219 90.9502 72.6404 91.5197C71.5584 92.0922 70.423 92.4178 69.3394 92.5458C69.2038 92.5626 69.0692 92.5788 68.9356 92.5951C68.802 92.6093 68.6679 92.6037 68.5363 92.6088C68.2721 92.6093 68.0115 92.6301 67.7565 92.6144C67.246 92.5915 66.7562 92.5296 66.2924 92.4376C64.4296 92.0581 63.0377 91.2062 62.1147 90.4539C62.0974 90.4397 62.0725 90.4417 62.0578 90.459C62.0456 90.4732 62.0456 90.494 62.0557 90.5082L62.0588 90.5123L62.0887 90.4488C61.2267 90.5174 60.5581 90.5702 60.0943 90.6073C59.8713 90.6261 59.6981 90.6408 59.5711 90.6515C59.4543 90.6622 59.3892 90.6708 59.3892 90.6708Z" fill="#263238"/>
<path d="M64.0669 83.7482L65.1276 82.6875L67.1733 84.5062L71.1885 80.6423L72.1736 81.703L67.0219 86.5514L64.0669 83.7482Z" fill="#FFDFBA"/>
<path d="M234.4 194.522C234.413 194.403 234.424 194.284 234.429 194.165C234.531 191.879 233.602 189.689 232.709 187.581C230.313 181.932 227.995 175.938 228.668 169.841C229.559 161.778 235.487 155.11 237.603 147.312C237.852 146.394 238.695 145.763 239.649 145.763C241.08 145.763 242.119 147.15 241.68 148.508C239.323 155.801 233.945 162.193 233.101 169.841C232.427 175.938 234.745 181.932 237.141 187.581C238.035 189.688 238.963 191.879 238.861 194.165C238.76 196.451 237.289 198.854 235.024 199.22H234.804H230.592H201.333C200.159 199.22 199.208 198.271 199.208 197.101V196.642C199.208 195.471 200.159 194.522 201.333 194.522H234.4Z" fill="#455A64"/>
<path d="M241.175 245.03H192.285C191.602 245.03 190.967 244.694 190.542 244.109C190.055 243.437 189.921 242.554 190.185 241.746L204.102 199.101L204.828 199.338L190.911 241.984C190.723 242.56 190.816 243.187 191.16 243.66C191.439 244.045 191.849 244.266 192.285 244.266H241.175C241.604 244.266 241.997 244.061 242.279 243.688C242.621 243.237 242.731 242.628 242.572 242.059L230.612 199.322L231.347 199.117L243.307 241.854C243.53 242.651 243.373 243.51 242.887 244.15C242.463 244.709 241.839 245.03 241.175 245.03Z" fill="#E0E0E0"/>
<path d="M172.605 167.623C172.605 167.623 174.385 163.296 176.144 162.381C177.903 161.466 180.142 160.881 180.142 160.881H187.973L188.05 165.95C188.05 165.95 186.92 167.084 185.37 166.869C183.82 166.655 179.95 165.698 179.95 165.698L178.04 165.803L176.28 168.061C176.28 168.061 174.851 168.495 175.354 167.143C175.857 165.79 176.081 165.195 176.081 165.195C176.081 165.195 174.391 167.825 173.742 167.946C173.093 168.067 172.605 167.623 172.605 167.623Z" fill="#6F4439"/>
<path d="M204.967 151.306L198.736 160.269L187.973 160.881L187.826 165.798L195.936 167.395C200.148 168.224 204.499 166.932 207.576 163.939L208.763 153.099L204.967 151.306Z" fill="#AE7461"/>
<path d="M200.135 225.64L207.377 232.722C207.377 232.722 202.148 242.818 203.351 244.263L218.471 230.037L207.667 218.516L200.135 225.64Z" fill="#263238"/>
<path d="M211.467 227.706C211.831 227.506 212.327 227.626 212.524 227.969C212.72 228.312 212.574 228.821 212.213 229.028C211.852 229.234 211.251 229.108 211.095 228.743C210.94 228.379 211.144 227.788 211.54 227.671" fill="#E0E0E0"/>
<path d="M218.471 230.037L217.334 228.92L203.263 242.978C203.263 242.978 202.852 243.888 203.351 244.264L218.471 230.037Z" fill="#455A64"/>
<path d="M207.064 232.881C207.132 232.948 207.532 232.633 208.107 232.515C208.68 232.382 209.153 232.508 209.195 232.416C209.25 232.339 208.745 232.026 208.05 232.181C207.355 232.329 206.987 232.832 207.064 232.881Z" fill="white"/>
<path d="M206.064 234.991C206.111 235.075 206.543 234.892 207.073 234.951C207.605 234.994 207.971 235.253 208.041 235.18C208.121 235.126 207.786 234.67 207.124 234.61C206.465 234.544 206.003 234.923 206.064 234.991Z" fill="white"/>
<path d="M206.861 237.63C206.942 237.581 206.715 237.137 206.164 236.934C205.614 236.726 205.123 236.904 205.147 236.991C205.16 237.088 205.578 237.081 206.028 237.255C206.482 237.418 206.781 237.692 206.861 237.63Z" fill="white"/>
<path d="M205.604 231.075C205.695 231.109 205.943 230.694 206.385 230.328C206.821 229.954 207.271 229.78 207.252 229.684C207.247 229.594 206.686 229.634 206.17 230.072C205.652 230.507 205.515 231.054 205.604 231.075Z" fill="white"/>
<path d="M200.986 175.157C199.662 175.157 167.4 184.555 163.909 187.732C160.418 190.909 157.806 230.221 157.806 230.221L171.334 234.859C171.334 234.859 174.185 215.66 175.913 209.459C177.286 204.53 176.97 199.927 176.97 199.927L203.755 188.262L200.986 175.157Z" fill="#263238"/>
<path d="M201.8 177.236C201.198 177.501 177.757 187.509 175.554 194.214C173.759 199.678 175.846 204.489 178.354 208.249C181.185 212.494 201.946 231.439 201.946 231.439L213.664 223.06L193.575 202.314C193.575 202.314 204.115 195.807 204.476 195.807C204.837 195.807 215.794 195.082 219.268 194.689C222.511 194.322 224.286 189.671 224.286 189.671L227.179 176.337L205.439 171.32L201.8 177.236Z" fill="#263238"/>
<path d="M201.8 177.236C201.8 177.236 201.875 177.103 202.029 176.847C202.185 176.588 202.415 176.209 202.717 175.71C203.329 174.707 204.233 173.228 205.409 171.3L205.423 171.278L205.449 171.284C210.297 172.395 217.766 174.107 227.195 176.268L227.263 176.283L227.248 176.351C226.382 180.359 225.409 184.863 224.366 189.688L224.365 189.695L224.363 189.7C223.867 190.893 223.198 192.041 222.299 193.043C221.848 193.54 221.317 193.982 220.709 194.307C220.559 194.392 220.406 194.472 220.239 194.524C220.074 194.577 219.917 194.661 219.743 194.683C219.571 194.715 219.399 194.756 219.227 194.78L218.714 194.834C215.97 195.106 213.131 195.308 210.212 195.521C208.752 195.621 207.271 195.722 205.772 195.824C205.397 195.847 205.02 195.87 204.642 195.892L204.497 195.899C204.466 195.897 204.47 195.909 204.455 195.91C204.447 195.911 204.418 195.926 204.4 195.934C204.319 195.969 204.235 196.016 204.152 196.058L203.656 196.332C202.996 196.708 202.338 197.097 201.678 197.491C199.038 199.069 196.355 200.714 193.626 202.395L193.645 202.246C198.648 207.411 203.918 212.854 209.333 218.444C210.812 219.972 212.281 221.489 213.736 222.991L213.816 223.074L213.722 223.141C209.726 225.997 205.812 228.795 202.003 231.517L201.939 231.563L201.881 231.51C197.686 227.664 193.656 223.902 189.832 220.244C187.919 218.416 186.06 216.613 184.271 214.824C182.483 213.035 180.747 211.278 179.182 209.447C178.978 209.227 178.809 208.975 178.623 208.74C178.441 208.501 178.255 208.266 178.102 208.012C177.778 207.515 177.469 207.013 177.184 206.502C176.609 205.482 176.115 204.436 175.728 203.368C175.342 202.299 175.062 201.21 174.92 200.118C174.782 199.026 174.779 197.937 174.898 196.883C175.012 195.826 175.257 194.807 175.628 193.85C176.04 192.9 176.692 192.117 177.358 191.403C178.724 189.995 180.221 188.859 181.681 187.842C184.614 185.819 187.415 184.251 189.883 182.928C192.356 181.609 194.515 180.553 196.283 179.714C198.051 178.875 199.431 178.257 200.367 177.845C200.835 177.643 201.191 177.489 201.434 177.384C201.675 177.283 201.8 177.236 201.8 177.236C201.8 177.236 201.679 177.295 201.441 177.402C201.2 177.51 200.846 177.67 200.382 177.879C199.45 178.301 198.075 178.929 196.312 179.777C194.549 180.626 192.396 181.689 189.93 183.016C187.468 184.347 184.674 185.921 181.753 187.947C180.299 188.964 178.809 190.101 177.458 191.5C176.8 192.208 176.158 192.986 175.761 193.907C175.401 194.841 175.157 195.859 175.047 196.901C174.931 197.944 174.935 199.02 175.075 200.1C175.216 201.179 175.496 202.257 175.879 203.315C176.264 204.373 176.756 205.41 177.328 206.422C177.612 206.93 177.919 207.429 178.243 207.922C178.396 208.176 178.58 208.407 178.759 208.641C178.943 208.873 179.108 209.12 179.313 209.34C180.871 211.159 182.609 212.915 184.397 214.7C186.186 216.486 188.047 218.286 189.96 220.112C193.786 223.765 197.817 227.525 202.013 231.368L201.891 231.361C205.698 228.637 209.612 225.838 213.607 222.981L213.594 223.13C212.139 221.628 210.671 220.112 209.191 218.584C203.778 212.992 198.508 207.549 193.506 202.382L193.422 202.295L193.525 202.232C196.255 200.551 198.939 198.908 201.582 197.331C202.243 196.937 202.901 196.547 203.564 196.171L204.065 195.895C204.151 195.851 204.232 195.806 204.325 195.765C204.351 195.754 204.363 195.745 204.4 195.733C204.431 195.724 204.479 195.712 204.496 195.714L204.634 195.708C205.011 195.685 205.386 195.662 205.76 195.64C207.259 195.539 208.739 195.439 210.199 195.341C213.117 195.131 215.958 194.93 218.697 194.663C219.389 194.619 220.042 194.48 220.63 194.158C221.215 193.845 221.733 193.417 222.175 192.93C223.057 191.952 223.724 190.81 224.211 189.643L224.207 189.654C225.258 184.831 226.238 180.329 227.112 176.322L227.164 176.405C217.742 174.216 210.278 172.481 205.433 171.355L205.471 171.339C204.28 173.261 203.364 174.737 202.745 175.736C202.436 176.23 202.202 176.606 202.042 176.861C201.883 177.112 201.8 177.236 201.8 177.236Z" fill="#455A64"/>
<path d="M203.932 113.117C202.877 113.332 201.715 112.644 201.395 111.616C201.075 110.588 201.642 109.363 202.633 108.941C201.911 108.319 201.647 107.219 202.01 106.338C202.372 105.456 203.333 104.86 204.284 104.926C204.241 103.986 204.722 103.039 205.507 102.52C206.291 102 207.351 101.927 208.2 102.333C209.157 101.355 210.824 101.176 211.968 101.928C212.863 101.68 213.899 102.078 214.397 102.862C214.896 103.646 214.819 104.752 214.215 105.458" fill="#263238"/>
<path d="M212.628 104.048L212.146 104.091C207.305 104.519 203.603 108.592 203.641 113.453C203.676 117.974 203.773 122.967 204.015 125.373C204.517 130.353 209.573 130.687 209.573 130.687L209.681 136.715L221.749 135.27L220.898 113.45C220.887 108.234 217.842 103.893 212.628 104.048Z" fill="#AE7461"/>
<path d="M209.566 130.687C209.566 130.687 212.732 130.594 215.895 128.194C215.895 128.194 214.611 132.008 209.596 131.999L209.566 130.687Z" fill="#6F4439"/>
<path d="M205.44 118.076C205.46 118.453 205.796 118.748 206.191 118.734C206.584 118.72 206.888 118.404 206.868 118.027C206.848 117.65 206.512 117.356 206.119 117.369C205.724 117.383 205.42 117.699 205.44 118.076Z" fill="#263238"/>
<path d="M204.929 115.797C205.025 115.882 205.529 115.435 206.296 115.369C207.06 115.293 207.658 115.637 207.732 115.536C207.77 115.491 207.665 115.331 207.404 115.174C207.148 115.018 206.721 114.882 206.244 114.926C205.767 114.971 205.381 115.182 205.166 115.382C204.946 115.585 204.882 115.76 204.929 115.797Z" fill="#263238"/>
<path d="M212.329 117.679C212.349 118.056 212.686 118.35 213.08 118.337C213.473 118.323 213.777 118.007 213.757 117.63C213.737 117.253 213.401 116.958 213.008 116.972C212.613 116.985 212.31 117.302 212.329 117.679Z" fill="#263238"/>
<path d="M212.473 115.274C212.569 115.359 213.074 114.913 213.84 114.847C214.604 114.77 215.201 115.115 215.276 115.014C215.313 114.969 215.21 114.809 214.948 114.653C214.692 114.497 214.265 114.36 213.788 114.404C213.311 114.449 212.925 114.66 212.71 114.86C212.491 115.062 212.425 115.237 212.473 115.274Z" fill="#263238"/>
<path d="M210.194 121.202C210.194 121.158 209.711 121.118 208.93 121.088C208.732 121.084 208.544 121.062 208.499 120.932C208.441 120.794 208.504 120.576 208.578 120.34C208.721 119.851 208.869 119.337 209.025 118.8C209.641 116.607 210.068 114.812 209.98 114.788C209.892 114.764 209.321 116.521 208.704 118.713C208.557 119.253 208.416 119.768 208.283 120.261C208.228 120.49 208.123 120.753 208.249 121.037C208.315 121.179 208.468 121.272 208.596 121.295C208.725 121.322 208.835 121.315 208.932 121.312C209.713 121.285 210.195 121.246 210.194 121.202Z" fill="#263238"/>
<path d="M211.548 112.385C211.666 112.57 212.304 112.302 213.11 112.204C213.914 112.088 214.609 112.18 214.665 111.972C214.688 111.873 214.529 111.711 214.224 111.581C213.921 111.451 213.471 111.37 212.988 111.433C212.506 111.498 212.099 111.692 211.849 111.896C211.597 112.1 211.494 112.297 211.548 112.385Z" fill="#263238"/>
<path d="M204.612 112.641C204.789 112.8 205.405 112.564 206.165 112.489C206.923 112.39 207.58 112.481 207.712 112.286C207.77 112.192 207.653 112.027 207.357 111.887C207.065 111.747 206.589 111.654 206.068 111.714C205.547 111.774 205.108 111.971 204.859 112.173C204.606 112.376 204.533 112.563 204.612 112.641Z" fill="#263238"/>
<path d="M203.918 111.124C203.918 111.124 204.957 107.885 206.398 107.023C208.143 105.98 209.105 107.911 210.799 107.272C212.493 106.633 214.158 105.633 216.052 106.818C218.125 108.116 217.306 109.228 217.621 111.429C218.901 120.355 220.763 122.747 220.856 118.481C220.866 118.014 222.117 117.532 222.135 115.559C222.158 113.002 221.983 109.915 221.258 108.165C220.647 106.69 219.689 105.719 218.036 104.7C215.427 103.093 212.061 103.351 209.798 103.783C207.535 104.215 203.365 107.232 203.918 111.124Z" fill="#263238"/>
<path d="M220.526 118.374C220.489 117.602 221.099 116.936 221.872 116.941C222.809 116.947 223.891 117.383 223.999 119.311C224.192 122.729 220.72 122.217 220.709 122.119C220.701 122.053 220.594 119.805 220.526 118.374Z" fill="#AE7461"/>
<path d="M221.38 120.791C221.395 120.779 221.442 120.83 221.545 120.87C221.646 120.909 221.817 120.931 221.991 120.854C222.345 120.701 222.616 120.111 222.599 119.493C222.59 119.182 222.508 118.889 222.384 118.65C222.265 118.406 222.094 118.24 221.91 118.218C221.727 118.186 221.604 118.303 221.568 118.401C221.527 118.499 221.553 118.566 221.535 118.573C221.526 118.583 221.459 118.52 221.478 118.377C221.489 118.309 221.524 118.226 221.601 118.156C221.679 118.085 221.798 118.044 221.925 118.05C222.19 118.054 222.441 118.283 222.577 118.545C222.728 118.808 222.827 119.136 222.837 119.486C222.854 120.176 222.538 120.841 222.051 121.011C221.814 121.087 221.61 121.026 221.502 120.951C221.391 120.873 221.369 120.798 221.38 120.791Z" fill="#6F4439"/>
<path d="M219.875 111.776C219.459 112.117 219.019 112.47 218.49 112.57C217.961 112.67 217.324 112.418 217.188 111.897C217.126 111.664 217.16 111.383 216.988 111.214C216.782 111.011 216.445 111.11 216.162 111.166C215.18 111.358 213.926 110.366 213.588 109.424C213.369 109.825 212.826 109.989 212.421 109.776C212.016 109.563 211.864 109.435 211.535 109.119C211.205 108.802 210.758 108.533 210.313 108.636C210.064 108.694 209.842 108.866 209.586 108.866C209.135 108.866 208.87 108.361 208.763 107.922C208.656 107.484 208.557 106.97 208.157 106.762C207.786 106.569 207.342 106.739 206.935 106.837C206.529 106.934 205.988 106.884 205.847 106.49C205.773 106.284 205.844 106.053 205.945 105.859C206.402 104.976 207.527 104.503 208.477 104.792C208.711 103.637 209.687 102.667 210.844 102.44C212.002 102.214 213.271 102.744 213.923 103.726C214.586 103.009 215.608 102.642 216.576 102.775C217.544 102.907 218.43 103.535 218.875 104.404C219.685 104.113 220.659 104.35 221.244 104.981C221.829 105.612 221.992 106.601 221.64 107.386C222.284 107.682 222.863 108.245 222.937 108.949C223.013 109.653 222.387 110.417 221.69 110.291C222.014 110.816 221.856 111.582 221.351 111.936C220.845 112.29 220.072 112.177 219.689 111.694" fill="#263238"/>
<path d="M208.313 105.817C208.31 105.818 208.312 105.838 208.319 105.88C208.327 105.92 208.334 105.982 208.356 106.06C208.401 106.214 208.485 106.442 208.662 106.695C208.839 106.944 209.105 107.225 209.489 107.434C209.867 107.646 210.371 107.788 210.921 107.709L210.856 107.639C210.776 107.94 210.836 108.287 211.007 108.574C211.172 108.867 211.412 109.118 211.665 109.361C211.793 109.477 211.909 109.616 212.081 109.719C212.249 109.816 212.443 109.864 212.639 109.871C213.027 109.887 213.451 109.729 213.701 109.381L213.57 109.356C213.717 110.026 214.162 110.67 214.811 111.03C215.156 111.235 215.57 111.343 215.963 111.297C216.357 111.259 216.714 111.11 217.045 110.958L216.95 110.926C217.171 111.333 217.484 111.67 217.85 111.906C218.209 112.143 218.67 112.26 219.066 112.125C219.855 111.884 220.33 111.167 220.382 110.528L220.307 110.57C220.726 110.753 221.156 110.736 221.494 110.639C221.837 110.545 222.097 110.369 222.278 110.203C222.461 110.033 222.562 109.867 222.622 109.753C222.676 109.635 222.697 109.57 222.693 109.569C222.675 109.556 222.603 109.838 222.24 110.16C222.058 110.314 221.803 110.476 221.472 110.559C221.147 110.645 220.738 110.651 220.351 110.475L220.284 110.445L220.277 110.518C220.221 111.116 219.762 111.785 219.029 112C218.67 112.119 218.265 112.014 217.924 111.79C217.583 111.567 217.283 111.242 217.078 110.859L217.046 110.798L216.983 110.826C216.657 110.976 216.313 111.116 215.948 111.15C215.584 111.19 215.213 111.095 214.885 110.9C214.271 110.56 213.854 109.958 213.712 109.324L213.676 109.164L213.581 109.298C213.37 109.596 212.992 109.744 212.643 109.731C212.468 109.726 212.295 109.684 212.148 109.6C212.006 109.52 211.887 109.382 211.756 109.265C211.504 109.027 211.271 108.786 211.115 108.514C210.952 108.245 210.898 107.941 210.965 107.668L210.986 107.584L210.901 107.598C210.384 107.679 209.899 107.552 209.531 107.355C209.156 107.162 208.892 106.895 208.712 106.659C208.358 106.169 208.336 105.807 208.313 105.817Z" fill="#455A64"/>
<path d="M210.26 123.656C210.267 123.527 211.122 123.628 211.816 122.97C212.512 122.314 212.525 121.392 212.645 121.4C212.7 121.394 212.787 121.622 212.751 122.008C212.719 122.386 212.531 122.922 212.107 123.325C211.682 123.725 211.163 123.857 210.809 123.845C210.448 123.835 210.248 123.714 210.26 123.656Z" fill="#263238"/>
<path d="M160.882 225.162L159.306 236.098C159.306 236.098 147.051 237.991 146.553 239.981L168.811 244.137L172.003 227.21L160.882 225.162Z" fill="#263238"/>
<path d="M166.356 236.469C166.767 236.661 166.98 237.175 166.805 237.569C166.63 237.963 166.087 238.162 165.673 237.977C165.259 237.792 164.983 237.181 165.204 236.81C165.425 236.438 166.076 236.238 166.434 236.511" fill="#E0E0E0"/>
<path d="M168.811 244.137L169.062 242.417L147.627 239.075C147.627 239.075 146.562 239.298 146.553 239.98L168.811 244.137Z" fill="#455A64"/>
<path d="M158.965 235.923C158.95 236.027 159.485 236.175 159.959 236.606C160.445 237.026 160.639 237.523 160.746 237.501C160.85 237.499 160.801 236.854 160.217 236.342C159.639 235.824 158.959 235.824 158.965 235.923Z" fill="white"/>
<path d="M156.464 236.402C156.42 236.497 156.859 236.76 157.149 237.265C157.454 237.761 157.461 238.25 157.57 238.265C157.669 238.3 157.854 237.711 157.482 237.09C157.115 236.466 156.484 236.304 156.464 236.402Z" fill="white"/>
<path d="M154.654 238.801C154.749 238.841 154.993 238.355 154.818 237.739C154.646 237.122 154.175 236.804 154.113 236.881C154.036 236.954 154.31 237.318 154.447 237.826C154.596 238.33 154.547 238.77 154.654 238.801Z" fill="white"/>
<path d="M159.616 233.475C159.645 233.577 160.169 233.528 160.777 233.683C161.387 233.825 161.829 234.11 161.902 234.032C161.978 233.969 161.581 233.501 160.864 233.329C160.148 233.152 159.578 233.384 159.616 233.475Z" fill="white"/>
<path d="M209.134 137.491L209.591 135.422L221.749 129.385L222.809 131.039C222.809 131.039 227.359 134.741 229.1 137.954C230.842 141.168 228.776 167.479 228.486 171.319C227.9 179.057 225.009 189.184 225.009 189.184C225.009 189.184 221.108 186.468 209.631 181.756C198.154 177.044 197.539 174.911 197.539 174.911L204.302 166.334L209.134 137.491Z" fill="#FFDFBA"/>
<path d="M209.317 138.215C209.249 138.596 203.755 151.791 203.755 151.791C203.755 151.791 206.61 153.384 207.008 153.464C207.406 153.544 209.317 138.215 209.317 138.215Z" fill="#FFDFBA"/>
<path d="M208.764 140.378C208.818 140.387 208.33 143.74 207.675 147.867C207.019 151.995 206.444 155.333 206.39 155.324C206.336 155.315 206.823 151.963 207.479 147.835C208.134 143.709 208.709 140.37 208.764 140.378Z" fill="#263238"/>
<path d="M170.197 166.775C170.197 166.775 173.471 161.944 175.423 161.095C177.374 160.247 179.816 159.788 179.816 159.788L188.05 160.889L187.904 165.806C187.904 165.806 186.609 166.935 184.965 166.589C183.322 166.244 179.25 164.931 179.25 164.931L177.198 164.9L175.144 167.185C175.144 167.185 173.582 167.543 174.221 166.133C174.861 164.723 175.146 164.102 175.146 164.102C175.146 164.102 173.139 166.792 172.436 166.873C171.732 166.955 170.197 166.775 170.197 166.775Z" fill="#AE7461"/>
<path d="M213.227 147.424L207.518 160.69L187.973 160.881L187.826 165.798C187.826 165.798 206.674 172.443 211.693 171.153C216.712 169.862 225.035 152.114 225.035 152.114L213.227 147.424Z" fill="#AE7461"/>
<path d="M217.849 136.23C217.315 136.715 215.549 138.789 213.664 143.299C211.779 147.809 209.134 153.079 209.134 153.079L222.609 158.45C222.609 158.45 225.68 151.383 227.106 148.238C228.192 145.844 228.951 141.135 227.962 138.856C226.973 136.577 222.542 131.975 217.849 136.23Z" fill="#FFDFBA"/>
<path d="M217.849 136.23C217.849 136.23 217.889 136.188 217.973 136.112C218.058 136.038 218.179 135.92 218.353 135.784C218.698 135.511 219.233 135.123 220.014 134.802C220.793 134.499 221.859 134.295 223.037 134.578C224.212 134.843 225.436 135.565 226.49 136.643C227.016 137.183 227.511 137.81 227.897 138.543C228.277 139.288 228.439 140.155 228.484 141.038C228.569 142.812 228.317 144.708 227.783 146.626C227.524 147.591 227.081 148.523 226.668 149.469C226.251 150.419 225.824 151.389 225.39 152.376C224.522 154.351 223.622 156.396 222.7 158.491L222.661 158.579L222.572 158.543C222.51 158.519 222.443 158.492 222.376 158.466C217.604 156.56 213.085 154.755 209.1 153.163L209.01 153.127L209.054 153.04C210.313 150.517 211.427 148.167 212.382 146.061C213.344 143.961 214.07 142.061 214.866 140.581C215.639 139.092 216.368 137.981 216.922 137.264C217.197 136.905 217.427 136.643 217.589 136.474C217.752 136.304 217.849 136.23 217.849 136.23C217.851 136.232 217.83 136.255 217.789 136.298C217.744 136.347 217.685 136.411 217.609 136.493C217.455 136.668 217.234 136.935 216.967 137.298C216.43 138.022 215.718 139.138 214.962 140.629C214.182 142.11 213.471 144.01 212.518 146.121C211.573 148.235 210.468 150.59 209.214 153.119L209.167 152.995C213.154 154.581 217.675 156.38 222.451 158.28C222.518 158.307 222.584 158.333 222.646 158.357L222.518 158.41C223.441 156.315 224.342 154.271 225.213 152.296C225.649 151.309 226.076 150.34 226.495 149.39C226.913 148.437 227.349 147.527 227.607 146.574C228.141 144.678 228.397 142.794 228.321 141.046C228.28 140.174 228.124 139.331 227.762 138.612C227.389 137.896 226.905 137.274 226.39 136.74C225.358 135.672 224.161 134.955 223.013 134.686C221.861 134.399 220.815 134.586 220.042 134.874C219.267 135.179 218.729 135.554 218.378 135.816C218.2 135.945 218.076 136.059 217.986 136.127C217.898 136.198 217.849 136.23 217.849 136.23Z" fill="#263238"/>
<path d="M178.836 162.271C178.841 162.335 177.824 162.245 176.753 162.798C175.671 163.333 175.14 164.205 175.092 164.163C175.073 164.152 175.173 163.92 175.428 163.603C175.681 163.288 176.107 162.903 176.663 162.621C177.22 162.34 177.782 162.226 178.187 162.21C178.593 162.192 178.839 162.249 178.836 162.271Z" fill="#6F4439"/>
<path d="M210.551 153.644C210.555 153.646 210.541 153.692 210.508 153.781C210.468 153.884 210.417 154.011 210.356 154.168C210.209 154.524 210.009 155.012 209.759 155.62C209.225 156.883 208.481 158.643 207.601 160.726L207.579 160.779L207.52 160.779C205.742 160.8 203.721 160.823 201.583 160.848C197.835 160.873 194.442 160.895 191.96 160.912C190.745 160.911 189.754 160.91 189.043 160.909C188.714 160.904 188.451 160.901 188.25 160.898C188.069 160.893 187.973 160.887 187.973 160.881C187.973 160.873 188.068 160.866 188.25 160.858C188.45 160.851 188.714 160.842 189.042 160.831C189.753 160.817 190.743 160.796 191.958 160.771C194.44 160.74 197.833 160.696 201.581 160.648C203.719 160.631 205.74 160.615 207.518 160.601L207.436 160.655C208.344 158.583 209.11 156.833 209.66 155.577C209.93 154.977 210.146 154.497 210.304 154.145C210.376 153.993 210.433 153.869 210.481 153.769C210.522 153.684 210.546 153.642 210.551 153.644Z" fill="#6F4439"/>
<path d="M37.6098 171.319H33.8475V244.934H37.6098V171.319Z" fill="#455A64"/>
<path d="M192.04 171.838H188.277V244.942H192.04V171.838Z" fill="#455A64"/>
<path d="M195.767 170.593H24.448V175.035H195.767V170.593Z" fill="#455A64"/>
<path d="M194.117 175.036C194.117 175.09 174.126 175.135 149.47 175.135C124.806 175.135 104.819 175.09 104.819 175.036C104.819 174.981 124.806 174.936 149.47 174.936C174.126 174.937 194.117 174.981 194.117 175.036Z" fill="#263238"/>
<path d="M144.805 144.609C145.256 144.524 145.69 144.82 145.776 145.271L150.412 169.839H172.956C173.293 169.839 173.566 170.112 173.566 170.449C173.566 170.785 173.293 171.059 172.956 171.059H149.046V170.961L148.937 170.982L144.144 145.579C144.058 145.128 144.355 144.694 144.805 144.609Z" fill="#263238"/>
<path d="M31.8231 87.2831C33.9684 84.1259 37.0509 82.1432 40.8467 81.7414C42.9884 81.5148 43.9155 81.881 45.4975 82.1604C47.0794 82.4393 48.547 83.1439 49.5848 84.3697C50.8177 85.8257 51.8922 87.4833 52.2676 89.3537C52.6531 91.275 52.674 93.1866 52.4449 94.7837C52.166 96.7233 51.121 99.7439 50.1157 101.426L46.8594 102.12C44.1325 102.457 41.3674 102.793 38.6471 102.407C35.9267 102.021 33.21 100.818 31.5747 98.61C29.3029 95.5422 29.6778 90.4408 31.8231 87.2831Z" fill="#263238"/>
<path d="M36.2269 86.8579L42.5952 83.6448L44.3376 83.6915C48.2198 83.3593 51.2779 87.4009 51.5837 90.5419C51.9231 94.0313 52.2005 98.3051 51.8748 100.929C51.2205 106.204 46.8416 107.029 46.8416 107.029C46.8416 107.029 47.5756 113.181 47.7636 114.916L37.1926 111.685L34.6394 88.7857C34.5881 87.8287 35.2775 86.991 36.2269 86.8579Z" fill="#FFBF9D"/>
<path d="M44.0034 100.409C44.0151 100.133 44.1451 99.8783 44.3239 99.6955C44.6811 99.3297 45.2434 99.2469 45.6828 99.4958C46.1223 99.7447 46.4113 100.309 46.3818 100.861C46.1781 101.201 45.8418 101.448 45.4512 101.517C45.3907 101.528 45.3293 101.535 45.2673 101.539C44.9681 101.558 44.6557 101.485 44.4083 101.285C44.1614 101.086 43.9892 100.75 44.0034 100.409Z" fill="#FF9A6C"/>
<path d="M50.5728 95.2546C50.5977 95.6097 50.3173 95.9232 49.947 95.9557C49.5777 95.9882 49.2571 95.7276 49.2327 95.373C49.2078 95.0179 49.4883 94.7039 49.8576 94.6714C50.2279 94.6389 50.548 94.9 50.5728 95.2546Z" fill="#263238"/>
<path d="M50.5566 92.3929C50.4763 92.4834 49.9536 92.1237 49.2292 92.1501C48.5058 92.1664 47.9866 92.557 47.9053 92.4707C47.8652 92.4326 47.945 92.2715 48.1705 92.0952C48.3925 91.92 48.7755 91.7437 49.2267 91.73C49.6778 91.7173 50.0628 91.8702 50.2868 92.0328C50.5154 92.1963 50.5967 92.3523 50.5566 92.3929Z" fill="#263238"/>
<path d="M46.4301 98.4569C46.4255 98.4157 46.8725 98.3228 47.599 98.2049C47.7834 98.1795 47.9571 98.1368 47.984 98.0093C48.0231 97.8742 47.9388 97.6776 47.8418 97.4658C47.6528 97.0243 47.4547 96.5615 47.2469 96.0764C46.4194 94.0977 45.8133 92.4681 45.8936 92.4356C45.9739 92.403 46.7095 93.9804 47.537 95.959C47.7366 96.4472 47.9276 96.9126 48.109 97.3576C48.1862 97.5653 48.3147 97.7995 48.2299 98.0799C48.1847 98.2196 48.0526 98.3248 47.9353 98.3609C47.8179 98.401 47.7143 98.4066 47.6228 98.4152C46.8893 98.4792 46.4341 98.498 46.4301 98.4569Z" fill="#263238"/>
<path d="M46.8497 107.022C46.8497 107.022 43.3277 107.37 39.759 105.387C39.759 105.387 41.755 108.96 46.9894 108.29L46.8497 107.022Z" fill="#FF9A6C"/>
<path d="M50.5597 90.1756C50.4438 90.3565 49.8855 90.2574 49.2394 90.3331C48.5912 90.3885 48.0623 90.5978 47.9145 90.4433C47.8485 90.3676 47.9135 90.1929 48.1319 90.0075C48.3473 89.8231 48.7237 89.6458 49.1688 89.6006C49.6133 89.5559 50.0166 89.6534 50.263 89.7916C50.5129 89.9298 50.6094 90.0883 50.5597 90.1756Z" fill="#263238"/>
<path d="M43.1398 95.7975C43.1525 96.1531 43.4644 96.4356 43.8358 96.4285C44.2066 96.4219 44.4977 96.1293 44.4845 95.7737C44.4713 95.4181 44.1599 95.1356 43.789 95.1422C43.4177 95.1488 43.1271 95.4419 43.1398 95.7975Z" fill="#263238"/>
<path d="M40.7801 92.9839C40.8695 93.0651 41.3516 92.6526 42.0745 92.6023C42.7958 92.5424 43.3526 92.8762 43.4247 92.7817C43.4603 92.74 43.3643 92.5876 43.1214 92.4362C42.8822 92.2854 42.4824 92.1502 42.0328 92.1843C41.5827 92.2193 41.2159 92.4118 41.0107 92.5973C40.8004 92.7837 40.7364 92.9473 40.7801 92.9839Z" fill="#263238"/>
<path d="M41.7336 90.43C41.885 90.5865 42.4342 90.3853 43.1047 90.3406C43.7737 90.2751 44.3503 90.3833 44.4717 90.2045C44.5246 90.1181 44.426 89.9586 44.169 89.8164C43.916 89.6746 43.4999 89.5705 43.0392 89.6081C42.5789 89.6467 42.1873 89.8169 41.9632 89.9982C41.7351 90.1796 41.6666 90.3533 41.7336 90.43Z" fill="#263238"/>
<path d="M36.3189 97.4801C36.3047 97.0895 35.8216 96.1837 35.4335 96.1365C34.3977 96.011 32.5429 96.1568 32.6151 98.7745C32.7136 102.353 36.2859 101.516 36.2894 101.413C36.2915 101.333 36.3682 98.8294 36.3189 97.4801Z" fill="#FFBF9D"/>
<path d="M35.2657 100.133C35.2495 100.122 35.2048 100.179 35.1006 100.23C34.999 100.28 34.8233 100.317 34.6348 100.252C34.2528 100.124 33.9185 99.5324 33.8835 98.8883C33.8652 98.5626 33.9251 98.2507 34.0333 97.9906C34.1354 97.726 34.2995 97.5385 34.489 97.4994C34.677 97.4506 34.8151 97.5609 34.8614 97.6599C34.9122 97.759 34.8913 97.8311 34.9101 97.8367C34.9203 97.8453 34.9853 97.7747 34.9528 97.6279C34.936 97.5573 34.8918 97.474 34.8055 97.4074C34.7176 97.3399 34.5906 97.3079 34.4585 97.3256C34.1832 97.3526 33.9419 97.6132 33.8225 97.8982C33.6884 98.1852 33.6137 98.5357 33.634 98.9015C33.6767 99.6218 34.0643 100.286 34.5855 100.422C34.839 100.48 35.0468 100.399 35.153 100.311C35.2617 100.22 35.2784 100.139 35.2657 100.133Z" fill="#FF9A6C"/>
<path d="M35.2891 96.1599L36.2772 97.0174C41.9728 93.2709 47.7646 83.0728 46.2685 83.4899C46.2685 83.4899 43.4958 82.6283 40.6363 83.3817C37.7773 84.135 32.4001 86.0791 32.7897 89.496C33.1794 92.9117 35.2891 96.1599 35.2891 96.1599Z" fill="#263238"/>
<path d="M33.6158 81.8555C35.0021 82.6658 36.2376 85.0285 35.6707 86.5312C35.9267 88.1024 35.3206 89.7874 34.1223 90.8354C32.9239 91.8834 31.1733 92.2599 29.6503 91.7966C28.5983 91.4765 27.662 90.7699 27.0966 89.8271C26.4256 88.709 26.2996 87.3231 26.5394 86.0414C26.834 84.4626 27.7001 82.9564 29.0458 82.0806C30.3915 81.2048 32.2295 81.0448 33.6158 81.8555Z" fill="#263238"/>
<path d="M33.3018 96.1685C33.3099 96.1842 33.5431 96.0862 33.9536 95.8865C34.3645 95.6874 34.9513 95.3831 35.6609 94.9772C37.0752 94.1664 38.9919 92.9285 40.7928 91.183C42.5957 89.438 43.8479 87.4989 44.5057 85.9983C44.84 85.249 45.0513 84.6186 45.1687 84.1761C45.287 83.7337 45.3287 83.4837 45.3129 83.4802C45.2616 83.4649 45.0386 84.457 44.332 85.9175C43.6381 87.3785 42.3823 89.2673 40.6038 90.9894C38.8268 92.7126 36.9462 93.9643 35.5634 94.8131C34.87 95.2378 34.299 95.5665 33.9043 95.7941C33.5091 96.0206 33.2926 96.1507 33.3018 96.1685Z" fill="#455A64"/>
<path d="M30.1797 93.4822C30.229 93.4842 30.2498 92.8157 30.4494 91.7651C30.646 90.7156 31.0712 89.2886 31.8449 87.8535C32.6247 86.421 33.5879 85.2851 34.3595 84.5469C35.1307 83.8053 35.6788 83.4227 35.6503 83.3831C35.6397 83.3679 35.4954 83.4517 35.2419 83.6183C34.9859 83.7804 34.6369 84.0486 34.229 84.4067C33.4121 85.1195 32.4022 86.2614 31.6067 87.7245C30.8162 89.1901 30.4113 90.6592 30.2605 91.7331C30.1833 92.2701 30.1492 92.709 30.1533 93.0123C30.1528 93.315 30.1609 93.4816 30.1797 93.4822Z" fill="#455A64"/>
<path d="M33.98 101.782C33.98 102.522 34.5799 103.122 35.3201 103.122C36.0602 103.122 36.6602 102.522 36.6602 101.782C36.6602 101.042 36.0602 100.442 35.3201 100.442C34.5799 100.442 33.98 101.042 33.98 101.782Z" fill="#263238"/>
<path d="M46.5982 100.977C46.5835 100.851 45.7468 100.997 45.027 100.385C44.3051 99.7758 44.2421 98.8675 44.1243 98.8818C44.0699 98.8792 43.9968 99.1093 44.0532 99.4873C44.1055 99.8586 44.3188 100.377 44.7593 100.751C45.2007 101.124 45.7194 101.226 46.0674 101.194C46.4225 101.163 46.6135 101.034 46.5982 100.977Z" fill="#263238"/>
<path d="M27.5061 146.536C27.5061 146.536 23.5102 160.634 25.8841 168.288C27.308 172.88 47.2942 198.175 48.2569 199.263C48.927 200.02 39.7113 223.916 38.0253 228.893L48.6211 234.029C48.6211 234.029 61.8805 205.835 62.6907 200.895C63.7316 194.549 48.8157 167.405 49.3638 167.041L54.7253 155.858L50.2757 144.342C50.2757 144.342 31.5229 144.545 27.6936 144.851L27.5061 146.536Z" fill="#263238"/>
<path d="M50.6861 154.85C50.6861 154.85 76.5362 164.021 79.4506 165.573C82.6282 167.266 85.0279 173.203 82.3787 178.249C79.7295 183.296 56.4895 197.744 56.4895 197.744L50.6861 188.913L67.5045 175.666L49.2983 171.376L43.3689 164.35L50.6861 154.85Z" fill="#263238"/>
<path d="M62.6917 200.733C62.6557 200.73 62.8111 200.091 62.679 198.936C62.5597 197.783 62.1111 196.154 61.3704 194.213C61.0021 193.242 60.5607 192.192 60.0954 191.059C59.8591 190.495 59.6356 189.896 59.4024 189.289C59.1723 188.685 58.8995 188.07 58.6288 187.439C57.5264 184.919 56.2711 182.165 54.9513 179.277C52.8188 174.642 50.8482 170.36 49.2673 166.925L49.2516 166.891L49.2602 166.856C49.9328 164.07 50.5251 161.792 50.9742 160.216C51.2008 159.428 51.3923 158.817 51.5411 158.407C51.6214 158.203 51.6783 158.046 51.7352 157.947C51.7931 157.849 51.8241 157.801 51.8287 157.805C51.8327 157.808 51.8104 157.863 51.7642 157.962C51.7184 158.062 51.6707 158.223 51.6011 158.427C51.4721 158.841 51.2998 159.457 51.0911 160.248C50.6775 161.831 50.1162 164.116 49.4675 166.904L49.4604 166.835C51.0697 170.247 53.0651 174.522 55.1916 179.167C56.5114 182.057 57.7606 184.813 58.8523 187.343C59.121 187.978 59.3892 188.591 59.6199 189.208C59.851 189.82 60.0659 190.409 60.2986 190.977C60.7537 192.111 61.1865 193.169 61.5452 194.148C62.2665 196.104 62.6917 197.756 62.7811 198.926C62.8833 200.098 62.6917 200.733 62.6917 200.733Z" fill="#455A64"/>
<path opacity="0.3" d="M51.053 160.158C51.0022 160.344 51.053 166.95 51.053 166.95L54.3697 172.571L51.721 171.947L49.3644 167.041L51.053 160.158Z" fill="black"/>
<path d="M65.7209 159.149C64.9747 158.417 62.7867 156.362 61.249 154.922C60.6607 154.372 61.0402 153.386 61.8459 153.369L79.5487 153.008C79.8113 153.002 80.0633 153.112 80.2381 153.308L83.9383 157.465C84.4468 158.036 84.0552 158.941 83.2906 158.961L66.3717 159.404C66.1289 159.41 65.8947 159.319 65.7209 159.149Z" fill="#455A64"/>
<path d="M60.71 155.967C60.71 155.967 62.7674 155.054 64.8243 154.85C66.8817 154.645 67.9104 155.511 69.0123 155.408C70.1141 155.306 73.1266 155.6 73.1266 156.408C73.1266 157.216 68.9386 157.51 68.9386 157.51L72.612 158.686C72.612 158.686 76.7999 158.171 76.8736 158.686C76.9472 159.2 73.1266 159.714 71.3633 159.935C69.6 160.155 59.3872 160.302 57.9181 159.935C56.4484 159.567 46.0156 153.249 46.0156 153.249L51.0118 148.106L60.71 155.967Z" fill="#FFBF9D"/>
<path d="M34.9813 109.979C34.9813 109.979 30.1762 110.713 28.5328 115.945C27.1663 120.295 29.7728 138.172 30.8808 141.4C31.9887 144.627 43.9186 155.015 44.9671 154.132C46.0156 153.248 51.8292 148.105 51.8292 148.105L42.4957 137.075C42.4957 137.075 42.99 123.977 42.3722 121.505C41.7545 119.035 37.5762 109.732 34.9813 109.979Z" fill="#FFDFBA"/>
<path d="M29.147 131.782C29.8297 137.991 28.4967 140.66 28.4967 140.66C27.4172 141.476 26.8757 142.828 26.7594 143.841C26.6959 144.393 27.1388 144.87 27.6941 144.851L50.2762 144.341C50.2762 144.341 53.4365 144.642 53.3694 141.646C53.2942 138.301 54.2158 126.55 53.0016 121.93C52.5825 120.336 47.4258 112.563 47.4258 112.563L36.6608 106.458L35.5219 109.392C35.5219 109.392 32.1066 110.639 30.5465 112.649C29.3131 114.239 28.8798 115.336 28.3855 117.039C27.4513 120.256 28.7807 128.452 29.147 131.782Z" fill="#FFDFBA"/>
<path d="M85.9246 121.42C85.9246 121.42 85.7275 121.243 85.0428 121.464C84.358 121.685 82.4113 122.641 81.5284 122.868C80.6455 123.096 78.7314 123.833 78.7314 123.833C78.7314 123.833 77.6656 123.71 76.3123 124.646C74.9584 125.582 71.1388 128.105 71.1388 128.105L72.451 131.82C72.451 131.82 73.9267 131.572 74.3463 131.697C74.7659 131.821 76.0151 131.898 77.0534 131.586C78.0918 131.274 79.4974 130.712 79.4974 130.712C79.4974 130.712 80.8665 130.825 81.2256 130.328C81.5848 129.831 81.1987 128.934 81.1987 128.934C81.1987 128.934 82.5424 127.701 81.9648 127.008C81.3877 126.316 80.6694 125.548 80.6694 125.548C80.6694 125.548 84.6546 123.436 85.4075 122.876C86.1593 122.317 86.3077 121.868 85.9246 121.42Z" fill="#FFBF9D"/>
<path d="M71.1387 128.105L58.7446 132.276L53.7367 134.806L60.7664 138.596L72.4509 131.82L71.1387 128.105Z" fill="#FFBF9D"/>
<path d="M78.6465 125.042C78.7084 125.02 78.9818 126.495 78.4941 128.236C78.4748 128.303 78.4555 128.369 78.4372 128.432L78.3341 128.264C79.156 128.412 79.888 128.556 80.4148 128.674C80.9563 128.782 81.2424 129.01 81.2154 129.038C81.1956 129.066 80.9127 128.911 80.3818 128.852C79.8494 128.781 79.1098 128.667 78.2878 128.523L78.1436 128.498L78.1847 128.355C78.202 128.295 78.2208 128.23 78.2391 128.165C78.712 126.485 78.5642 125.044 78.6465 125.042Z" fill="#FF9A6C"/>
<path d="M78.587 126.805C78.5962 126.783 78.6977 126.794 78.8425 126.888C78.9838 126.981 79.1676 127.17 79.2464 127.466L79.1133 127.373C79.3211 127.336 79.5608 127.31 79.8148 127.305C80.7242 127.285 81.4201 127.564 81.3952 127.629C81.3749 127.703 80.681 127.549 79.8199 127.569C79.5776 127.574 79.348 127.59 79.1468 127.609L79.034 127.621L79.0137 127.517C78.9187 127.036 78.5515 126.85 78.587 126.805Z" fill="#FF9A6C"/>
<path d="M80.454 125.854C80.4967 125.917 80.1629 126.2 79.8627 126.63C79.5569 127.056 79.4014 127.464 79.3272 127.445C79.2587 127.434 79.3085 126.951 79.6468 126.477C79.9816 126.001 80.4205 125.793 80.454 125.854Z" fill="#FF9A6C"/>
<path d="M47.1912 109.837L48.4358 113.18C49.7906 114.465 53.1642 118.075 53.8048 120.56C54.6425 123.809 58.419 131.976 58.419 131.976C58.419 131.976 66.9828 128.325 67.5736 128.925C68.1644 129.524 71.1647 136.562 70.1777 138.039C69.1906 139.516 60.4449 143.387 56.9072 142.517C53.3695 141.647 50.0146 136.526 50.0146 136.526L47.1912 109.837Z" fill="#FFDFBA"/>
<path d="M52.8142 120.593C52.8315 120.587 52.9301 120.858 53.0941 121.355C53.1815 121.603 53.2755 121.909 53.3517 122.274C53.4345 122.636 53.5447 123.047 53.6052 123.512C53.7754 124.435 53.8577 125.55 53.8998 126.787C53.9202 128.025 53.8775 129.385 53.7886 130.806C53.5935 133.65 53.3918 136.215 53.4147 138.076C53.405 138.542 53.433 138.962 53.4426 139.331C53.4487 139.701 53.4726 140.019 53.495 140.278C53.5336 140.797 53.5463 141.086 53.5285 141.088C53.5107 141.091 53.463 140.806 53.3923 140.288C53.3537 140.029 53.3151 139.711 53.2948 139.34C53.2709 138.97 53.2298 138.547 53.2278 138.08C53.1571 136.208 53.3299 133.626 53.5244 130.79C53.6133 129.371 53.6631 128.02 53.656 126.791C53.6275 125.564 53.5656 124.457 53.4203 123.541C53.1571 121.701 52.7563 120.61 52.8142 120.593Z" fill="#263238"/>
<path d="M58.2894 136.818C58.2163 136.817 58.1731 135.705 58.1929 134.334C58.2127 132.963 58.2879 131.853 58.3611 131.854C58.4342 131.855 58.4774 132.967 58.4576 134.338C58.4378 135.708 58.3626 136.819 58.2894 136.818Z" fill="#263238"/>
<path d="M42.3113 120.011C42.3205 120.011 42.3271 120.115 42.3311 120.311C42.3337 120.536 42.3367 120.821 42.3408 121.17C42.3514 121.952 42.3657 123.022 42.3834 124.329C42.4149 126.995 42.5541 130.686 42.4444 134.757C42.4342 135.762 42.5237 136.762 42.9656 137.587C43.4081 138.409 44.072 139.074 44.644 139.743C45.8008 141.065 46.8452 142.258 47.7312 143.27C48.5851 144.26 49.2846 145.071 49.7952 145.663C50.0192 145.932 50.2016 146.15 50.3463 146.323C50.4703 146.476 50.5318 146.559 50.5247 146.565C50.5175 146.571 50.4429 146.499 50.3057 146.358C50.1513 146.193 49.9567 145.986 49.7169 145.731C49.1906 145.152 48.4698 144.36 47.5894 143.393C46.6913 142.391 45.6316 141.21 44.4591 139.903C43.8846 139.24 43.2125 138.582 42.7355 137.708C42.2585 136.824 42.1686 135.773 42.1787 134.756C42.2884 130.685 42.1787 127.002 42.195 124.331C42.195 122.996 42.2107 121.915 42.2366 121.169C42.2478 120.796 42.2636 120.506 42.2768 120.31C42.2905 120.113 42.3022 120.01 42.3113 120.011Z" fill="#263238"/>
<path d="M34.5567 109.979C34.5679 110.008 34.0446 110.156 33.1927 110.617C32.3525 111.08 31.1704 111.897 30.1442 113.292C29.6311 113.983 29.1633 114.814 28.8387 115.772C28.6675 116.248 28.5501 116.759 28.4643 117.289C28.3901 117.819 28.3469 118.382 28.3098 118.952C28.2402 120.095 28.2377 121.299 28.3159 122.543C28.3987 123.784 28.5709 125.072 28.7025 126.392C28.9814 129.033 29.2476 131.546 29.4894 133.837C29.7256 136.126 29.911 138.191 30.3845 139.859C30.8392 141.53 31.5417 142.77 32.1386 143.527C32.4348 143.91 32.6949 144.182 32.8762 144.362C33.0591 144.54 33.1577 144.632 33.1511 144.64C33.148 144.643 33.1201 144.625 33.0673 144.585C33.0154 144.544 32.9362 144.486 32.8397 144.401C32.6451 144.233 32.3703 143.969 32.0579 143.592C31.4284 142.845 30.6883 141.598 30.2042 139.91C29.7018 138.226 29.496 136.146 29.2471 133.864C28.9987 131.573 28.7259 129.06 28.4394 126.421C28.3078 125.1 28.1376 123.817 28.0568 122.559C27.9812 121.304 27.9888 120.089 28.066 118.936C28.1071 118.358 28.1534 117.802 28.2341 117.254C28.3261 116.709 28.4516 116.186 28.6314 115.7C28.9733 114.721 29.4615 113.877 29.9944 113.18C31.0606 111.773 32.2793 110.967 33.1445 110.526C33.5808 110.306 33.9344 110.163 34.1803 110.088C34.4246 110.007 34.5542 109.97 34.5567 109.979Z" fill="#263238"/>
<path d="M47.3537 113.292C47.343 113.307 47.1581 113.196 46.8309 112.98C46.4621 112.73 46.0019 112.417 45.4537 112.045L45.6 111.972C45.5934 112.675 45.5858 113.498 45.5777 114.405L45.5762 114.598L45.4024 114.51C44.5277 114.07 43.564 113.586 42.55 113.076C40.6049 112.09 38.8508 111.183 37.5874 110.515C36.996 110.197 36.4972 109.928 36.0969 109.712C35.7479 109.517 35.5584 109.402 35.5665 109.386C35.5747 109.369 35.7799 109.454 36.1431 109.62C36.5536 109.816 37.0646 110.059 37.6712 110.348C38.9564 110.973 40.7238 111.853 42.6694 112.84C43.6798 113.357 44.6399 113.848 45.5116 114.294L45.3359 114.399C45.3653 113.494 45.3923 112.671 45.4151 111.968L45.4212 111.788L45.5619 111.895C46.0908 112.294 46.5343 112.629 46.8904 112.898C47.1992 113.139 47.3643 113.278 47.3537 113.292Z" fill="#263238"/>
<path d="M51.3552 226.222L47.1794 234.965C47.1794 234.965 55.1957 242.312 54.5906 244.006L36.3331 236.2L42.2473 222.3L51.3552 226.222Z" fill="#263238"/>
<path d="M41.8566 231.803C41.4639 231.743 41.0575 232.014 40.994 232.387C40.9305 232.759 41.2292 233.169 41.6214 233.235C42.0131 233.302 42.5119 232.991 42.5317 232.612C42.5515 232.234 42.1736 231.77 41.7799 231.795" fill="#E0E0E0"/>
<path d="M36.3331 236.2L36.9874 234.823L54.2477 242.822C54.2477 242.822 54.9163 243.504 54.5906 244.006L36.3331 236.2Z" fill="#455A64"/>
<path d="M47.5132 235.003C47.4741 235.086 47.0113 234.934 46.4561 235.017C45.8978 235.087 45.5138 235.355 45.4462 235.286C45.371 235.235 45.7215 234.788 46.3967 234.699C47.0703 234.603 47.5661 234.934 47.5132 235.003Z" fill="white"/>
<path d="M49.1048 236.571C49.0895 236.661 48.642 236.639 48.1853 236.866C47.7215 237.08 47.4781 237.433 47.3913 237.391C47.3019 237.369 47.4533 236.849 48.0268 236.577C48.5978 236.3 49.1378 236.489 49.1048 236.571Z" fill="white"/>
<path d="M49.2571 239.201C49.1682 239.185 49.2261 238.711 49.6544 238.347C50.0801 237.981 50.5789 237.978 50.586 238.065C50.6063 238.156 50.2289 238.288 49.8824 238.591C49.5279 238.886 49.349 239.231 49.2571 239.201Z" fill="white"/>
</svg>
