<svg width="340" height="250" viewBox="0 0 340 250" fill="none" xmlns="http://www.w3.org/2000/svg">
<path d="M305.281 232.933H282.868V233.102H305.281V232.933Z" fill="#EBEBEB"/>
<path d="M224.965 234.773H219.084V234.943H224.965V234.773Z" fill="#EBEBEB"/>
<path d="M282.191 226.653H269.204V226.822H282.191V226.653Z" fill="#EBEBEB"/>
<path d="M65.5444 227.789H36.3157V227.958H65.5444V227.789Z" fill="#EBEBEB"/>
<path d="M75.858 227.789H71.5742V227.958H75.858V227.789Z" fill="#EBEBEB"/>
<path d="M153.183 230.645H89.7853V230.814H153.183V230.645Z" fill="#EBEBEB"/>
<path d="M162.15 191.861H31.4703C30.4454 191.861 29.4626 191.454 28.7379 190.729C28.0132 190.005 27.6061 189.022 27.6061 187.997V4.30792C27.615 3.28894 28.0261 2.31473 28.7498 1.59735C29.4735 0.879974 30.4513 0.4775 31.4703 0.477539H162.15C162.657 0.477539 163.16 0.577489 163.629 0.771684C164.097 0.965879 164.523 1.25052 164.882 1.60934C165.241 1.96817 165.526 2.39416 165.72 2.86298C165.914 3.33181 166.014 3.8343 166.014 4.34175V187.997C166.014 188.504 165.914 189.007 165.72 189.476C165.526 189.944 165.241 190.37 164.882 190.729C164.523 191.088 164.097 191.373 163.629 191.567C163.16 191.761 162.657 191.861 162.15 191.861ZM31.4703 0.612889C30.4909 0.614678 29.5521 1.00455 28.8595 1.69711C28.1669 2.38968 27.7771 3.32848 27.7753 4.30792V187.997C27.7771 188.976 28.1669 189.915 28.8595 190.608C29.5521 191.3 30.4909 191.69 31.4703 191.692H162.15C163.129 191.69 164.068 191.3 164.761 190.608C165.453 189.915 165.843 188.976 165.845 187.997V4.30792C165.843 3.32848 165.453 2.38968 164.761 1.69711C164.068 1.00455 163.129 0.614678 162.15 0.612889H31.4703Z" fill="#EBEBEB"/>
<path d="M308.53 191.861H177.85C176.825 191.861 175.842 191.454 175.118 190.729C174.393 190.005 173.986 189.022 173.986 187.997V4.30792C173.995 3.28894 174.406 2.31473 175.13 1.59735C175.853 0.879974 176.831 0.4775 177.85 0.477539H308.53C309.555 0.477539 310.537 0.884661 311.262 1.60934C311.987 2.33402 312.394 3.3169 312.394 4.34175V187.997C312.394 189.022 311.987 190.005 311.262 190.729C310.537 191.454 309.555 191.861 308.53 191.861ZM177.85 0.612889C176.871 0.614678 175.932 1.00455 175.239 1.69711C174.547 2.38968 174.157 3.32848 174.155 4.30792V187.997C174.157 188.976 174.547 189.915 175.239 190.608C175.932 191.3 176.871 191.69 177.85 191.692H308.53C309.509 191.69 310.448 191.3 311.14 190.608C311.833 189.915 312.223 188.976 312.225 187.997V4.30792C312.223 3.32848 311.833 2.38968 311.14 1.69711C310.448 1.00455 309.509 0.614678 308.53 0.612889H177.85Z" fill="#EBEBEB"/>
<path d="M339.186 222.044H0.813721V222.213H339.186V222.044Z" fill="#EBEBEB"/>
<path d="M274.496 25.0635H256.298C250.528 25.0635 245.85 29.7416 245.85 35.5124V53.7101C245.85 59.4809 250.528 64.159 256.298 64.159H274.496C280.267 64.159 284.945 59.4809 284.945 53.7101V35.5124C284.945 29.7416 280.267 25.0635 274.496 25.0635Z" fill="#F0F0F0"/>
<path d="M270.26 39.086C270.26 42.4155 268.568 45.109 265.238 45.109C261.909 45.109 260.217 42.402 260.217 39.086C260.217 35.7699 261.909 33.0562 265.238 33.0562C268.568 33.0562 270.26 35.7564 270.26 39.086Z" fill="#FAFAFA"/>
<path d="M265.238 56.1599H274.53V50.6376C274.53 47.5855 270.368 45.1086 265.238 45.1086C260.109 45.1086 255.947 47.5855 255.947 50.6376V56.1599H265.238Z" fill="#FAFAFA"/>
<path d="M103.334 38.1721H90.6245C86.5955 38.1721 83.3292 41.4383 83.3292 45.4674V58.1767C83.3292 62.2058 86.5955 65.472 90.6245 65.472H103.334C107.363 65.472 110.629 62.2058 110.629 58.1767V45.4674C110.629 41.4383 107.363 38.1721 103.334 38.1721Z" fill="#E6E6E6"/>
<path d="M96.4243 53.2975C96.8343 52.728 97.309 52.2079 97.8387 51.7477C98.2003 51.4281 98.5353 51.0795 98.8403 50.7055C99.0491 50.4289 99.1608 50.0911 99.1584 49.7446C99.1658 49.5079 99.114 49.2731 99.0076 49.0616C98.9012 48.85 98.7437 48.6684 98.5493 48.5332C98.0703 48.2191 97.504 48.0651 96.9319 48.0933C96.3322 48.0792 95.7387 48.2165 95.2062 48.4926C94.7015 48.7645 94.2662 49.1489 93.9339 49.616L91.4367 48.1542C92.0178 47.2769 92.8274 46.5749 93.7782 46.124C94.8752 45.6152 96.075 45.3673 97.2838 45.3999C98.6273 45.3365 99.9576 45.6886 101.094 46.4082C101.549 46.7152 101.92 47.1324 102.171 47.6211C102.422 48.1098 102.545 48.6541 102.529 49.2032C102.54 49.7139 102.443 50.2213 102.244 50.692C102.08 51.0878 101.851 51.4537 101.568 51.7748C101.297 52.0726 100.952 52.4109 100.525 52.7967C100.117 53.1437 99.7434 53.5289 99.4088 53.9471C99.1684 54.2713 99.0444 54.6671 99.0569 55.0705H95.9371C95.912 54.4433 96.0823 53.8238 96.4243 53.2975ZM96.0927 59.7063C95.9068 59.5343 95.7599 59.3246 95.6618 59.0911C95.5638 58.8576 95.5169 58.6059 95.5242 58.3528C95.5188 58.1075 95.5662 57.864 95.6631 57.6386C95.76 57.4133 95.9042 57.2114 96.0859 57.0466C96.4824 56.706 96.9878 56.5187 97.5105 56.5187C98.0332 56.5187 98.5386 56.706 98.935 57.0466C99.1155 57.212 99.2585 57.4142 99.3542 57.6395C99.4499 57.8648 99.4962 58.108 99.49 58.3528C99.4974 58.6059 99.4504 58.8576 99.3524 59.0911C99.2543 59.3246 99.1074 59.5343 98.9215 59.7063C98.535 60.0591 98.0305 60.2547 97.5071 60.2547C96.9837 60.2547 96.4792 60.0591 96.0927 59.7063Z" fill="#FAFAFA"/>
<path d="M272.622 131.624H282.455C283.954 131.624 285.391 132.219 286.451 133.279C287.51 134.339 288.106 135.776 288.106 137.275V147.108C288.106 148.605 287.511 150.04 286.453 151.099C285.394 152.157 283.958 152.752 282.462 152.752H272.622C271.125 152.752 269.689 152.157 268.631 151.099C267.572 150.04 266.978 148.605 266.978 147.108V137.275C266.978 135.778 267.572 134.342 268.631 133.284C269.689 132.225 271.125 131.631 272.622 131.631V131.624Z" fill="#EBEBEB"/>
<path d="M277.102 143.332C277.42 142.891 277.788 142.489 278.198 142.134C278.48 141.885 278.74 141.614 278.976 141.322C279.138 141.11 279.223 140.85 279.22 140.584C279.227 140.401 279.187 140.219 279.104 140.056C279.021 139.892 278.898 139.753 278.746 139.65C278.377 139.403 277.938 139.282 277.494 139.305C277.041 139.292 276.591 139.392 276.187 139.598C275.782 139.804 275.436 140.108 275.18 140.483L273.244 139.352C273.691 138.667 274.319 138.119 275.058 137.769C275.905 137.377 276.831 137.184 277.765 137.207C278.806 137.157 279.837 137.431 280.716 137.992C281.069 138.23 281.357 138.555 281.551 138.935C281.745 139.315 281.84 139.738 281.825 140.164C281.833 140.559 281.76 140.95 281.609 141.315C281.481 141.622 281.303 141.906 281.081 142.154C280.828 142.433 280.559 142.697 280.276 142.946C279.962 143.216 279.672 143.513 279.409 143.832C279.228 144.087 279.133 144.393 279.139 144.705H276.729C276.708 144.22 276.839 143.74 277.102 143.332ZM276.845 148.292C276.703 148.161 276.592 148.002 276.517 147.825C276.442 147.647 276.406 147.456 276.411 147.263C276.407 147.074 276.443 146.886 276.517 146.711C276.59 146.536 276.7 146.378 276.838 146.248C277.145 145.986 277.536 145.841 277.941 145.841C278.345 145.841 278.736 145.986 279.044 146.248C279.183 146.378 279.294 146.535 279.369 146.71C279.443 146.885 279.48 147.073 279.477 147.263C279.481 147.456 279.444 147.648 279.368 147.825C279.293 148.003 279.18 148.162 279.037 148.292C278.893 148.433 278.721 148.544 278.532 148.617C278.344 148.69 278.143 148.725 277.941 148.718C277.739 148.723 277.538 148.688 277.35 148.615C277.162 148.542 276.99 148.432 276.845 148.292Z" fill="#FAFAFA"/>
<path d="M80.0673 79.1152H67.358C63.3289 79.1152 60.0627 82.3815 60.0627 86.4105V99.1198C60.0627 103.149 63.3289 106.415 67.358 106.415H80.0673C84.0964 106.415 87.3626 103.149 87.3626 99.1198V86.4105C87.3626 82.3815 84.0964 79.1152 80.0673 79.1152Z" fill="#EBEBEB"/>
<path d="M73.7126 85.0706C72.9016 85.0706 72.0984 85.2304 71.3492 85.541C70.5999 85.8516 69.9192 86.3068 69.346 86.8807C68.7728 87.4545 68.3183 88.1357 68.0086 88.8853C67.6988 89.6349 67.5398 90.4382 67.5407 91.2492C67.5407 94.633 70.3018 102.835 73.7126 102.835C77.1234 102.835 79.8845 94.6533 79.8845 91.2492C79.8854 90.4382 79.7264 89.6349 79.4167 88.8853C79.1069 88.1357 78.6524 87.4545 78.0792 86.8807C77.506 86.3068 76.8253 85.8516 76.0761 85.541C75.3268 85.2304 74.5237 85.0706 73.7126 85.0706ZM73.7126 93.1103C73.3446 93.1103 72.9847 93.0011 72.6787 92.7966C72.3726 92.5921 72.1341 92.3015 71.9932 91.9614C71.8524 91.6214 71.8155 91.2472 71.8873 90.8862C71.9592 90.5252 72.1364 90.1936 72.3967 89.9333C72.6569 89.673 72.9886 89.4958 73.3496 89.424C73.7106 89.3521 74.0848 89.389 74.4248 89.5299C74.7649 89.6707 75.0555 89.9093 75.26 90.2153C75.4645 90.5213 75.5737 90.8812 75.5737 91.2492C75.5666 91.7381 75.3674 92.2046 75.0191 92.5477C74.6709 92.8909 74.2016 93.0833 73.7126 93.0832V93.1103Z" fill="#FAFAFA"/>
<path d="M76.44 130.034C76.6386 128.78 76.6386 127.504 76.44 126.251L74.5383 126C74.3849 125.301 74.1581 124.621 73.8616 123.97L75.2557 122.65C74.676 121.522 73.925 120.49 73.0292 119.591L71.3373 120.512C70.8143 120.038 70.2427 119.62 69.6319 119.267L69.9838 117.378C68.8599 116.8 67.6517 116.403 66.4039 116.201L65.585 117.927C65.2399 117.893 64.9083 117.872 64.5293 117.872C64.1503 117.872 63.8119 117.872 63.4668 117.927L62.6479 116.201C61.3935 116.399 60.1784 116.794 59.0476 117.372L59.3995 119.26C58.7888 119.614 58.2172 120.031 57.6942 120.505L56.0023 119.585C55.1065 120.483 54.3554 121.515 53.7758 122.644L55.1699 123.963C54.8734 124.614 54.6466 125.295 54.4931 125.993L52.5983 126.244C52.3908 127.496 52.3908 128.774 52.5983 130.027L54.4931 130.277C54.6466 130.976 54.8734 131.656 55.1699 132.307L53.7758 133.627C54.3541 134.756 55.1053 135.789 56.0023 136.686L57.6942 135.766C58.2172 136.24 58.7888 136.657 59.3995 137.011L59.0476 138.899C60.1784 139.477 61.3935 139.872 62.6479 140.07L63.4668 138.344C63.8119 138.378 64.1435 138.398 64.5293 138.398C64.915 138.398 65.206 138.398 65.585 138.344L66.4039 140.07C67.6583 139.872 68.8734 139.477 70.0041 138.899L69.6522 137.011C70.263 136.657 70.8346 136.24 71.3576 135.766L73.0495 136.686C73.9453 135.788 74.6963 134.756 75.276 133.627L73.9022 132.294C74.1978 131.643 74.4247 130.962 74.5789 130.264L76.44 130.034ZM64.5293 132.355C63.6948 132.356 62.8788 132.11 62.1844 131.647C61.49 131.184 60.9486 130.526 60.6286 129.755C60.3087 128.985 60.2246 128.136 60.3871 127.318C60.5495 126.499 60.9512 125.748 61.5413 125.157C62.1313 124.567 62.8832 124.166 63.7016 124.003C64.5201 123.841 65.3684 123.925 66.1391 124.245C66.9097 124.565 67.5682 125.106 68.0309 125.801C68.4937 126.495 68.74 127.311 68.7386 128.145C68.7368 129.261 68.2928 130.331 67.5038 131.12C66.7147 131.909 65.6451 132.353 64.5293 132.355Z" fill="#EBEBEB"/>
<path d="M82.5443 143.65C82.5928 143.336 82.6177 143.02 82.6187 142.702C82.6182 142.385 82.5934 142.068 82.5443 141.755L81.59 141.633C81.5177 141.286 81.4088 140.948 81.2652 140.625L81.9419 139.948C81.6524 139.381 81.2756 138.862 80.8253 138.412L79.9794 138.872C79.7166 138.637 79.4309 138.428 79.1267 138.249L79.3026 137.309C78.7377 137.018 78.13 136.819 77.5025 136.72L77.0965 137.586C76.9205 137.586 76.7445 137.586 76.5686 137.586C76.3926 137.586 76.2099 137.586 76.034 137.586L75.6279 136.72C75.0004 136.819 74.3928 137.018 73.8278 137.309L74.0037 138.249C73.6995 138.428 73.4139 138.637 73.151 138.872L72.3051 138.412C71.8549 138.862 71.4781 139.381 71.1885 139.948L71.8652 140.625C71.7216 140.948 71.6128 141.286 71.5404 141.633L70.5929 141.755C70.5404 142.068 70.5155 142.385 70.5185 142.702C70.5161 143.02 70.541 143.337 70.5929 143.65L71.5404 143.772C71.6128 144.116 71.7217 144.452 71.8652 144.773L71.1885 145.45C71.4787 146.015 71.8554 146.531 72.3051 146.979L73.151 146.519C73.4104 146.759 73.6965 146.968 74.0037 147.142L73.8278 148.083C74.3928 148.373 75.0004 148.572 75.6279 148.671L76.034 147.805C76.3872 147.841 76.7432 147.841 77.0965 147.805L77.5025 148.671C78.13 148.572 78.7377 148.373 79.3026 148.083L79.1267 147.142C79.4339 146.968 79.72 146.759 79.9794 146.519L80.8253 146.979C81.275 146.531 81.6518 146.015 81.9419 145.45L81.2652 144.773C81.4088 144.452 81.5177 144.116 81.59 143.772L82.5443 143.65ZM76.5889 144.807C76.1726 144.807 75.7657 144.684 75.4196 144.452C75.0735 144.221 74.8037 143.892 74.6444 143.508C74.4851 143.123 74.4434 142.7 74.5247 142.292C74.6059 141.884 74.8063 141.509 75.1007 141.214C75.395 140.92 75.77 140.719 76.1783 140.638C76.5866 140.557 77.0097 140.599 77.3943 140.758C77.7789 140.917 78.1076 141.187 78.3389 141.533C78.5701 141.879 78.6936 142.286 78.6936 142.702C78.6918 143.257 78.4723 143.788 78.0824 144.182C77.6924 144.575 77.1633 144.8 76.6092 144.807H76.5889Z" fill="#E0E0E0"/>
<path d="M291.638 129.993C291.894 129.804 292.135 129.599 292.362 129.377C292.586 129.152 292.792 128.91 292.978 128.653L292.396 127.895C292.588 127.6 292.747 127.284 292.87 126.954H293.831C294.028 126.351 294.128 125.721 294.129 125.086L293.201 124.816C293.188 124.463 293.133 124.113 293.039 123.773L293.831 123.232C293.639 122.627 293.349 122.057 292.971 121.547L292.071 121.865C291.961 121.728 291.844 121.597 291.719 121.472C291.591 121.344 291.462 121.229 291.327 121.114L291.645 120.214C291.131 119.843 290.562 119.553 289.96 119.354L289.418 120.146C289.075 120.058 288.724 120.004 288.369 119.984L288.099 119.063C287.464 119.061 286.833 119.162 286.231 119.361V120.315C285.902 120.443 285.586 120.604 285.29 120.796L284.526 120.214C284.007 120.592 283.551 121.049 283.172 121.567L283.754 122.325C283.563 122.624 283.402 122.942 283.274 123.273H282.319C282.123 123.876 282.023 124.506 282.022 125.14L282.942 125.411C282.962 125.763 283.016 126.112 283.104 126.453L282.313 127.001C282.511 127.604 282.801 128.172 283.172 128.687L284.072 128.362C284.187 128.497 284.302 128.632 284.431 128.761C284.559 128.89 284.688 129.005 284.823 129.113L284.505 130.013C285.016 130.391 285.585 130.681 286.19 130.872L286.732 130.081C287.072 130.175 287.421 130.229 287.774 130.243L288.045 131.17C288.681 131.17 289.314 131.069 289.919 130.872V129.911C290.248 129.786 290.564 129.628 290.86 129.438L291.638 129.993ZM286.61 126.609C286.316 126.315 286.115 125.94 286.034 125.531C285.953 125.123 285.995 124.7 286.154 124.316C286.314 123.931 286.584 123.602 286.93 123.371C287.276 123.14 287.683 123.017 288.099 123.017C288.515 123.017 288.922 123.14 289.268 123.371C289.614 123.602 289.884 123.931 290.043 124.316C290.202 124.7 290.244 125.123 290.163 125.531C290.082 125.94 289.882 126.315 289.588 126.609C289.392 126.805 289.16 126.96 288.904 127.066C288.648 127.172 288.374 127.226 288.097 127.225C287.821 127.225 287.547 127.169 287.291 127.062C287.036 126.956 286.804 126.799 286.61 126.602V126.609Z" fill="#F0F0F0"/>
<path d="M170 250C242.468 250 301.214 246.57 301.214 242.339C301.214 238.108 242.468 234.678 170 234.678C97.5325 234.678 38.7859 238.108 38.7859 242.339C38.7859 246.57 97.5325 250 170 250Z" fill="#F5F5F5"/>
<path d="M194.065 40.2431V29.6994L199.249 28.9685V39.5122L194.065 40.2431Z" fill="#263238"/>
<path d="M176.828 46.1173L172.944 39.9318L176.253 37.5632L180.131 43.7419L176.828 46.1173Z" fill="#263238"/>
<path d="M213.176 39.0927L217.061 31.8245L220.363 33.2659L216.486 40.5409L213.176 39.0927Z" fill="#263238"/>
<g opacity="0.5">
<path d="M194.065 40.2431V29.6994L199.249 28.9685V39.5122L194.065 40.2431Z" fill="white"/>
<path d="M176.828 46.1173L172.944 39.9318L176.253 37.5632L180.131 43.7419L176.828 46.1173Z" fill="white"/>
<path d="M213.176 39.0927L217.061 31.8245L220.363 33.2659L216.486 40.5409L213.176 39.0927Z" fill="white"/>
</g>
<path d="M199.986 30.6673L193.327 31.6079C193.086 31.6526 192.837 31.6425 192.6 31.5783C192.362 31.5142 192.142 31.3976 191.956 31.2372C191.77 31.0769 191.622 30.8768 191.523 30.6516C191.424 30.4265 191.377 30.1821 191.385 29.9364C191.4 29.399 191.603 28.8839 191.957 28.4799C192.312 28.0759 192.797 27.8083 193.327 27.7234L199.986 26.7895C200.228 26.745 200.476 26.755 200.713 26.8188C200.949 26.8826 201.169 26.9985 201.355 27.1581C201.541 27.3177 201.69 27.517 201.789 27.7412C201.888 27.9655 201.936 28.2092 201.929 28.4543C201.912 28.9913 201.709 29.5057 201.355 29.9095C201.001 30.3132 200.517 30.5811 199.986 30.6673Z" fill="#263238"/>
<path d="M177.329 37.3945L172.396 40.9406C172.293 41.0264 172.174 41.0901 172.046 41.1279C171.917 41.1656 171.783 41.1766 171.65 41.1601C171.517 41.1436 171.39 41.1 171.275 41.0319C171.159 40.9639 171.06 40.8729 170.981 40.7647C170.851 40.5165 170.818 40.2287 170.888 39.9574C170.958 39.686 171.126 39.4503 171.36 39.2961L176.3 35.7567C176.402 35.6702 176.52 35.6057 176.648 35.5674C176.776 35.5292 176.911 35.518 177.043 35.5345C177.175 35.5511 177.303 35.595 177.417 35.6636C177.532 35.7321 177.631 35.8238 177.708 35.9327C177.838 36.1799 177.871 36.4665 177.801 36.7368C177.731 37.007 177.563 37.2415 177.329 37.3945Z" fill="#263238"/>
<path d="M220.918 34.119L215.978 31.9669C215.86 31.9071 215.756 31.8234 215.672 31.7213C215.588 31.6191 215.527 31.5007 215.491 31.3734C215.456 31.2462 215.447 31.1129 215.465 30.9821C215.484 30.8513 215.529 30.7257 215.599 30.6134C215.722 30.3601 215.935 30.1614 216.196 30.0552C216.457 29.9491 216.748 29.943 217.013 30.0382L221.947 32.197C222.066 32.2552 222.172 32.3381 222.257 32.4401C222.342 32.542 222.404 32.6609 222.44 32.7887C222.476 32.9166 222.484 33.0505 222.464 33.1818C222.445 33.3131 222.398 33.4388 222.326 33.5505C222.202 33.802 221.991 33.9992 221.731 34.1041C221.471 34.209 221.182 34.2143 220.918 34.119Z" fill="#263238"/>
<path opacity="0.7" d="M199.986 30.6673L193.327 31.6079C193.086 31.6526 192.837 31.6425 192.6 31.5783C192.362 31.5142 192.142 31.3976 191.956 31.2372C191.77 31.0769 191.622 30.8768 191.523 30.6516C191.424 30.4265 191.377 30.1821 191.385 29.9364C191.4 29.399 191.603 28.8839 191.957 28.4799C192.312 28.0759 192.797 27.8083 193.327 27.7234L199.986 26.7895C200.228 26.745 200.476 26.755 200.713 26.8188C200.949 26.8826 201.169 26.9985 201.355 27.1581C201.541 27.3177 201.69 27.517 201.789 27.7412C201.888 27.9655 201.936 28.2092 201.929 28.4543C201.912 28.9913 201.709 29.5057 201.355 29.9095C201.001 30.3132 200.517 30.5811 199.986 30.6673Z" fill="white"/>
<path opacity="0.7" d="M177.329 37.3945L172.396 40.9406C172.293 41.0264 172.174 41.0901 172.046 41.1279C171.917 41.1656 171.783 41.1766 171.65 41.1601C171.517 41.1436 171.39 41.1 171.275 41.0319C171.159 40.9639 171.06 40.8729 170.981 40.7647C170.851 40.5165 170.818 40.2287 170.888 39.9574C170.958 39.686 171.126 39.4503 171.36 39.2961L176.3 35.7567C176.402 35.6702 176.52 35.6057 176.648 35.5674C176.776 35.5292 176.911 35.518 177.043 35.5345C177.175 35.5511 177.303 35.595 177.417 35.6636C177.532 35.7321 177.631 35.8238 177.708 35.9327C177.838 36.1799 177.871 36.4665 177.801 36.7368C177.731 37.007 177.563 37.2415 177.329 37.3945Z" fill="white"/>
<path opacity="0.7" d="M220.918 34.119L215.978 31.9669C215.86 31.9071 215.756 31.8234 215.672 31.7213C215.588 31.6191 215.527 31.5007 215.491 31.3734C215.456 31.2462 215.447 31.1129 215.465 30.9821C215.484 30.8513 215.529 30.7257 215.599 30.6134C215.722 30.3601 215.935 30.1614 216.196 30.0552C216.457 29.9491 216.748 29.943 217.013 30.0382L221.947 32.197C222.066 32.2552 222.172 32.3381 222.257 32.4401C222.342 32.542 222.404 32.6609 222.44 32.7887C222.476 32.9166 222.484 33.0505 222.464 33.1818C222.445 33.3131 222.398 33.4388 222.326 33.5505C222.202 33.802 221.991 33.9992 221.731 34.1041C221.471 34.209 221.182 34.2143 220.918 34.119Z" fill="white"/>
<path d="M196.657 106.253C178.635 108.784 164.024 96.2304 164.024 78.2086C164.024 60.1869 178.635 43.5187 196.657 40.9877C214.679 38.4566 229.29 51.0103 229.29 69.032L233.743 68.4094C233.743 47.9243 217.135 33.6585 196.657 36.5347C176.179 39.4108 159.571 58.3529 159.571 78.8312C159.571 99.3096 176.172 113.582 196.657 110.706V106.253Z" fill="#FFDFBA"/>
<path d="M183.691 96.7355L181.256 101.296L182.211 101.806L184.646 97.2455L183.691 96.7355Z" fill="#263238"/>
<path d="M211.09 45.4281L208.655 49.989L209.61 50.499L212.046 45.9381L211.09 45.4281Z" fill="#263238"/>
<path d="M171.026 61.826L170.593 62.8184L174.81 64.66L175.244 63.6677L171.026 61.826Z" fill="#263238"/>
<path d="M182.617 50.2455L181.696 50.8193L184.125 54.7137L185.045 54.1398L182.617 50.2455Z" fill="#263238"/>
<path d="M174.723 88.7152L170.5 91.7451L171.131 92.6249L175.354 89.5949L174.723 88.7152Z" fill="#263238"/>
<path d="M222.18 54.6348L217.957 57.6648L218.588 58.5446L222.811 55.5146L222.18 54.6348Z" fill="#263238"/>
<path d="M173.168 75.8283L166.674 76.741L166.975 78.8855L173.469 77.9728L173.168 75.8283Z" fill="#263238"/>
<path d="M197.74 43.7896H195.574V50.2863H197.74V43.7896Z" fill="#263238"/>
<path d="M197.74 96.9546H195.574V103.451H197.74V96.9546Z" fill="#263238"/>
<path d="M188.272 66.5821C188.02 66.8357 187.879 67.1788 187.879 67.5363C187.879 67.8939 188.02 68.2369 188.272 68.4905L195.54 74.7301L197.442 72.5578L190.181 66.3114C190.038 66.2027 189.875 66.1233 189.702 66.078C189.528 66.0328 189.347 66.0224 189.17 66.0476C188.992 66.0728 188.821 66.133 188.667 66.2248C188.513 66.3165 188.379 66.438 188.272 66.5821Z" fill="#FFDFBA"/>
<path opacity="0.4" d="M188.272 66.5821C188.02 66.8357 187.879 67.1788 187.879 67.5363C187.879 67.8939 188.02 68.2369 188.272 68.4905L195.54 74.7301L197.442 72.5578L190.181 66.3114C190.038 66.2027 189.875 66.1233 189.702 66.078C189.528 66.0328 189.347 66.0224 189.17 66.0476C188.992 66.0728 188.821 66.133 188.667 66.2248C188.513 66.3165 188.379 66.438 188.272 66.5821Z" fill="white"/>
<path d="M236.917 67.4214L231.496 74.6829L226.082 68.9441L236.917 67.4214Z" fill="#FFDFBA"/>
<path d="M209.021 59.3139C208.878 59.2051 208.716 59.1258 208.542 59.0805C208.369 59.0352 208.188 59.0248 208.01 59.05C207.833 59.0752 207.662 59.1354 207.508 59.2272C207.354 59.319 207.219 59.4404 207.113 59.5846L197.273 70.805C196.746 70.7386 196.21 70.8046 195.715 70.9973C195.22 71.1899 194.781 71.5029 194.437 71.9081C193.327 73.1804 193.327 74.9873 194.437 75.9686C195.547 76.9499 197.361 76.6453 198.498 75.4001C198.848 75.0096 199.094 74.5367 199.212 74.0255C199.331 73.5142 199.318 72.9814 199.174 72.4766L209.014 61.2494C209.144 61.1238 209.247 60.9736 209.317 60.8076C209.388 60.6417 209.424 60.4633 209.425 60.283C209.425 60.1027 209.39 59.9241 209.321 59.7577C209.251 59.5913 209.149 59.4404 209.021 59.3139Z" fill="#FFDFBA"/>
<path d="M210.801 100.135L219.26 98.9436L218.509 102.848L203.262 104.994L203.871 101.887L213.048 93.4079C213.911 92.6275 214.687 91.7562 215.362 90.8091C215.782 90.2136 216.018 89.5075 216.039 88.7789C216.057 88.4838 215.996 88.1893 215.863 87.9254C215.73 87.6615 215.529 87.4376 215.281 87.2765C214.606 86.9199 213.826 86.8166 213.082 86.9855C212.249 87.1039 211.453 87.4018 210.747 87.8585C209.986 88.339 209.322 88.959 208.791 89.6858L205.658 87.8518C206.534 86.5558 207.69 85.4733 209.041 84.6846C210.491 83.8168 212.103 83.2548 213.779 83.0334C215.008 82.8273 216.268 82.8849 217.474 83.2025C218.443 83.4539 219.308 84.0059 219.944 84.7794C220.538 85.5415 220.849 86.4864 220.824 87.4525C220.811 88.7413 220.454 90.0033 219.788 91.1069C218.795 92.6484 217.584 94.0388 216.195 95.2351L210.801 100.135Z" fill="#263238"/>
<path d="M239.42 95.6819L236.118 96.1489L235.279 100.494L230.738 101.13L231.584 96.7783L220.756 98.3077L221.358 95.0864L233.208 80.6447L238.304 79.9341L227.252 93.5976L232.551 92.8531L233.296 88.9754L237.641 88.3663L236.889 92.2373L240.199 91.7771L239.42 95.6819Z" fill="#263238"/>
<path d="M252.712 73.8231L256.914 73.2275L242.127 102.409L237.959 102.991L252.712 73.8231Z" fill="#263238"/>
<path d="M271.897 75.2104L271.295 78.3167L260.535 96.9407L255.358 97.6716L265.685 79.88L259.154 80.8004L258.478 84.1841L254.336 84.7661L255.744 77.4911L271.897 75.2104Z" fill="#263238"/>
<path d="M133.774 61.0261C126.54 61.0261 120.679 65.2964 120.679 70.5615C120.679 74.3851 123.785 77.6808 128.258 79.1967C127.779 81.3926 126.954 83.4986 125.815 85.4363C127.439 85.1948 128.986 84.5874 130.34 83.66C131.694 82.7326 132.82 81.5096 133.632 80.0833H133.774C141.008 80.0833 146.869 75.8198 146.869 70.5547C146.869 65.2896 141.008 61.0261 133.774 61.0261Z" fill="#FFDFBA"/>
<path opacity="0.7" d="M133.774 61.0261C126.54 61.0261 120.679 65.2964 120.679 70.5615C120.679 74.3851 123.785 77.6808 128.258 79.1967C127.779 81.3926 126.954 83.4986 125.815 85.4363C127.439 85.1948 128.986 84.5874 130.34 83.66C131.694 82.7326 132.82 81.5096 133.632 80.0833H133.774C141.008 80.0833 146.869 75.8198 146.869 70.5547C146.869 65.2896 141.008 61.0261 133.774 61.0261Z" fill="white"/>
<path d="M128.001 72.3956C128.738 72.3956 129.335 71.7987 129.335 71.0624C129.335 70.3261 128.738 69.7292 128.001 69.7292C127.265 69.7292 126.668 70.3261 126.668 71.0624C126.668 71.7987 127.265 72.3956 128.001 72.3956Z" fill="#263238"/>
<path d="M135.019 71.0622C135.019 71.3299 134.94 71.5916 134.791 71.8142C134.642 72.0368 134.431 72.2103 134.184 72.3127C133.936 72.4151 133.664 72.4419 133.402 72.3897C133.139 72.3375 132.898 72.2086 132.709 72.0193C132.519 71.83 132.39 71.5888 132.338 71.3263C132.286 71.0637 132.313 70.7916 132.415 70.5443C132.518 70.297 132.691 70.0856 132.914 69.9368C133.136 69.7881 133.398 69.7087 133.666 69.7087C134.025 69.7087 134.369 69.8513 134.623 70.1052C134.877 70.359 135.019 70.7033 135.019 71.0622Z" fill="#263238"/>
<path d="M139.371 72.3956C140.107 72.3956 140.704 71.7987 140.704 71.0624C140.704 70.3261 140.107 69.7292 139.371 69.7292C138.634 69.7292 138.037 70.3261 138.037 71.0624C138.037 71.7987 138.634 72.3956 139.371 72.3956Z" fill="#263238"/>
<path d="M252.563 206.918C252.563 206.918 252.651 197.884 249.362 199.075C246.073 200.266 252.563 206.918 252.563 206.918Z" fill="#FFDFBA"/>
<path d="M256.095 198.554C256.095 198.554 260.454 191.326 256.515 190.291C252.576 189.256 256.095 198.554 256.095 198.554Z" fill="#FFDFBA"/>
<path d="M273.319 193.451C273.319 193.451 282.367 192.984 280.323 189.594C278.279 186.203 273.319 193.451 273.319 193.451Z" fill="#FFDFBA"/>
<path d="M259.006 195.854C259.006 195.854 268.48 193.715 266.707 199.034C264.934 204.353 259.006 195.854 259.006 195.854Z" fill="#FFDFBA"/>
<path d="M252.123 215.087C252.123 215.087 248.502 206.885 246.472 209.801C244.442 212.718 252.123 215.087 252.123 215.087Z" fill="#FFDFBA"/>
<path d="M262.45 194.148C262.45 194.148 272.101 191.617 269.096 188.058C266.091 184.498 262.45 194.148 262.45 194.148Z" fill="#FFDFBA"/>
<path d="M269.746 193.154C269.746 193.154 277.379 196.903 273.86 199.353C270.341 201.802 269.746 193.154 269.746 193.154Z" fill="#FFDFBA"/>
<path d="M253.517 203.285C253.517 203.285 258.803 196.923 260.433 201.545C262.064 206.167 253.517 203.285 253.517 203.285Z" fill="#FFDFBA"/>
<g opacity="0.4">
<path d="M252.123 215.087C252.123 215.087 248.502 206.885 246.472 209.801C244.442 212.718 252.123 215.087 252.123 215.087Z" fill="white"/>
<path d="M262.45 194.148C262.45 194.148 272.1 191.617 269.096 188.058C266.091 184.498 262.45 194.148 262.45 194.148Z" fill="white"/>
<path d="M269.745 193.154C269.745 193.154 277.379 196.903 273.86 199.353C270.341 201.802 269.745 193.154 269.745 193.154Z" fill="white"/>
<path d="M253.517 203.284C253.517 203.284 258.802 196.923 260.433 201.545C262.064 206.167 253.517 203.284 253.517 203.284Z" fill="white"/>
</g>
<path d="M252.069 211.541C252.069 211.541 255.859 203.42 258.911 207.514C261.963 211.608 252.069 211.541 252.069 211.541Z" fill="#FFDFBA"/>
<path d="M252.13 220.081C250.981 214.789 251.146 209.296 252.61 204.083C255.71 193.932 265.218 191.543 274.828 193.079C275.592 193.201 275.254 194.351 274.496 194.229C269.393 193.417 263.668 193.336 259.222 196.422C256.041 198.649 254.241 202.188 253.375 205.897C252.359 210.469 252.334 215.207 253.3 219.79C253.456 220.548 252.292 220.846 252.13 220.088V220.081Z" fill="#FFDFBA"/>
<g opacity="0.3">
<path d="M252.13 220.081C250.981 214.789 251.146 209.296 252.61 204.083C255.71 193.932 265.218 191.543 274.828 193.079C275.592 193.201 275.254 194.351 274.496 194.229C269.393 193.417 263.668 193.336 259.222 196.422C256.041 198.649 254.241 202.188 253.375 205.897C252.359 210.469 252.334 215.207 253.3 219.79C253.456 220.548 252.292 220.846 252.13 220.088V220.081Z" fill="black"/>
</g>
<path d="M244.598 204.178C244.598 204.178 239.86 193.133 236.788 196.016C233.716 198.899 244.598 204.178 244.598 204.178Z" fill="#FFDFBA"/>
<path d="M244.192 192.429C244.192 192.429 245.315 181.73 240.28 182.19C235.245 182.65 244.192 192.429 244.192 192.429Z" fill="#FFDFBA"/>
<path d="M261.103 178.705C261.103 178.705 271.153 174.191 267.025 170.956C262.897 167.721 261.103 178.705 261.103 178.705Z" fill="#FFDFBA"/>
<path d="M246.073 187.875C246.073 187.875 255.744 181.107 256.535 188.389C257.327 195.671 246.073 187.875 246.073 187.875Z" fill="#FFDFBA"/>
<path d="M248.455 214.288C248.455 214.288 239.935 205.91 239.17 210.336C238.405 214.762 248.455 214.288 248.455 214.288Z" fill="#FFDFBA"/>
<path d="M249.084 184.295C249.084 184.295 258.735 176.999 253.416 173.974C248.096 170.949 249.084 184.295 249.084 184.295Z" fill="#FFDFBA"/>
<path d="M256.874 179.903C256.874 179.903 267.56 181.141 264.846 185.655C262.132 190.169 256.874 179.903 256.874 179.903Z" fill="#FFDFBA"/>
<path d="M243.765 199.312C243.765 199.312 246.405 189.262 250.722 194.182C255.04 199.102 243.765 199.312 243.765 199.312Z" fill="#FFDFBA"/>
<g opacity="0.4">
<path d="M248.455 214.288C248.455 214.288 239.935 205.91 239.17 210.336C238.405 214.762 248.455 214.288 248.455 214.288Z" fill="white"/>
<path d="M249.084 184.295C249.084 184.295 258.735 176.999 253.416 173.974C248.096 170.949 249.084 184.295 249.084 184.295Z" fill="white"/>
<path d="M256.874 179.903C256.874 179.903 267.56 181.141 264.846 185.655C262.132 190.169 256.874 179.903 256.874 179.903Z" fill="white"/>
<path d="M243.765 199.312C243.765 199.312 246.405 189.262 250.722 194.182C255.04 199.102 243.765 199.312 243.765 199.312Z" fill="white"/>
</g>
<path d="M246.513 209.997C246.513 209.997 246.513 198.445 252.157 202.107C257.801 205.768 246.513 209.997 246.513 209.997Z" fill="#FFDFBA"/>
<path d="M251.108 220.365C247.142 214.565 244.083 207.507 243.163 200.685C241.309 186.988 250.851 179.916 262.619 177.588C263.553 177.405 263.777 178.942 262.856 179.145C256.61 180.376 249.998 182.792 246.614 188.477C244.171 192.571 243.995 197.667 244.977 202.553C246.282 208.614 248.761 214.362 252.272 219.472C252.329 219.549 252.37 219.637 252.393 219.73C252.416 219.823 252.42 219.92 252.406 220.015C252.391 220.11 252.358 220.201 252.309 220.283C252.259 220.365 252.194 220.437 252.116 220.494C252.039 220.551 251.951 220.592 251.858 220.615C251.765 220.638 251.668 220.642 251.573 220.628C251.478 220.613 251.387 220.58 251.305 220.53C251.223 220.481 251.151 220.415 251.094 220.338L251.108 220.365Z" fill="#FFDFBA"/>
<g opacity="0.3">
<path d="M251.108 220.365C247.142 214.565 244.083 207.507 243.163 200.685C241.309 186.988 250.851 179.916 262.619 177.588C263.553 177.405 263.777 178.942 262.856 179.145C256.61 180.376 249.998 182.792 246.614 188.477C244.171 192.571 243.995 197.667 244.977 202.553C246.282 208.614 248.761 214.362 252.272 219.472C252.329 219.549 252.37 219.637 252.393 219.73C252.416 219.823 252.42 219.92 252.406 220.015C252.391 220.11 252.358 220.201 252.309 220.283C252.259 220.365 252.194 220.437 252.116 220.494C252.039 220.551 251.951 220.592 251.858 220.615C251.765 220.638 251.668 220.642 251.573 220.628C251.478 220.613 251.387 220.58 251.305 220.53C251.223 220.481 251.151 220.415 251.094 220.338L251.108 220.365Z" fill="black"/>
</g>
<path d="M243.474 207.081C243.474 207.081 245.721 199.589 248.13 201.417C250.539 203.244 243.474 207.081 243.474 207.081Z" fill="#FFDFBA"/>
<path d="M242.689 199.257C242.689 199.257 240.95 192.158 244.469 192.321C247.988 192.483 242.689 199.257 242.689 199.257Z" fill="#FFDFBA"/>
<path d="M229.77 190.643C229.77 190.643 222.414 187.936 224.979 185.655C227.544 183.374 229.77 190.643 229.77 190.643Z" fill="#FFDFBA"/>
<path d="M240.984 196.273C240.984 196.273 233.688 192.071 233.803 196.95C233.919 201.829 240.984 196.273 240.984 196.273Z" fill="#FFDFBA"/>
<path d="M241.735 213.936C241.735 213.936 246.865 208.109 247.792 211.033C248.719 213.956 241.735 213.936 241.735 213.936Z" fill="#FFDFBA"/>
<path d="M238.574 193.979C238.574 193.979 231.252 189.404 234.649 187.212C238.047 185.019 238.574 193.979 238.574 193.979Z" fill="#FFDFBA"/>
<path d="M232.795 191.32C232.795 191.32 225.527 192.457 227.808 195.38C230.088 198.304 232.795 191.32 232.795 191.32Z" fill="#FFDFBA"/>
<path d="M243.61 203.826C243.61 203.826 240.903 197.207 238.338 200.611C235.773 204.015 243.61 203.826 243.61 203.826Z" fill="#FFDFBA"/>
<g opacity="0.4">
<path d="M241.735 213.936C241.735 213.936 246.865 208.11 247.792 211.033C248.719 213.957 241.735 213.936 241.735 213.936Z" fill="white"/>
<path d="M238.574 193.979C238.574 193.979 231.252 189.404 234.649 187.212C238.047 185.019 238.574 193.979 238.574 193.979Z" fill="white"/>
<path d="M232.795 191.32C232.795 191.32 225.527 192.457 227.807 195.38C230.088 198.304 232.795 191.32 232.795 191.32Z" fill="white"/>
<path d="M243.609 203.826C243.609 203.826 240.903 197.207 238.338 200.611C235.773 204.015 243.609 203.826 243.609 203.826Z" fill="white"/>
</g>
<path d="M242.676 211.02C242.676 211.02 241.64 203.325 238.06 205.93C234.48 208.536 242.676 211.02 242.676 211.02Z" fill="#FFDFBA"/>
<path d="M240.436 218.058C242.746 213.982 244.019 209.402 244.144 204.719C244.192 195.542 236.957 191.116 228.62 189.912C227.943 189.817 227.943 190.859 228.62 190.954C233.046 191.59 237.817 192.984 240.672 196.693C242.703 199.346 243.312 202.736 243.075 206.018C242.738 210.06 241.541 213.983 239.563 217.523C239.238 218.105 240.124 218.653 240.456 218.064L240.436 218.058Z" fill="#FFDFBA"/>
<g opacity="0.3">
<path d="M240.436 218.058C242.746 213.982 244.019 209.402 244.144 204.719C244.192 195.542 236.957 191.116 228.62 189.912C227.943 189.817 227.943 190.859 228.62 190.954C233.046 191.59 237.817 192.984 240.672 196.693C242.703 199.346 243.312 202.736 243.075 206.018C242.738 210.06 241.541 213.983 239.563 217.523C239.238 218.105 240.124 218.653 240.456 218.064L240.436 218.058Z" fill="black"/>
</g>
<path d="M261.496 216.156L258.877 235.91C258.713 237.139 258.109 238.266 257.177 239.082C256.244 239.899 255.047 240.349 253.808 240.35H237.519C236.28 240.349 235.083 239.899 234.151 239.082C233.218 238.266 232.614 237.139 232.45 235.91L229.831 216.156H261.496Z" fill="#FFDFBA"/>
<path opacity="0.3" d="M261.496 216.156L258.877 235.91C258.713 237.139 258.109 238.266 257.177 239.082C256.244 239.899 255.047 240.349 253.808 240.35H237.519C236.28 240.349 235.083 239.899 234.151 239.082C233.218 238.266 232.614 237.139 232.45 235.91L229.831 216.156H261.496Z" fill="white"/>
<path d="M114.419 178.211H109.973V207.433H114.419V178.211Z" fill="#263238"/>
<path opacity="0.5" d="M114.419 178.211H109.973V207.433H114.419V178.211Z" fill="white"/>
<path d="M125.707 229.319L115.292 227.437V206.526C115.293 206.372 115.263 206.219 115.205 206.077C115.146 205.934 115.06 205.805 114.951 205.696C114.842 205.587 114.713 205.501 114.57 205.442C114.428 205.384 114.275 205.354 114.121 205.355H110.271C110.116 205.354 109.963 205.384 109.821 205.442C109.678 205.501 109.548 205.587 109.438 205.696C109.329 205.804 109.242 205.934 109.183 206.076C109.124 206.219 109.093 206.371 109.093 206.526V227.437L98.6847 229.319C97.954 229.449 97.2925 229.832 96.8161 230.401C96.3397 230.971 96.0789 231.689 96.0793 232.432L112.193 230.977L128.313 232.432C128.312 231.69 128.05 230.972 127.574 230.403C127.098 229.834 126.437 229.45 125.707 229.319Z" fill="#263238"/>
<path d="M99.463 235.592C99.463 236.261 99.2645 236.916 98.8927 237.472C98.5209 238.029 97.9924 238.462 97.3741 238.718C96.7558 238.974 96.0755 239.041 95.4191 238.911C94.7627 238.78 94.1598 238.458 93.6866 237.985C93.2133 237.512 92.8911 236.909 92.7605 236.252C92.63 235.596 92.697 234.916 92.9531 234.297C93.2092 233.679 93.6429 233.151 94.1993 232.779C94.7558 232.407 95.41 232.208 96.0792 232.208C96.9766 232.208 97.8373 232.565 98.4719 233.2C99.1064 233.834 99.463 234.695 99.463 235.592Z" fill="#FFDFBA"/>
<path d="M131.696 235.592C131.696 236.261 131.498 236.916 131.126 237.472C130.754 238.029 130.226 238.462 129.608 238.718C128.989 238.974 128.309 239.041 127.653 238.911C126.996 238.78 126.393 238.458 125.92 237.985C125.447 237.512 125.125 236.909 124.994 236.252C124.863 235.596 124.93 234.916 125.187 234.297C125.443 233.679 125.876 233.151 126.433 232.779C126.989 232.407 127.643 232.208 128.313 232.208C128.757 232.208 129.197 232.296 129.608 232.466C130.018 232.636 130.391 232.885 130.705 233.2C131.02 233.514 131.269 233.887 131.439 234.297C131.609 234.708 131.696 235.148 131.696 235.592Z" fill="#FFDFBA"/>
<path d="M114.839 235.592C114.839 237.46 114.067 238.976 112.193 238.976C110.318 238.976 109.553 237.46 109.553 235.592C109.553 233.724 110.325 232.208 112.193 232.208C114.06 232.208 114.839 233.724 114.839 235.592Z" fill="#FFDFBA"/>
<g opacity="0.5">
<path d="M115.393 227.451V231.268L116.652 231.383V227.681L115.393 227.451Z" fill="black"/>
<path d="M107.767 227.674V231.376L109.025 231.268V227.451L107.767 227.674Z" fill="black"/>
</g>
<path d="M83.167 151.594C82.8865 151.595 82.6094 151.657 82.3555 151.776C82.1016 151.895 81.8769 152.069 81.6974 152.284C81.518 152.5 81.3881 152.752 81.3169 153.024C81.2458 153.295 81.2351 153.579 81.2856 153.855L85.4138 176.099C85.6004 177.11 86.1351 178.024 86.925 178.681C87.715 179.339 88.7103 179.699 89.7382 179.7H154.794C155.177 179.7 155.557 179.624 155.911 179.477C156.266 179.33 156.588 179.115 156.859 178.843C157.129 178.571 157.344 178.249 157.49 177.894C157.637 177.54 157.711 177.16 157.71 176.776C157.71 175.676 157.273 174.621 156.495 173.843C155.717 173.065 154.662 172.628 153.562 172.628H116.443C115.459 172.628 114.503 172.299 113.728 171.693C112.953 171.087 112.403 170.239 112.166 169.285L108.843 155.872C108.541 154.651 107.839 153.567 106.849 152.792C105.859 152.017 104.638 151.595 103.381 151.594H83.167Z" fill="#263238"/>
<path d="M91.9511 169.285L88.6283 155.872C88.3261 154.651 87.6242 153.567 86.6345 152.792C85.6448 152.017 84.4241 151.595 83.167 151.594C82.8865 151.595 82.6094 151.657 82.3555 151.776C82.1016 151.895 81.8769 152.069 81.6974 152.284C81.518 152.5 81.3881 152.752 81.3169 153.024C81.2458 153.295 81.2351 153.579 81.2856 153.855L85.4138 176.099C85.6004 177.11 86.1351 178.024 86.925 178.681C87.715 179.339 88.7103 179.699 89.7382 179.7H134.573C134.957 179.701 135.337 179.626 135.692 179.479C136.047 179.332 136.37 179.117 136.642 178.845C136.913 178.574 137.129 178.251 137.275 177.896C137.422 177.541 137.497 177.16 137.496 176.776C137.494 175.676 137.057 174.622 136.279 173.845C135.501 173.067 134.447 172.63 133.348 172.628H96.2349C95.2496 172.631 94.2919 172.303 93.5151 171.697C92.7383 171.091 92.1876 170.241 91.9511 169.285Z" fill="#263238"/>
<path opacity="0.2" d="M91.9511 169.285L88.6283 155.872C88.3261 154.651 87.6242 153.567 86.6345 152.792C85.6448 152.017 84.4241 151.595 83.167 151.594C82.8865 151.595 82.6094 151.657 82.3555 151.776C82.1016 151.895 81.8769 152.069 81.6974 152.284C81.518 152.5 81.3881 152.752 81.3169 153.024C81.2458 153.295 81.2351 153.579 81.2856 153.855L85.4138 176.099C85.6004 177.11 86.1351 178.024 86.925 178.681C87.715 179.339 88.7103 179.699 89.7382 179.7H134.573C134.957 179.701 135.337 179.626 135.692 179.479C136.047 179.332 136.37 179.117 136.642 178.845C136.913 178.574 137.129 178.251 137.275 177.896C137.422 177.541 137.497 177.16 137.496 176.776C137.494 175.676 137.057 174.622 136.279 173.845C135.501 173.067 134.447 172.63 133.348 172.628H96.2349C95.2496 172.631 94.2919 172.303 93.5151 171.697C92.7383 171.091 92.1876 170.241 91.9511 169.285Z" fill="white"/>
<path d="M119.434 87.9465C119.434 87.9465 126.837 90.1527 123.379 95.6276L120.165 90.9445L119.434 87.9465Z" fill="#263238"/>
<path d="M146.104 116.167L149.332 111.429L152.527 112.445L153.109 113.73L149.129 119.422L146.104 116.167Z" fill="#DBB178"/>
<path d="M150.889 117.405C147.654 122.481 142.551 129.884 140.602 129.445C134.877 128.166 127.007 122.745 122.966 116.789C122.356 115.891 122.106 114.796 122.266 113.722C122.425 112.648 122.982 111.673 123.826 110.99V110.949C124.266 110.589 124.774 110.32 125.318 110.157C125.863 109.994 126.435 109.939 127 109.997C127.566 110.055 128.115 110.224 128.615 110.494C129.116 110.764 129.558 111.13 129.917 111.572C129.991 111.66 130.059 111.754 130.126 111.849C133.706 116.986 138.247 121.858 138.992 122.271C139.865 122.772 142.132 120.627 146.93 114.563L150.889 117.405Z" fill="#FFDFBA"/>
<path opacity="0.6" d="M150.889 117.405C147.654 122.481 142.551 129.884 140.602 129.445C134.877 128.166 127.007 122.745 122.966 116.789C122.356 115.891 122.106 114.796 122.266 113.722C122.425 112.648 122.982 111.673 123.826 110.99V110.949C124.266 110.589 124.774 110.32 125.318 110.157C125.863 109.994 126.435 109.939 127 109.997C127.566 110.055 128.115 110.224 128.615 110.494C129.116 110.764 129.558 111.13 129.917 111.572C129.991 111.66 130.059 111.754 130.126 111.849C133.706 116.986 138.247 121.858 138.992 122.271C139.865 122.772 142.132 120.627 146.93 114.563L150.889 117.405Z" fill="white"/>
<path d="M150.963 113.311L157.359 114.563L154.381 109.203C154.381 109.203 150.51 109.203 149.332 111.43L150.963 113.311Z" fill="#DBB178"/>
<path opacity="0.2" d="M132.441 125.743C127.805 122.576 127.189 115.145 127.189 115.145L124.563 113.947L123.305 117.29C125.82 120.631 128.914 123.494 132.441 125.743Z" fill="black"/>
<path d="M161.879 112.269L159.145 107.911L154.388 109.203L157.358 114.563L161.879 112.269Z" fill="#DBB178"/>
<path d="M126.364 142.012L103.679 143.501C103.679 143.501 103.517 137.41 102.725 131.8C102.479 129.847 102.09 127.916 101.561 126.02C100.972 124.085 100.207 121.913 99.3277 119.388C99.2127 119.077 99.0976 118.766 98.969 118.441C98.6713 117.656 98.3667 116.837 98.0216 115.984V115.944C97.7151 115.11 97.7483 114.19 98.1142 113.381C98.4801 112.572 99.1492 111.939 99.9774 111.619C100.133 111.559 100.294 111.511 100.458 111.477C101.899 111.173 103.354 110.895 104.83 110.665L106.102 110.476C109.499 109.969 112.922 109.662 116.355 109.555C118.134 109.555 120.036 109.609 121.66 109.684L123.014 109.751C124.733 109.853 125.924 109.961 125.924 109.961C125.924 109.961 126.668 110.11 127.108 114.096C127.118 114.323 127.141 114.549 127.176 114.773C127.23 115.599 127.277 116.641 127.298 117.893C127.365 123.009 127.061 131.597 126.364 142.012Z" fill="#FFDFBA"/>
<path opacity="0.6" d="M126.364 142.012L103.679 143.501C103.679 143.501 103.517 137.41 102.725 131.8C102.479 129.847 102.09 127.916 101.561 126.02C100.972 124.085 100.207 121.913 99.3277 119.388C99.2127 119.077 99.0976 118.766 98.969 118.441C98.6713 117.656 98.3667 116.837 98.0216 115.984V115.944C97.7151 115.11 97.7483 114.19 98.1142 113.381C98.4801 112.572 99.1492 111.939 99.9774 111.619C100.133 111.559 100.294 111.511 100.458 111.477C101.899 111.173 103.354 110.895 104.83 110.665L106.102 110.476C109.499 109.969 112.922 109.662 116.355 109.555C118.134 109.555 120.036 109.609 121.66 109.684L123.014 109.751C124.733 109.853 125.924 109.961 125.924 109.961C125.924 109.961 126.668 110.11 127.108 114.096C127.118 114.323 127.141 114.549 127.176 114.773C127.23 115.599 127.277 116.641 127.298 117.893C127.365 123.009 127.061 131.597 126.364 142.012Z" fill="white"/>
<path d="M106.894 110.367L112.551 117.906L116.612 114.428L121.89 116.972L119.034 109.589C118.155 109.589 117.248 109.589 116.375 109.589C113.203 109.675 110.037 109.934 106.894 110.367Z" fill="#FFDFBA"/>
<path opacity="0.9" d="M106.894 110.367L112.551 117.906L116.612 114.428L121.89 116.972L119.034 109.589C118.155 109.589 117.248 109.589 116.375 109.589C113.203 109.675 110.037 109.934 106.894 110.367Z" fill="white"/>
<path d="M156.966 232.986H152.141L154.34 196.564H163.368L156.966 232.986Z" fill="#DBB178"/>
<path d="M151.606 232.526C151.552 232.066 157.311 231.633 157.311 231.633C157.311 231.633 161.317 234.719 164.837 235.017C168.356 235.315 166.738 237.649 162.928 238.177L153.501 239.531C150.794 239.93 152.161 237.338 151.606 232.526Z" fill="#263238"/>
<path d="M160.201 232.723C159.466 232.68 158.741 232.541 158.042 232.31C158.014 232.303 157.988 232.289 157.968 232.269C157.954 232.223 157.954 232.174 157.968 232.127C157.968 232.066 158.286 230.638 159.023 230.219C159.134 230.152 159.258 230.109 159.386 230.094C159.514 230.078 159.645 230.091 159.768 230.131C160.127 230.239 160.221 230.442 160.228 230.584C160.228 230.875 159.951 231.2 159.551 231.498C159.936 231.389 160.344 231.389 160.729 231.498C160.813 231.53 160.889 231.578 160.954 231.639C161.019 231.701 161.071 231.775 161.108 231.857C161.164 231.963 161.189 232.084 161.178 232.204C161.167 232.324 161.122 232.438 161.047 232.533C160.801 232.705 160.497 232.773 160.201 232.723ZM158.651 232.114C159.517 232.337 160.533 232.486 160.756 232.242C160.81 232.195 160.796 232.093 160.756 231.972C160.739 231.932 160.715 231.896 160.683 231.867C160.652 231.838 160.614 231.816 160.573 231.802C159.916 231.724 159.25 231.832 158.651 232.114ZM159.436 230.422C159.336 230.422 159.237 230.45 159.152 230.503C158.767 230.839 158.495 231.285 158.374 231.782C159.118 231.356 159.863 230.821 159.863 230.591C159.863 230.55 159.781 230.496 159.653 230.449C159.582 230.429 159.509 230.42 159.436 230.422Z" fill="#FFDFBA"/>
<path opacity="0.2" d="M153.954 202.932L162.204 203.183L163.368 196.564H154.34L153.954 202.932Z" fill="black"/>
<path d="M133.808 233.602L129.186 232.986L136.501 192.659L145.624 195.265L133.808 233.602Z" fill="#DBB178"/>
<path d="M128.583 232.344C128.583 231.87 134.349 232.344 134.349 232.344C134.349 232.344 137.848 235.992 141.279 236.81C144.71 237.629 142.768 239.707 138.924 239.653L129.395 239.538C126.641 239.511 128.401 237.203 128.583 232.344Z" fill="#263238"/>
<path d="M137.381 233.846C136.538 233.742 135.72 233.49 134.965 233.102L134.918 233.061C134.915 233.053 134.913 233.045 134.913 233.037C134.913 233.029 134.915 233.021 134.918 233.014C134.908 232.992 134.902 232.969 134.902 232.946C134.902 232.922 134.908 232.899 134.918 232.878C134.918 232.824 135.446 231.471 136.271 231.153C136.388 231.099 136.515 231.071 136.643 231.071C136.772 231.071 136.899 231.099 137.016 231.153C137.354 231.322 137.415 231.525 137.401 231.667C137.401 231.958 137.036 232.235 136.61 232.465C137.007 232.417 137.41 232.48 137.774 232.648C137.852 232.69 137.92 232.747 137.973 232.817C138.027 232.887 138.065 232.968 138.085 233.054C138.128 233.164 138.137 233.285 138.109 233.4C138.081 233.515 138.018 233.619 137.929 233.697C137.77 233.811 137.576 233.864 137.381 233.846ZM135.574 232.98C136.4 233.332 137.381 233.656 137.604 233.426C137.659 233.386 137.672 233.291 137.604 233.156C137.594 233.115 137.576 233.078 137.55 233.045C137.524 233.013 137.492 232.986 137.456 232.966C136.838 232.806 136.189 232.811 135.574 232.98ZM136.522 231.423C136.447 231.426 136.374 231.442 136.305 231.471C135.879 231.741 135.546 232.135 135.351 232.601C136.177 232.296 136.955 231.856 136.968 231.64C136.968 231.599 136.901 231.532 136.786 231.477C136.714 231.441 136.636 231.418 136.555 231.41L136.522 231.423Z" fill="#FFDFBA"/>
<path opacity="0.2" d="M145.624 195.265L136.501 192.659L135.06 200.611L143.506 202.134L145.624 195.265Z" fill="black"/>
<path d="M151.951 199.691L163.558 200.3C166.528 186.616 169.493 171.531 168.904 168.222C167.787 161.881 159.172 155.425 125.727 149.95L110.162 173.338C110.162 173.338 132.928 172.276 153.677 172.276C153.67 172.289 152.513 185.31 151.951 199.691Z" fill="#FFDFBA"/>
<path opacity="0.1" d="M151.951 199.691L163.558 200.3C166.528 186.616 169.493 171.531 168.904 168.222C167.787 161.881 159.172 155.425 125.727 149.95L110.162 173.338C110.162 173.338 132.928 172.276 153.677 172.276C153.67 172.289 152.513 185.31 151.951 199.691Z" fill="black"/>
<path d="M151.173 197.87L151.518 200.909L164.234 201.342L164.857 198.547L151.173 197.87Z" fill="#FFDFBA"/>
<path d="M118.317 109.575H116.355C113.539 109.663 110.731 109.893 107.936 110.252C109.154 111.707 112.951 113.974 115.495 113.974C119.048 113.947 118.256 111.308 118.317 109.575Z" fill="#DBB178"/>
<path d="M133.909 197.336L145.773 199.264C150.591 185.777 155.41 171.423 155.328 168.188C155.166 161.746 153.752 158.403 130.451 153.205C130.451 153.205 129.213 151.398 126.391 142.039L103.679 143.528C103.679 143.528 93.3182 162.612 101.338 170.76C103.111 172.574 106.596 173.386 110.135 173.352C110.135 173.352 118.324 173.392 138.559 172.445C138.565 172.445 136.163 183.99 133.909 197.336Z" fill="#FFDFBA"/>
<path d="M133.436 195.265L147.18 197.586L145.874 200.476L133.375 198.425L133.436 195.265Z" fill="#FFDFBA"/>
<path opacity="0.1" d="M151.173 197.87L151.518 200.909L164.234 201.342L164.857 198.547L151.173 197.87Z" fill="black"/>
<path d="M116.598 107.62C116.337 109.291 116.406 110.997 116.801 112.641L110.582 111.727C110.448 111.708 110.32 111.657 110.209 111.58C110.098 111.503 110.006 111.401 109.94 111.282C109.875 111.164 109.838 111.032 109.831 110.897C109.825 110.761 109.851 110.626 109.905 110.502C110.758 108.567 111.096 104.669 111.306 102.876C111.421 101.793 111.468 100.805 111.475 100.114C111.482 99.4242 111.475 99.167 111.475 99.167L114.257 100.439L118.798 102.517C117.751 104.065 117.005 105.796 116.598 107.62Z" fill="#DBB178"/>
<path opacity="0.2" d="M118.811 102.517C117.754 104.063 116.997 105.794 116.578 107.62C114.309 106.72 112.435 105.04 111.292 102.882C111.414 101.8 111.462 100.812 111.468 100.121C112.456 100.223 113.377 100.324 114.257 100.446L118.811 102.517Z" fill="black"/>
<path d="M119.143 98.0774C118.96 100.155 120.023 101.833 121.511 101.833C123 101.833 124.36 100.155 124.543 98.0774C124.726 95.9998 123.663 94.3147 122.175 94.3147C120.686 94.3147 119.325 95.9998 119.143 98.0774Z" fill="#FFDFBA"/>
<path opacity="0.5" d="M118.879 98.0774C118.696 100.155 119.759 101.833 121.247 101.833C122.736 101.833 124.09 100.155 124.272 98.0774C124.455 95.9998 123.393 94.3147 121.904 94.3147C120.415 94.3147 119.055 95.9998 118.879 98.0774Z" fill="black"/>
<path d="M108.464 94.423C109.574 99.5121 109.959 102.544 112.964 104.865C113.933 105.634 115.094 106.124 116.321 106.279C117.548 106.435 118.794 106.251 119.925 105.749C121.055 105.246 122.025 104.442 122.731 103.426C123.437 102.41 123.851 101.22 123.927 99.9858C124.327 95.2486 122.445 87.7164 117.085 86.275C115.933 85.931 114.711 85.8964 113.541 86.1747C112.372 86.4529 111.296 87.0341 110.422 87.8599C109.548 88.6857 108.907 89.7269 108.564 90.879C108.22 92.0311 108.185 93.2534 108.464 94.423Z" fill="#DBB178"/>
<path d="M107.286 99.7354C108.11 100.73 109.253 101.409 110.521 101.657C112.125 101.928 112.49 100.446 111.671 99.0045C110.941 97.7119 109.215 96.0133 107.78 96.3923C106.345 96.7713 106.251 98.4834 107.286 99.7354Z" fill="#DBB178"/>
<path d="M116.497 94.9238C116.564 95.3434 116.835 95.6547 117.113 95.6006C117.39 95.5464 117.552 95.2013 117.492 94.7885C117.431 94.3757 117.153 94.0576 116.876 94.1117C116.598 94.1659 116.436 94.5042 116.497 94.9238Z" fill="#263238"/>
<path d="M121.275 94.3623C121.335 94.7819 121.613 95.0932 121.884 95.039C122.154 94.9849 122.33 94.6398 122.269 94.2202C122.208 93.8006 121.924 93.4961 121.654 93.5434C121.383 93.5908 121.173 93.9427 121.275 94.3623Z" fill="#263238"/>
<path d="M119.765 94.7478C120.466 95.9671 121.323 97.0889 122.317 98.0842C122.058 98.3225 121.749 98.5006 121.414 98.6059C121.078 98.7112 120.723 98.741 120.374 98.6932L119.765 94.7478Z" fill="#C0854B"/>
<path d="M114.798 93.5773C114.758 93.5863 114.716 93.5863 114.676 93.5773C114.647 93.5618 114.622 93.5406 114.601 93.515C114.581 93.4894 114.566 93.4599 114.557 93.4283C114.548 93.3967 114.546 93.3636 114.55 93.3311C114.554 93.2986 114.565 93.2672 114.582 93.2389C114.764 92.8936 115.028 92.5986 115.352 92.3802C115.675 92.1618 116.047 92.0267 116.436 91.987C116.468 91.9842 116.5 91.988 116.531 91.9982C116.562 92.0085 116.59 92.0249 116.614 92.0464C116.638 92.068 116.658 92.0942 116.671 92.1236C116.685 92.1529 116.692 92.1847 116.693 92.2171C116.696 92.2496 116.692 92.2824 116.682 92.3134C116.672 92.3445 116.655 92.3732 116.634 92.3978C116.612 92.4224 116.586 92.4425 116.557 92.4568C116.527 92.4711 116.495 92.4793 116.463 92.481C116.158 92.5154 115.866 92.6249 115.613 92.7997C115.36 92.9744 115.155 93.209 115.015 93.4826C114.989 93.515 114.956 93.5406 114.918 93.5571C114.88 93.5736 114.839 93.5806 114.798 93.5773Z" fill="#263238"/>
<path d="M123.027 92.5146C122.987 92.5159 122.947 92.5067 122.911 92.4876C122.876 92.4686 122.846 92.4406 122.824 92.4063C122.652 92.1388 122.422 91.9143 122.149 91.75C121.877 91.5857 121.571 91.4861 121.254 91.4589C121.196 91.4491 121.143 91.419 121.104 91.3738C121.066 91.3285 121.045 91.2711 121.045 91.2118C121.045 91.1526 121.066 91.0952 121.104 91.0499C121.143 91.0047 121.196 90.9746 121.254 90.9648C121.652 90.9912 122.037 91.1102 122.38 91.3123C122.724 91.5144 123.015 91.794 123.23 92.1288C123.267 92.1829 123.282 92.2493 123.27 92.3138C123.259 92.3784 123.223 92.4359 123.169 92.474C123.126 92.4998 123.077 92.5138 123.027 92.5146Z" fill="#263238"/>
<path d="M109.458 101.116C109.458 101.116 112.693 97.8069 111.11 89.686C111.11 89.686 113.715 91.8989 119.765 90.2612C119.765 90.2612 116.185 90.6131 114.548 88.9077C114.548 88.9077 117.884 90.4574 123.278 88.9077C123.278 88.9077 122.317 83.4464 116.51 83.1689C116.51 83.1689 118.385 81.5921 120.192 81.8966C120.192 81.8966 118.344 80.3063 113.654 83.399L111.8 84.1569C111.8 84.1569 106.576 82.2756 103.679 86.7015C101.371 90.2003 102.529 101.218 109.458 101.116Z" fill="#263238"/>
<path d="M121.322 99.6205C121.322 99.6205 119.684 99.2077 115.069 99.1062C115.583 100.507 116.564 101.664 118.933 101.691C119.228 101.724 119.527 101.696 119.81 101.607C120.094 101.519 120.356 101.373 120.581 101.179C120.805 100.984 120.987 100.745 121.114 100.477C121.242 100.209 121.313 99.9173 121.322 99.6205Z" fill="#263238"/>
<path d="M117.891 100.575C118.801 100.542 119.698 100.795 120.456 101.299C120.013 101.582 119.491 101.717 118.967 101.685C118.061 101.723 117.167 101.469 116.416 100.961C116.854 100.68 117.371 100.545 117.891 100.575Z" fill="#A02724"/>
<path d="M121.112 99.5798C121.064 99.7499 120.969 99.9032 120.839 100.023C120.709 100.142 120.548 100.223 120.374 100.257C119.011 100.225 117.653 100.08 116.314 99.8234C116.1 99.8045 115.894 99.7327 115.714 99.6146C115.535 99.4965 115.387 99.3357 115.285 99.1467C117.236 99.1404 119.184 99.2852 121.112 99.5798Z" fill="white"/>
<path d="M106.948 96.176V90.7147C106.947 89.0983 107.469 87.525 108.435 86.2288C109.4 84.9327 110.759 83.9829 112.308 83.5209L114.135 83.196C112.547 83.6698 111.154 84.6437 110.164 85.9728C109.173 87.3019 108.639 88.9152 108.64 90.5726V96.176H106.948Z" fill="#FFDFBA"/>
<path d="M111.191 98.8218C111.374 100.899 110.311 102.578 108.822 102.578C107.334 102.578 105.973 100.899 105.797 98.8218C105.621 96.7442 106.677 95.0591 108.166 95.0591C109.655 95.0591 111.008 96.7442 111.191 98.8218Z" fill="#FFDFBA"/>
<path opacity="0.5" d="M111.191 98.8218C111.374 100.899 110.311 102.578 108.822 102.578C107.334 102.578 105.973 100.899 105.797 98.8218C105.621 96.7442 106.677 95.0591 108.166 95.0591C109.655 95.0591 111.008 96.7442 111.191 98.8218Z" fill="black"/>
<path d="M110.291 98.8218C110.467 100.899 109.411 102.578 107.916 102.578C106.42 102.578 105.073 100.899 104.891 98.8218C104.708 96.7442 105.77 95.0591 107.259 95.0591C108.748 95.0591 110.108 96.7442 110.291 98.8218Z" fill="#FFDFBA"/>
<path opacity="0.3" d="M108.416 99.37L108.294 98.2737H108.504C108.234 97.1977 107.476 96.3923 106.643 96.3923C105.811 96.3923 105.202 97.1977 105.114 98.2737H105.256L105.378 99.37H105.215C105.486 100.446 106.244 101.245 107.07 101.245C107.895 101.245 108.518 100.446 108.599 99.37H108.416Z" fill="white"/>
<path d="M98.6916 99.2822L101.649 93.4622L104.038 99.1062C104.038 99.1062 101.642 102.152 99.1721 101.712L98.6916 99.2822Z" fill="#DBB178"/>
<path d="M106.244 91.3169L107.983 96.1556L104.031 99.1062L101.649 93.4622L106.244 91.3169Z" fill="#DBB178"/>
<path d="M99.4697 105.549L102.312 100.764L102.014 98.8152L99.5103 97.9287L95.9439 103.478L99.4697 105.549Z" fill="#DBB178"/>
<path d="M101.52 102.571L96.3297 113.995C96.3297 113.995 98.8539 111.727 100.248 111.403C102.468 110.882 109.168 112.905 102.38 120.275C102.38 120.275 88.9396 128.673 86.1988 125.418C84.0671 122.887 93.1219 107.505 97.2704 100.764L101.52 102.571Z" fill="#FFDFBA"/>
<path opacity="0.6" d="M101.52 102.571L96.3297 113.995C96.3297 113.995 98.8539 111.727 100.248 111.403C102.468 110.882 109.168 112.905 102.38 120.275C102.38 120.275 88.9396 128.673 86.1988 125.418C84.0671 122.887 93.1219 107.505 97.2704 100.764L101.52 102.571Z" fill="white"/>
<path opacity="0.2" d="M96.3297 113.995L94.8815 118.454L99.1314 111.917C98.1402 112.529 97.2029 113.224 96.3297 113.995Z" fill="black"/>
<path d="M115.773 103.863C115.204 103.878 114.636 103.842 114.074 103.755C112.626 103.234 111.224 102.591 109.885 101.833L110.156 101.346C111.456 102.076 112.814 102.698 114.216 103.207C115.657 103.326 117.106 103.326 118.547 103.207L118.588 103.769C118.479 103.769 117.058 103.863 115.773 103.863Z" fill="#FFDFBA"/>
<path d="M116.382 103.979L119.089 103.776C119.089 103.776 119.014 102.936 117.735 102.97C116.456 103.004 116.382 103.979 116.382 103.979Z" fill="#FFDFBA"/>
<g opacity="0.5">
<path d="M115.773 103.863C115.204 103.878 114.636 103.842 114.074 103.755C112.626 103.234 111.224 102.591 109.885 101.833L110.156 101.346C111.456 102.076 112.814 102.698 114.216 103.207C115.657 103.326 117.106 103.326 118.547 103.207L118.588 103.769C118.479 103.769 117.058 103.863 115.773 103.863Z" fill="black"/>
<path d="M116.382 103.979L119.089 103.776C119.089 103.776 119.014 102.936 117.735 102.97C116.456 103.004 116.382 103.979 116.382 103.979Z" fill="black"/>
</g>
<path d="M224.18 239.734C224.038 239.739 223.896 239.717 223.763 239.667C223.629 239.618 223.507 239.542 223.402 239.446C223.298 239.349 223.214 239.232 223.154 239.103C223.095 238.974 223.062 238.834 223.057 238.692L216.289 160.338C216.278 159.662 216.013 159.015 215.549 158.524C215.084 158.033 214.453 157.734 213.779 157.685H181.809C181.135 157.734 180.503 158.033 180.039 158.524C179.574 159.015 179.31 159.662 179.298 160.338L172.531 238.692C172.53 238.837 172.5 238.98 172.443 239.113C172.385 239.247 172.302 239.367 172.197 239.468C172.092 239.568 171.968 239.646 171.833 239.698C171.697 239.749 171.553 239.773 171.408 239.768C171.115 239.708 170.857 239.539 170.685 239.295C170.514 239.051 170.443 238.75 170.487 238.455L177.255 160.094C177.491 157.354 179.447 155.29 181.809 155.29H213.779C216.14 155.29 218.096 157.354 218.333 160.094L225.1 238.455C225.145 238.75 225.074 239.051 224.902 239.295C224.731 239.539 224.473 239.708 224.18 239.768V239.734Z" fill="#FFDFBA"/>
<g opacity="0.4">
<path d="M224.18 239.734C224.038 239.739 223.896 239.717 223.763 239.667C223.629 239.618 223.507 239.542 223.402 239.446C223.298 239.349 223.214 239.232 223.154 239.103C223.095 238.974 223.062 238.834 223.057 238.692L216.289 160.338C216.278 159.662 216.013 159.015 215.549 158.524C215.084 158.033 214.453 157.734 213.779 157.685H181.809C181.135 157.734 180.503 158.033 180.039 158.524C179.574 159.015 179.31 159.662 179.298 160.338L172.531 238.692C172.53 238.837 172.5 238.98 172.443 239.113C172.385 239.247 172.302 239.367 172.197 239.468C172.092 239.568 171.968 239.646 171.833 239.698C171.697 239.749 171.553 239.773 171.408 239.768C171.115 239.708 170.857 239.539 170.685 239.295C170.514 239.051 170.443 238.75 170.487 238.455L177.255 160.094C177.491 157.354 179.447 155.29 181.809 155.29H213.779C216.14 155.29 218.096 157.354 218.333 160.094L225.1 238.455C225.145 238.75 225.074 239.051 224.902 239.295C224.731 239.539 224.473 239.708 224.18 239.768V239.734Z" fill="black"/>
</g>
<path d="M223.733 151.899H136.833C136.074 151.899 135.459 152.514 135.459 153.273V157.726C135.459 158.485 136.074 159.1 136.833 159.1H223.733C224.492 159.1 225.107 158.485 225.107 157.726V153.273C225.107 152.514 224.492 151.899 223.733 151.899Z" fill="#263238"/>
<path opacity="0.2" d="M185.768 151.899H223.733C224.092 151.899 224.437 152.042 224.691 152.296C224.944 152.549 225.087 152.894 225.087 153.253V157.706C225.087 158.065 224.944 158.409 224.691 158.663C224.437 158.917 224.092 159.059 223.733 159.059H185.768V151.899Z" fill="white"/>
<path d="M189.165 239.734C189.02 239.74 188.874 239.717 188.738 239.666C188.602 239.615 188.477 239.537 188.371 239.436C188.266 239.336 188.182 239.215 188.124 239.081C188.066 238.948 188.036 238.804 188.035 238.658L181.268 160.304C181.256 159.629 180.992 158.982 180.527 158.491C180.063 158 179.431 157.7 178.757 157.652H146.788C146.115 157.702 145.485 158.002 145.022 158.493C144.558 158.984 144.295 159.63 144.284 160.304L137.516 238.692C137.515 238.837 137.485 238.98 137.428 239.114C137.371 239.247 137.287 239.367 137.182 239.468C137.078 239.568 136.954 239.646 136.818 239.698C136.682 239.749 136.538 239.773 136.393 239.768C136.096 239.706 135.835 239.53 135.666 239.279C135.496 239.027 135.432 238.719 135.486 238.421L142.253 160.061C142.49 157.32 144.453 155.256 146.808 155.256H178.777C181.139 155.256 183.095 157.32 183.332 160.061L190.099 238.421C190.144 238.715 190.074 239.015 189.904 239.259C189.734 239.503 189.477 239.673 189.186 239.734H189.165Z" fill="#FFDFBA"/>
<g opacity="0.4">
<path d="M189.165 239.734C189.02 239.74 188.874 239.717 188.738 239.666C188.602 239.615 188.477 239.537 188.371 239.436C188.266 239.336 188.182 239.215 188.124 239.081C188.066 238.948 188.036 238.804 188.035 238.658L181.268 160.304C181.256 159.629 180.992 158.982 180.527 158.491C180.063 158 179.431 157.7 178.757 157.652H146.788C146.115 157.702 145.485 158.002 145.022 158.493C144.558 158.984 144.295 159.63 144.284 160.304L137.516 238.692C137.515 238.837 137.485 238.98 137.428 239.114C137.371 239.247 137.287 239.367 137.182 239.468C137.078 239.568 136.954 239.646 136.818 239.698C136.682 239.749 136.538 239.773 136.393 239.768C136.096 239.706 135.835 239.53 135.666 239.279C135.496 239.027 135.432 238.719 135.486 238.421L142.253 160.061C142.49 157.32 144.453 155.256 146.808 155.256H178.777C181.139 155.256 183.095 157.32 183.332 160.061L190.099 238.421C190.144 238.715 190.074 239.015 189.904 239.259C189.734 239.503 189.477 239.673 189.186 239.734H189.165Z" fill="black"/>
</g>
<path d="M164.133 148.353H189.213V150.715C189.213 151.029 189.088 151.33 188.866 151.552C188.644 151.774 188.342 151.899 188.028 151.899H165.317C165.003 151.899 164.701 151.774 164.479 151.552C164.257 151.33 164.133 151.029 164.133 150.715V148.366V148.353Z" fill="#263238"/>
<path opacity="0.2" d="M164.133 148.353H189.213V150.715C189.213 151.029 189.088 151.33 188.866 151.552C188.644 151.774 188.342 151.899 188.028 151.899H165.317C165.003 151.899 164.701 151.774 164.479 151.552C164.257 151.33 164.133 151.029 164.133 150.715V148.366V148.353Z" fill="white"/>
<path d="M146.395 148.353H171.475V150.715C171.475 151.029 171.35 151.33 171.128 151.552C170.906 151.774 170.605 151.899 170.291 151.899H147.579C147.265 151.899 146.964 151.774 146.742 151.552C146.52 151.33 146.395 151.029 146.395 150.715V148.366V148.353Z" fill="#263238"/>
<path opacity="0.6" d="M146.395 148.353H171.475V150.715C171.475 151.029 171.35 151.33 171.128 151.552C170.906 151.774 170.605 151.899 170.291 151.899H147.579C147.265 151.899 146.964 151.774 146.742 151.552C146.52 151.33 146.395 151.029 146.395 150.715V148.366V148.353Z" fill="white"/>
<path d="M168.572 149.7H166.244V150.539H168.572V149.7Z" fill="#263238"/>
<path d="M164.843 149.7H162.515V150.539H164.843V149.7Z" fill="#263238"/>
<path d="M190.979 151.899H192.177C192.505 151.892 192.819 151.77 193.067 151.555C193.314 151.34 193.478 151.045 193.53 150.721L197.591 125.756C197.623 125.558 197.612 125.355 197.559 125.162C197.506 124.968 197.412 124.788 197.284 124.634C197.156 124.479 196.996 124.354 196.816 124.266C196.635 124.179 196.438 124.131 196.237 124.125L176.767 124.092L171.502 151.838H172.7L190.979 151.899Z" fill="#263238"/>
<path opacity="0.6" d="M190.979 151.899H192.177C192.505 151.892 192.819 151.77 193.067 151.555C193.314 151.34 193.478 151.045 193.53 150.721L197.591 125.756C197.623 125.558 197.612 125.355 197.559 125.162C197.506 124.968 197.412 124.788 197.284 124.634C197.156 124.479 196.996 124.354 196.816 124.266C196.635 124.179 196.438 124.131 196.237 124.125L176.767 124.092L171.502 151.838H172.7L190.979 151.899Z" fill="white"/>
<path opacity="0.2" d="M171.807 150.092L171.469 151.865H172.666L190.938 151.899H192.136C192.464 151.892 192.779 151.77 193.026 151.555C193.274 151.34 193.438 151.045 193.49 150.721L193.585 150.133L171.807 150.092Z" fill="black"/>
<path d="M171.495 151.886H172.707C173.035 151.879 173.35 151.757 173.597 151.542C173.844 151.327 174.008 151.032 174.06 150.708L178.121 125.729C178.153 125.532 178.142 125.329 178.089 125.136C178.036 124.943 177.942 124.763 177.814 124.609C177.686 124.455 177.526 124.33 177.345 124.243C177.165 124.157 176.968 124.109 176.767 124.105L171.495 151.886Z" fill="#263238"/>
<path opacity="0.3" d="M171.495 151.886H172.707C173.035 151.879 173.35 151.757 173.597 151.542C173.844 151.327 174.008 151.032 174.06 150.708L178.121 125.729C178.153 125.532 178.142 125.329 178.089 125.136C178.036 124.943 177.942 124.763 177.814 124.609C177.686 124.455 177.526 124.33 177.345 124.243C177.165 124.157 176.968 124.109 176.767 124.105L171.495 151.886Z" fill="white"/>
</svg>
