<?xml version="1.0" encoding="utf-8"?>
<!-- Generator: Adobe Illustrator 26.5.0, SVG Export Plug-In . SVG Version: 6.00 Build 0)  -->
<svg version="1.1" id="Layer_1" xmlns="http://www.w3.org/2000/svg" xmlns:xlink="http://www.w3.org/1999/xlink" x="0px" y="0px"
	 viewBox="0 0 152.56 152.56" style="enable-background:new 0 0 152.56 152.56;" xml:space="preserve">
<style type="text/css">
	.st0{fill:url(#SVGID_1_);}
	.st1{fill:url(#SVGID_00000163055709320074359800000008459967206994963077_);}
	.st2{fill:url(#SVGID_00000158009482491183936360000012859551002901897102_);}
</style>
<g>
	<path d="M124.96,143.28H27.6c-10.12,0-18.32-8.2-18.32-18.32V27.6c0-10.12,8.2-18.32,18.32-18.32h97.36
		c10.12,0,18.32,8.2,18.32,18.32v97.36C143.28,135.08,135.08,143.28,124.96,143.28z"/>
	<g>
		<linearGradient id="SVGID_1_" gradientUnits="userSpaceOnUse" x1="50.4905" y1="76.281" x2="104.1328" y2="76.281">
			<stop  offset="0" style="stop-color:#CB7554"/>
			<stop  offset="0.5028" style="stop-color:#F0AE98"/>
			<stop  offset="1" style="stop-color:#DB8469"/>
		</linearGradient>
		<path class="st0" d="M93.59,74.68c-4.4,0-8.8,0-14.26,0c8.69-14.59,16.75-28.11,24.81-41.64c-0.29-0.21-0.57-0.43-0.86-0.64
			C89.19,47.92,75.1,63.44,61.02,78.96c0.32,0.51,0.64,1.02,0.96,1.54c4.06,0,8.12,0,12.93,0c-8.49,13.57-16.45,26.3-24.42,39.02
			c0.27,0.22,0.55,0.43,0.82,0.65c14.28-14.7,28.57-29.41,42.85-44.11C93.97,75.6,93.78,75.14,93.59,74.68z"/>
		
			<linearGradient id="SVGID_00000134938191068344057160000008532111171957645979_" gradientUnits="userSpaceOnUse" x1="37.614" y1="72.9472" x2="88.313" y2="72.9472">
			<stop  offset="0" style="stop-color:#CB7554"/>
			<stop  offset="0.5028" style="stop-color:#F0AE98"/>
			<stop  offset="1" style="stop-color:#DB8469"/>
		</linearGradient>
		<path style="fill:url(#SVGID_00000134938191068344057160000008532111171957645979_);" d="M54.93,102.47
			c-0.46-0.66-0.62-1-0.87-1.25C42.23,89.9,41.37,74.44,47,62.98c5.5-11.2,17.7-20.03,34.84-17.84l2.19,0.58l1.01-1.13l3.18-3.55
			l0.1-0.11l-0.15,0.04c-16.7-6.41-36.47,1.32-45.83,17.93c-8.95,15.89-4.82,37.54,9.52,48.29
			C52.92,105.55,53.97,103.94,54.93,102.47z"/>
		
			<linearGradient id="SVGID_00000017502396238419224230000001007551630814891142_" gradientUnits="userSpaceOnUse" x1="63.7604" y1="82.0945" x2="114.948" y2="82.0945">
			<stop  offset="0" style="stop-color:#CB7554"/>
			<stop  offset="0.5028" style="stop-color:#F0AE98"/>
			<stop  offset="1" style="stop-color:#DB8469"/>
		</linearGradient>
		<path style="fill:url(#SVGID_00000017502396238419224230000001007551630814891142_);" d="M101.19,48.29l-0.02-0.05l-0.02,0.02
			c-0.03-0.02-0.06-0.04-0.09-0.06c-0.21,0.32-0.4,0.61-0.58,0.89l-2.59,3.19l1.93,2.53l0,0c0.4,0.55,0.92,1.2,1.57,2.01
			c8.73,10.84,10,24.42,3.4,36.43c-6.35,11.57-18.12,17.42-31.83,16.52l-5.33-1.01l-3.65,4.38c-0.07,0.03-0.15,0.06-0.22,0.1
			c0.03,0.02,0.07,0.03,0.1,0.05l-0.01,0.01h0.04c16.18,7.43,37.49-1.21,46.39-17.31C119.19,79.87,114.9,57.48,101.19,48.29z"/>
	</g>
</g>
</svg>
