<svg width="320" height="320" viewBox="0 0 320 320" fill="none" xmlns="http://www.w3.org/2000/svg">
<g clip-path="url(#clip0_434_7072)">
<path d="M340.616 256.373H-20.6162V256.554H340.616V256.373Z" fill="#EBEBEB"/>
<path d="M304.421 267.998H280.493V268.179H304.421V267.998Z" fill="#EBEBEB"/>
<path d="M218.679 269.963H212.4V270.144H218.679V269.963Z" fill="#EBEBEB"/>
<path d="M279.77 261.293H265.906V261.474H279.77V261.293Z" fill="#EBEBEB"/>
<path d="M48.4874 262.507H17.2842V262.688H48.4874V262.507Z" fill="#EBEBEB"/>
<path d="M59.498 262.507H54.9248V262.688H59.498V262.507Z" fill="#EBEBEB"/>
<path d="M142.047 265.556H74.3662V265.737H142.047V265.556Z" fill="#EBEBEB"/>
<path d="M150.608 224.152H11.1073C10.0145 224.15 8.96705 223.714 8.19497 222.941C7.42289 222.167 6.98926 221.119 6.98926 220.026V23.9275C6.99877 22.841 7.4366 21.802 8.20765 21.0364C8.9787 20.2707 10.0207 19.8402 11.1073 19.8384H150.608C151.702 19.8384 152.751 20.273 153.525 21.0466C154.299 21.8203 154.733 22.8696 154.733 23.9637V220.026C154.733 221.12 154.299 222.17 153.525 222.943C152.751 223.717 151.702 224.152 150.608 224.152ZM11.1073 19.9829C10.0624 19.9848 9.06089 20.4012 8.32268 21.1408C7.58448 21.8803 7.16987 22.8826 7.16987 23.9275V220.026C7.16987 221.071 7.58448 222.073 8.32268 222.813C9.06089 223.553 10.0624 223.969 11.1073 223.971H150.608C151.654 223.969 152.656 223.553 153.395 222.813C154.135 222.074 154.551 221.072 154.553 220.026V23.9275C154.551 22.8819 154.135 21.8797 153.395 21.1403C152.656 20.401 151.654 19.9848 150.608 19.9829H11.1073Z" fill="#EBEBEB"/>
<path d="M306.884 224.152H167.376C166.283 224.15 165.235 223.714 164.461 222.941C163.688 222.168 163.253 221.12 163.251 220.026V23.9275C163.262 22.8403 163.702 21.8014 164.474 21.0359C165.246 20.2705 166.289 19.8402 167.376 19.8384H306.884C307.97 19.8421 309.01 20.2735 309.779 21.0389C310.549 21.8044 310.986 22.8422 310.995 23.9275V220.026C310.995 221.118 310.562 222.165 309.792 222.938C309.021 223.711 307.976 224.148 306.884 224.152ZM167.376 19.9829C166.331 19.9848 165.328 20.401 164.589 21.1403C163.85 21.8797 163.434 22.8819 163.432 23.9275V220.026C163.434 221.072 163.85 222.074 164.589 222.813C165.328 223.553 166.331 223.969 167.376 223.971H306.884C307.93 223.969 308.932 223.553 309.671 222.813C310.411 222.074 310.827 221.072 310.829 220.026V23.9275C310.827 22.8819 310.411 21.8797 309.671 21.1403C308.932 20.401 307.93 19.9848 306.884 19.9829H167.376Z" fill="#EBEBEB"/>
<path d="M295.737 255.897V222.071H292.847V205.96H288.621V149.918H282.509V142.686L269.454 136.603V129.306H267.647V149.918H265.119V205.96H262.59V176.49H255.72V161.304H253.798V205.96H248.582V188.967H245.15V184.625H237.195V169.8H232.839V159.317H227.486V144.045H225.571V159.317H220.218V169.8H215.861V184.625H207.907V188.967H204.475V205.96H200.4V184.625H192.446V138.706H189.917V133.648H172.925V138.706H169.313V171.968H154.849V175.226H149.423V177.755H154.849V190.774H139.663V147.39H136.412V138.164H129.36V105.45H127.374V138.164H122.309V147.39H92.6375V144.348H90.8241V164.96H88.2955V165.321H86.7783V185.926H84.2496V191.532H78.8962V176.346H76.9816V212.505H74.8432V197.319H72.9286V221.002H71.7655V204.009H68.3265V199.667H60.3722V184.842H56.0157V174.359H50.6622V159.086H48.7549V174.359H43.4015V184.842H39.045V199.667H31.0907V204.009H27.6517V220.64H27.0376V221.002H25.3398V255.897H295.737Z" fill="#E6E6E6"/>
<path d="M111.241 149.413H109.189V151.464H111.241V149.413Z" fill="#F0F0F0"/>
<path d="M111.241 152.851H109.189V154.903H111.241V152.851Z" fill="#F0F0F0"/>
<path d="M111.241 166.585H109.189V168.637H111.241V166.585Z" fill="#F0F0F0"/>
<path d="M111.241 170.024H109.189V172.076H111.241V170.024Z" fill="#F0F0F0"/>
<path d="M111.241 173.456H109.189V175.508H111.241V173.456Z" fill="#F0F0F0"/>
<path d="M111.241 183.758H109.189V185.81H111.241V183.758Z" fill="#F0F0F0"/>
<path d="M111.241 187.197H109.189V189.249H111.241V187.197Z" fill="#F0F0F0"/>
<path d="M114.499 163.154H112.447V165.205H114.499V163.154Z" fill="#F0F0F0"/>
<path d="M114.499 166.585H112.447V168.637H114.499V166.585Z" fill="#F0F0F0"/>
<path d="M114.499 170.024H112.447V172.076H114.499V170.024Z" fill="#F0F0F0"/>
<path d="M114.499 173.456H112.447V175.508H114.499V173.456Z" fill="#F0F0F0"/>
<path d="M114.499 176.888H112.447V178.94H114.499V176.888Z" fill="#F0F0F0"/>
<path d="M114.499 183.758H112.447V185.81H114.499V183.758Z" fill="#F0F0F0"/>
<path d="M114.499 187.197H112.447V189.249H114.499V187.197Z" fill="#F0F0F0"/>
<path d="M117.75 149.413H115.698V151.464H117.75V149.413Z" fill="#F0F0F0"/>
<path d="M117.75 152.851H115.698V154.903H117.75V152.851Z" fill="#F0F0F0"/>
<path d="M117.75 156.283H115.698V158.335H117.75V156.283Z" fill="#F0F0F0"/>
<path d="M117.75 159.715H115.698V161.767H117.75V159.715Z" fill="#F0F0F0"/>
<path d="M117.75 163.154H115.698V165.205H117.75V163.154Z" fill="#F0F0F0"/>
<path d="M117.75 166.585H115.698V168.637H117.75V166.585Z" fill="#F0F0F0"/>
<path d="M117.75 170.024H115.698V172.076H117.75V170.024Z" fill="#F0F0F0"/>
<path d="M117.75 173.456H115.698V175.508H117.75V173.456Z" fill="#F0F0F0"/>
<path d="M117.75 176.888H115.698V178.94H117.75V176.888Z" fill="#F0F0F0"/>
<path d="M117.75 180.327H115.698V182.378H117.75V180.327Z" fill="#F0F0F0"/>
<path d="M117.75 187.197H115.698V189.249H117.75V187.197Z" fill="#F0F0F0"/>
<path d="M121.009 149.413H118.957V151.464H121.009V149.413Z" fill="#F0F0F0"/>
<path d="M121.009 152.851H118.957V154.903H121.009V152.851Z" fill="#F0F0F0"/>
<path d="M121.009 156.283H118.957V158.335H121.009V156.283Z" fill="#F0F0F0"/>
<path d="M121.009 159.715H118.957V161.767H121.009V159.715Z" fill="#F0F0F0"/>
<path d="M121.009 163.154H118.957V165.205H121.009V163.154Z" fill="#F0F0F0"/>
<path d="M121.009 166.585H118.957V168.637H121.009V166.585Z" fill="#F0F0F0"/>
<path d="M121.009 170.024H118.957V172.076H121.009V170.024Z" fill="#F0F0F0"/>
<path d="M121.009 200.931H118.957V202.983H121.009V200.931Z" fill="#F0F0F0"/>
<path d="M124.26 149.413H122.208V151.464H124.26V149.413Z" fill="#F0F0F0"/>
<path d="M124.26 152.851H122.208V154.903H124.26V152.851Z" fill="#F0F0F0"/>
<path d="M124.26 156.283H122.208V158.335H124.26V156.283Z" fill="#F0F0F0"/>
<path d="M124.26 159.715H122.208V161.767H124.26V159.715Z" fill="#F0F0F0"/>
<path d="M124.26 163.154H122.208V165.205H124.26V163.154Z" fill="#F0F0F0"/>
<path d="M124.26 166.585H122.208V168.637H124.26V166.585Z" fill="#F0F0F0"/>
<path d="M124.26 170.024H122.208V172.076H124.26V170.024Z" fill="#F0F0F0"/>
<path d="M124.26 173.456H122.208V175.508H124.26V173.456Z" fill="#F0F0F0"/>
<path d="M124.26 194.061H122.208V196.113H124.26V194.061Z" fill="#F0F0F0"/>
<path d="M124.26 197.5H122.208V199.552H124.26V197.5Z" fill="#F0F0F0"/>
<path d="M124.26 200.931H122.208V202.983H124.26V200.931Z" fill="#F0F0F0"/>
<path d="M124.26 204.37H122.208V206.422H124.26V204.37Z" fill="#F0F0F0"/>
<path d="M124.26 218.104H122.208V220.156H124.26V218.104Z" fill="#F0F0F0"/>
<path d="M127.511 149.413H125.459V151.464H127.511V149.413Z" fill="#F0F0F0"/>
<path d="M127.511 152.851H125.459V154.903H127.511V152.851Z" fill="#F0F0F0"/>
<path d="M127.511 156.283H125.459V158.335H127.511V156.283Z" fill="#F0F0F0"/>
<path d="M127.511 159.715H125.459V161.767H127.511V159.715Z" fill="#F0F0F0"/>
<path d="M127.511 163.154H125.459V165.205H127.511V163.154Z" fill="#F0F0F0"/>
<path d="M127.511 166.585H125.459V168.637H127.511V166.585Z" fill="#F0F0F0"/>
<path d="M127.511 170.024H125.459V172.076H127.511V170.024Z" fill="#F0F0F0"/>
<path d="M127.511 173.456H125.459V175.508H127.511V173.456Z" fill="#F0F0F0"/>
<path d="M127.511 176.888H125.459V178.94H127.511V176.888Z" fill="#F0F0F0"/>
<path d="M127.511 180.327H125.459V182.378H127.511V180.327Z" fill="#F0F0F0"/>
<path d="M127.511 190.629H125.459V192.681H127.511V190.629Z" fill="#F0F0F0"/>
<path d="M127.511 194.061H125.459V196.113H127.511V194.061Z" fill="#F0F0F0"/>
<path d="M127.511 197.5H125.459V199.552H127.511V197.5Z" fill="#F0F0F0"/>
<path d="M127.511 200.931H125.459V202.983H127.511V200.931Z" fill="#F0F0F0"/>
<path d="M127.511 204.37H125.459V206.422H127.511V204.37Z" fill="#F0F0F0"/>
<path d="M127.511 218.104H125.459V220.156H127.511V218.104Z" fill="#F0F0F0"/>
<path d="M130.77 149.413H128.718V151.464H130.77V149.413Z" fill="#F0F0F0"/>
<path d="M130.77 152.851H128.718V154.903H130.77V152.851Z" fill="#F0F0F0"/>
<path d="M130.77 156.283H128.718V158.335H130.77V156.283Z" fill="#F0F0F0"/>
<path d="M130.77 159.715H128.718V161.767H130.77V159.715Z" fill="#F0F0F0"/>
<path d="M130.77 163.154H128.718V165.205H130.77V163.154Z" fill="#F0F0F0"/>
<path d="M130.77 166.585H128.718V168.637H130.77V166.585Z" fill="#F0F0F0"/>
<path d="M130.77 170.024H128.718V172.076H130.77V170.024Z" fill="#F0F0F0"/>
<path d="M130.77 173.456H128.718V175.508H130.77V173.456Z" fill="#F0F0F0"/>
<path d="M130.77 176.888H128.718V178.94H130.77V176.888Z" fill="#F0F0F0"/>
<path d="M130.77 180.327H128.718V182.378H130.77V180.327Z" fill="#F0F0F0"/>
<path d="M130.77 183.758H128.718V185.81H130.77V183.758Z" fill="#F0F0F0"/>
<path d="M130.77 187.197H128.718V189.249H130.77V187.197Z" fill="#F0F0F0"/>
<path d="M130.77 190.629H128.718V192.681H130.77V190.629Z" fill="#F0F0F0"/>
<path d="M130.77 194.061H128.718V196.113H130.77V194.061Z" fill="#F0F0F0"/>
<path d="M130.77 197.5H128.718V199.552H130.77V197.5Z" fill="#F0F0F0"/>
<path d="M130.77 200.931H128.718V202.983H130.77V200.931Z" fill="#F0F0F0"/>
<path d="M130.77 204.37H128.718V206.422H130.77V204.37Z" fill="#F0F0F0"/>
<path d="M130.77 207.802H128.718V209.854H130.77V207.802Z" fill="#F0F0F0"/>
<path d="M134.021 149.413H131.969V151.464H134.021V149.413Z" fill="#F0F0F0"/>
<path d="M134.021 152.851H131.969V154.903H134.021V152.851Z" fill="#F0F0F0"/>
<path d="M134.021 156.283H131.969V158.335H134.021V156.283Z" fill="#F0F0F0"/>
<path d="M134.021 159.715H131.969V161.767H134.021V159.715Z" fill="#F0F0F0"/>
<path d="M134.021 163.154H131.969V165.205H134.021V163.154Z" fill="#F0F0F0"/>
<path d="M134.021 166.585H131.969V168.637H134.021V166.585Z" fill="#F0F0F0"/>
<path d="M134.021 170.024H131.969V172.076H134.021V170.024Z" fill="#F0F0F0"/>
<path d="M134.021 173.456H131.969V175.508H134.021V173.456Z" fill="#F0F0F0"/>
<path d="M134.021 176.888H131.969V178.94H134.021V176.888Z" fill="#F0F0F0"/>
<path d="M134.021 180.327H131.969V182.378H134.021V180.327Z" fill="#F0F0F0"/>
<path d="M134.021 190.629H131.969V192.681H134.021V190.629Z" fill="#F0F0F0"/>
<path d="M134.021 194.061H131.969V196.113H134.021V194.061Z" fill="#F0F0F0"/>
<path d="M134.021 197.5H131.969V199.552H134.021V197.5Z" fill="#F0F0F0"/>
<path d="M134.021 200.931H131.969V202.983H134.021V200.931Z" fill="#F0F0F0"/>
<path d="M137.278 149.413H135.227V151.464H137.278V149.413Z" fill="#F0F0F0"/>
<path d="M137.278 152.851H135.227V154.903H137.278V152.851Z" fill="#F0F0F0"/>
<path d="M137.278 156.283H135.227V158.335H137.278V156.283Z" fill="#F0F0F0"/>
<path d="M137.278 159.715H135.227V161.767H137.278V159.715Z" fill="#F0F0F0"/>
<path d="M137.278 163.154H135.227V165.205H137.278V163.154Z" fill="#F0F0F0"/>
<path d="M137.278 166.585H135.227V168.637H137.278V166.585Z" fill="#F0F0F0"/>
<path d="M137.278 170.024H135.227V172.076H137.278V170.024Z" fill="#F0F0F0"/>
<path d="M137.278 173.456H135.227V175.508H137.278V173.456Z" fill="#F0F0F0"/>
<path d="M137.278 176.888H135.227V178.94H137.278V176.888Z" fill="#F0F0F0"/>
<path d="M137.278 180.327H135.227V182.378H137.278V180.327Z" fill="#F0F0F0"/>
<path d="M137.278 190.629H135.227V192.681H137.278V190.629Z" fill="#F0F0F0"/>
<path d="M137.278 194.061H135.227V196.113H137.278V194.061Z" fill="#F0F0F0"/>
<path d="M137.278 197.5H135.227V199.552H137.278V197.5Z" fill="#F0F0F0"/>
<path d="M173.915 140.497H171.863V142.549H173.915V140.497Z" fill="#F0F0F0"/>
<path d="M173.915 143.929H171.863V145.981H173.915V143.929Z" fill="#F0F0F0"/>
<path d="M173.915 147.368H171.863V149.42H173.915V147.368Z" fill="#F0F0F0"/>
<path d="M173.915 150.8H171.863V152.851H173.915V150.8Z" fill="#F0F0F0"/>
<path d="M173.915 154.231H171.863V156.283H173.915V154.231Z" fill="#F0F0F0"/>
<path d="M173.915 157.67H171.863V159.722H173.915V157.67Z" fill="#F0F0F0"/>
<path d="M173.915 161.102H171.863V163.154H173.915V161.102Z" fill="#F0F0F0"/>
<path d="M173.915 164.541H171.863V166.593H173.915V164.541Z" fill="#F0F0F0"/>
<path d="M173.915 174.843H171.863V176.895H173.915V174.843Z" fill="#F0F0F0"/>
<path d="M173.915 178.275H171.863V180.327H173.915V178.275Z" fill="#F0F0F0"/>
<path d="M177.166 140.497H175.114V142.549H177.166V140.497Z" fill="#F0F0F0"/>
<path d="M177.166 143.929H175.114V145.981H177.166V143.929Z" fill="#F0F0F0"/>
<path d="M177.166 147.368H175.114V149.42H177.166V147.368Z" fill="#F0F0F0"/>
<path d="M177.166 150.8H175.114V152.851H177.166V150.8Z" fill="#F0F0F0"/>
<path d="M177.166 154.231H175.114V156.283H177.166V154.231Z" fill="#F0F0F0"/>
<path d="M177.166 157.67H175.114V159.722H177.166V157.67Z" fill="#F0F0F0"/>
<path d="M177.166 161.102H175.114V163.154H177.166V161.102Z" fill="#F0F0F0"/>
<path d="M177.166 164.541H175.114V166.593H177.166V164.541Z" fill="#F0F0F0"/>
<path d="M177.166 178.275H175.114V180.327H177.166V178.275Z" fill="#F0F0F0"/>
<path d="M180.417 140.497H178.365V142.549H180.417V140.497Z" fill="#F0F0F0"/>
<path d="M180.417 143.929H178.365V145.981H180.417V143.929Z" fill="#F0F0F0"/>
<path d="M180.417 147.368H178.365V149.42H180.417V147.368Z" fill="#F0F0F0"/>
<path d="M180.417 150.8H178.365V152.851H180.417V150.8Z" fill="#F0F0F0"/>
<path d="M180.417 154.231H178.365V156.283H180.417V154.231Z" fill="#F0F0F0"/>
<path d="M180.417 157.67H178.365V159.722H180.417V157.67Z" fill="#F0F0F0"/>
<path d="M180.417 161.102H178.365V163.154H180.417V161.102Z" fill="#F0F0F0"/>
<path d="M180.417 164.541H178.365V166.593H180.417V164.541Z" fill="#F0F0F0"/>
<path d="M183.675 140.497H181.623V142.549H183.675V140.497Z" fill="#F0F0F0"/>
<path d="M183.675 143.929H181.623V145.981H183.675V143.929Z" fill="#F0F0F0"/>
<path d="M183.675 147.368H181.623V149.42H183.675V147.368Z" fill="#F0F0F0"/>
<path d="M183.675 150.8H181.623V152.851H183.675V150.8Z" fill="#F0F0F0"/>
<path d="M183.675 154.231H181.623V156.283H183.675V154.231Z" fill="#F0F0F0"/>
<path d="M183.675 157.67H181.623V159.722H183.675V157.67Z" fill="#F0F0F0"/>
<path d="M183.675 164.541H181.623V166.593H183.675V164.541Z" fill="#F0F0F0"/>
<path d="M183.675 167.973H181.623V170.024H183.675V167.973Z" fill="#F0F0F0"/>
<path d="M183.675 178.275H181.623V180.327H183.675V178.275Z" fill="#F0F0F0"/>
<path d="M183.675 181.714H181.623V183.766H183.675V181.714Z" fill="#F0F0F0"/>
<path d="M183.675 185.146H181.623V187.197H183.675V185.146Z" fill="#F0F0F0"/>
<path d="M183.675 188.577H181.623V190.629H183.675V188.577Z" fill="#F0F0F0"/>
<path d="M183.675 192.016H181.623V194.068H183.675V192.016Z" fill="#F0F0F0"/>
<path d="M183.675 195.448H181.623V197.5H183.675V195.448Z" fill="#F0F0F0"/>
<path d="M183.675 198.887H181.623V200.939H183.675V198.887Z" fill="#F0F0F0"/>
<path d="M186.926 140.497H184.874V142.549H186.926V140.497Z" fill="#F0F0F0"/>
<path d="M186.926 143.929H184.874V145.981H186.926V143.929Z" fill="#F0F0F0"/>
<path d="M186.926 147.368H184.874V149.42H186.926V147.368Z" fill="#F0F0F0"/>
<path d="M186.926 150.8H184.874V152.851H186.926V150.8Z" fill="#F0F0F0"/>
<path d="M186.926 154.231H184.874V156.283H186.926V154.231Z" fill="#F0F0F0"/>
<path d="M186.926 157.67H184.874V159.722H186.926V157.67Z" fill="#F0F0F0"/>
<path d="M186.926 167.973H184.874V170.024H186.926V167.973Z" fill="#F0F0F0"/>
<path d="M186.926 171.404H184.874V173.456H186.926V171.404Z" fill="#F0F0F0"/>
<path d="M186.926 174.843H184.874V176.895H186.926V174.843Z" fill="#F0F0F0"/>
<path d="M186.926 178.275H184.874V180.327H186.926V178.275Z" fill="#F0F0F0"/>
<path d="M186.926 181.714H184.874V183.766H186.926V181.714Z" fill="#F0F0F0"/>
<path d="M186.926 185.146H184.874V187.197H186.926V185.146Z" fill="#F0F0F0"/>
<path d="M186.926 188.577H184.874V190.629H186.926V188.577Z" fill="#F0F0F0"/>
<path d="M186.926 192.016H184.874V194.068H186.926V192.016Z" fill="#F0F0F0"/>
<path d="M186.926 195.448H184.874V197.5H186.926V195.448Z" fill="#F0F0F0"/>
<path d="M186.926 198.887H184.874V200.939H186.926V198.887Z" fill="#F0F0F0"/>
<path d="M186.926 202.318H184.874V204.37H186.926V202.318Z" fill="#F0F0F0"/>
<path d="M186.926 209.189H184.874V211.241H186.926V209.189Z" fill="#F0F0F0"/>
<path d="M190.177 140.497H188.125V142.549H190.177V140.497Z" fill="#F0F0F0"/>
<path d="M190.177 143.929H188.125V145.981H190.177V143.929Z" fill="#F0F0F0"/>
<path d="M190.177 147.368H188.125V149.42H190.177V147.368Z" fill="#F0F0F0"/>
<path d="M190.177 150.8H188.125V152.851H190.177V150.8Z" fill="#F0F0F0"/>
<path d="M190.177 154.231H188.125V156.283H190.177V154.231Z" fill="#F0F0F0"/>
<path d="M190.177 157.67H188.125V159.722H190.177V157.67Z" fill="#F0F0F0"/>
<path d="M190.177 167.973H188.125V170.024H190.177V167.973Z" fill="#F0F0F0"/>
<path d="M190.177 171.404H188.125V173.456H190.177V171.404Z" fill="#F0F0F0"/>
<path d="M190.177 174.843H188.125V176.895H190.177V174.843Z" fill="#F0F0F0"/>
<path d="M190.177 178.275H188.125V180.327H190.177V178.275Z" fill="#F0F0F0"/>
<path d="M190.177 188.577H188.125V190.629H190.177V188.577Z" fill="#F0F0F0"/>
<path d="M190.177 192.016H188.125V194.068H190.177V192.016Z" fill="#F0F0F0"/>
<path d="M190.177 195.448H188.125V197.5H190.177V195.448Z" fill="#F0F0F0"/>
<path d="M190.177 198.887H188.125V200.939H190.177V198.887Z" fill="#F0F0F0"/>
<path d="M190.177 202.318H188.125V204.37H190.177V202.318Z" fill="#F0F0F0"/>
<path d="M190.177 209.189H188.125V211.241H190.177V209.189Z" fill="#F0F0F0"/>
<path d="M190.177 212.621H188.125V214.673H190.177V212.621Z" fill="#F0F0F0"/>
<path d="M219.704 172.43H217.652V174.482H219.704V172.43Z" fill="#F0F0F0"/>
<path d="M219.704 175.869H217.652V177.921H219.704V175.869Z" fill="#F0F0F0"/>
<path d="M219.704 179.301H217.652V181.353H219.704V179.301Z" fill="#F0F0F0"/>
<path d="M219.704 182.733H217.652V184.784H219.704V182.733Z" fill="#F0F0F0"/>
<path d="M219.704 186.171H217.652V188.223H219.704V186.171Z" fill="#F0F0F0"/>
<path d="M219.704 189.603H217.652V191.655H219.704V189.603Z" fill="#F0F0F0"/>
<path d="M219.704 193.042H217.652V195.094H219.704V193.042Z" fill="#F0F0F0"/>
<path d="M219.704 203.345H217.652V205.396H219.704V203.345Z" fill="#F0F0F0"/>
<path d="M219.704 206.776H217.652V208.828H219.704V206.776Z" fill="#F0F0F0"/>
<path d="M219.704 210.215H217.652V212.267H219.704V210.215Z" fill="#F0F0F0"/>
<path d="M222.963 172.43H220.911V174.482H222.963V172.43Z" fill="#F0F0F0"/>
<path d="M222.963 175.869H220.911V177.921H222.963V175.869Z" fill="#F0F0F0"/>
<path d="M222.963 179.301H220.911V181.353H222.963V179.301Z" fill="#F0F0F0"/>
<path d="M222.963 182.733H220.911V184.784H222.963V182.733Z" fill="#F0F0F0"/>
<path d="M222.963 186.171H220.911V188.223H222.963V186.171Z" fill="#F0F0F0"/>
<path d="M222.963 189.603H220.911V191.655H222.963V189.603Z" fill="#F0F0F0"/>
<path d="M222.963 193.042H220.911V195.094H222.963V193.042Z" fill="#F0F0F0"/>
<path d="M226.214 172.43H224.162V174.482H226.214V172.43Z" fill="#F0F0F0"/>
<path d="M226.214 175.869H224.162V177.921H226.214V175.869Z" fill="#F0F0F0"/>
<path d="M226.214 179.301H224.162V181.353H226.214V179.301Z" fill="#F0F0F0"/>
<path d="M226.214 182.733H224.162V184.784H226.214V182.733Z" fill="#F0F0F0"/>
<path d="M226.214 186.171H224.162V188.223H226.214V186.171Z" fill="#F0F0F0"/>
<path d="M226.214 189.603H224.162V191.655H226.214V189.603Z" fill="#F0F0F0"/>
<path d="M226.214 193.042H224.162V195.094H226.214V193.042Z" fill="#F0F0F0"/>
<path d="M229.465 172.43H227.413V174.482H229.465V172.43Z" fill="#F0F0F0"/>
<path d="M229.465 175.869H227.413V177.921H229.465V175.869Z" fill="#F0F0F0"/>
<path d="M229.465 179.301H227.413V181.353H229.465V179.301Z" fill="#F0F0F0"/>
<path d="M229.465 182.733H227.413V184.784H229.465V182.733Z" fill="#F0F0F0"/>
<path d="M229.465 186.171H227.413V188.223H229.465V186.171Z" fill="#F0F0F0"/>
<path d="M229.465 189.603H227.413V191.655H229.465V189.603Z" fill="#F0F0F0"/>
<path d="M229.465 193.042H227.413V195.094H229.465V193.042Z" fill="#F0F0F0"/>
<path d="M229.465 196.474H227.413V198.526H229.465V196.474Z" fill="#F0F0F0"/>
<path d="M229.465 199.906H227.413V201.957H229.465V199.906Z" fill="#F0F0F0"/>
<path d="M229.465 203.345H227.413V205.396H229.465V203.345Z" fill="#F0F0F0"/>
<path d="M229.465 206.776H227.413V208.828H229.465V206.776Z" fill="#F0F0F0"/>
<path d="M232.724 172.43H230.672V174.482H232.724V172.43Z" fill="#F0F0F0"/>
<path d="M232.724 175.869H230.672V177.921H232.724V175.869Z" fill="#F0F0F0"/>
<path d="M232.724 179.301H230.672V181.353H232.724V179.301Z" fill="#F0F0F0"/>
<path d="M232.724 182.733H230.672V184.784H232.724V182.733Z" fill="#F0F0F0"/>
<path d="M232.724 186.171H230.672V188.223H232.724V186.171Z" fill="#F0F0F0"/>
<path d="M232.724 189.603H230.672V191.655H232.724V189.603Z" fill="#F0F0F0"/>
<path d="M232.724 193.042H230.672V195.094H232.724V193.042Z" fill="#F0F0F0"/>
<path d="M232.724 196.474H230.672V198.526H232.724V196.474Z" fill="#F0F0F0"/>
<path d="M232.724 199.906H230.672V201.957H232.724V199.906Z" fill="#F0F0F0"/>
<path d="M232.724 203.345H230.672V205.396H232.724V203.345Z" fill="#F0F0F0"/>
<path d="M232.724 206.776H230.672V208.828H232.724V206.776Z" fill="#F0F0F0"/>
<path d="M232.724 210.215H230.672V212.267H232.724V210.215Z" fill="#F0F0F0"/>
<path d="M232.724 220.518H230.672V222.569H232.724V220.518Z" fill="#F0F0F0"/>
<path d="M232.724 223.949H230.672V226.001H232.724V223.949Z" fill="#F0F0F0"/>
<path d="M235.975 172.43H233.923V174.482H235.975V172.43Z" fill="#F0F0F0"/>
<path d="M235.975 175.869H233.923V177.921H235.975V175.869Z" fill="#F0F0F0"/>
<path d="M235.975 179.301H233.923V181.353H235.975V179.301Z" fill="#F0F0F0"/>
<path d="M235.975 189.603H233.923V191.655H235.975V189.603Z" fill="#F0F0F0"/>
<path d="M235.975 193.042H233.923V195.094H235.975V193.042Z" fill="#F0F0F0"/>
<path d="M235.975 196.474H233.923V198.526H235.975V196.474Z" fill="#F0F0F0"/>
<path d="M235.975 199.906H233.923V201.957H235.975V199.906Z" fill="#F0F0F0"/>
<path d="M235.975 203.345H233.923V205.396H235.975V203.345Z" fill="#F0F0F0"/>
<path d="M235.975 206.776H233.923V208.828H235.975V206.776Z" fill="#F0F0F0"/>
<path d="M235.975 210.215H233.923V212.267H235.975V210.215Z" fill="#F0F0F0"/>
<path d="M235.975 220.518H233.923V222.569H235.975V220.518Z" fill="#F0F0F0"/>
<path d="M235.975 223.949H233.923V226.001H235.975V223.949Z" fill="#F0F0F0"/>
<path d="M235.975 227.388H233.923V229.44H235.975V227.388Z" fill="#F0F0F0"/>
<path d="M270.082 151.826H268.03V153.877H270.082V151.826Z" fill="#F0F0F0"/>
<path d="M270.082 155.257H268.03V157.309H270.082V155.257Z" fill="#F0F0F0"/>
<path d="M270.082 158.696H268.03V160.748H270.082V158.696Z" fill="#F0F0F0"/>
<path d="M270.082 162.128H268.03V164.18H270.082V162.128Z" fill="#F0F0F0"/>
<path d="M270.082 165.56H268.03V167.611H270.082V165.56Z" fill="#F0F0F0"/>
<path d="M270.082 168.999H268.03V171.05H270.082V168.999Z" fill="#F0F0F0"/>
<path d="M270.082 172.43H268.03V174.482H270.082V172.43Z" fill="#F0F0F0"/>
<path d="M270.082 175.869H268.03V177.921H270.082V175.869Z" fill="#F0F0F0"/>
<path d="M270.082 179.301H268.03V181.353H270.082V179.301Z" fill="#F0F0F0"/>
<path d="M270.082 182.733H268.03V184.784H270.082V182.733Z" fill="#F0F0F0"/>
<path d="M270.082 186.171H268.03V188.223H270.082V186.171Z" fill="#F0F0F0"/>
<path d="M270.082 189.603H268.03V191.655H270.082V189.603Z" fill="#F0F0F0"/>
<path d="M270.082 193.042H268.03V195.094H270.082V193.042Z" fill="#F0F0F0"/>
<path d="M270.082 196.474H268.03V198.526H270.082V196.474Z" fill="#F0F0F0"/>
<path d="M270.082 199.906H268.03V201.957H270.082V199.906Z" fill="#F0F0F0"/>
<path d="M270.082 203.345H268.03V205.396H270.082V203.345Z" fill="#F0F0F0"/>
<path d="M270.082 206.776H268.03V208.828H270.082V206.776Z" fill="#F0F0F0"/>
<path d="M270.082 210.215H268.03V212.267H270.082V210.215Z" fill="#F0F0F0"/>
<path d="M270.082 213.647H268.03V215.699H270.082V213.647Z" fill="#F0F0F0"/>
<path d="M270.082 217.079H268.03V219.13H270.082V217.079Z" fill="#F0F0F0"/>
<path d="M270.082 220.518H268.03V222.569H270.082V220.518Z" fill="#F0F0F0"/>
<path d="M270.082 223.949H268.03V226.001H270.082V223.949Z" fill="#F0F0F0"/>
<path d="M270.082 227.388H268.03V229.44H270.082V227.388Z" fill="#F0F0F0"/>
<path d="M273.333 151.826H271.281V153.877H273.333V151.826Z" fill="#F0F0F0"/>
<path d="M273.333 155.257H271.281V157.309H273.333V155.257Z" fill="#F0F0F0"/>
<path d="M273.333 158.696H271.281V160.748H273.333V158.696Z" fill="#F0F0F0"/>
<path d="M273.333 162.128H271.281V164.18H273.333V162.128Z" fill="#F0F0F0"/>
<path d="M273.333 165.56H271.281V167.611H273.333V165.56Z" fill="#F0F0F0"/>
<path d="M273.333 168.999H271.281V171.05H273.333V168.999Z" fill="#F0F0F0"/>
<path d="M273.333 172.43H271.281V174.482H273.333V172.43Z" fill="#F0F0F0"/>
<path d="M273.333 175.869H271.281V177.921H273.333V175.869Z" fill="#F0F0F0"/>
<path d="M273.333 179.301H271.281V181.353H273.333V179.301Z" fill="#F0F0F0"/>
<path d="M273.333 182.733H271.281V184.784H273.333V182.733Z" fill="#F0F0F0"/>
<path d="M273.333 186.171H271.281V188.223H273.333V186.171Z" fill="#F0F0F0"/>
<path d="M273.333 189.603H271.281V191.655H273.333V189.603Z" fill="#F0F0F0"/>
<path d="M273.333 193.042H271.281V195.094H273.333V193.042Z" fill="#F0F0F0"/>
<path d="M273.333 196.474H271.281V198.526H273.333V196.474Z" fill="#F0F0F0"/>
<path d="M273.333 199.906H271.281V201.957H273.333V199.906Z" fill="#F0F0F0"/>
<path d="M273.333 203.345H271.281V205.396H273.333V203.345Z" fill="#F0F0F0"/>
<path d="M273.333 206.776H271.281V208.828H273.333V206.776Z" fill="#F0F0F0"/>
<path d="M273.333 210.215H271.281V212.267H273.333V210.215Z" fill="#F0F0F0"/>
<path d="M273.333 213.647H271.281V215.699H273.333V213.647Z" fill="#F0F0F0"/>
<path d="M276.592 151.826H274.54V153.877H276.592V151.826Z" fill="#F0F0F0"/>
<path d="M276.592 155.257H274.54V157.309H276.592V155.257Z" fill="#F0F0F0"/>
<path d="M276.592 158.696H274.54V160.748H276.592V158.696Z" fill="#F0F0F0"/>
<path d="M276.592 162.128H274.54V164.18H276.592V162.128Z" fill="#F0F0F0"/>
<path d="M276.592 165.56H274.54V167.611H276.592V165.56Z" fill="#F0F0F0"/>
<path d="M276.592 168.999H274.54V171.05H276.592V168.999Z" fill="#F0F0F0"/>
<path d="M276.592 172.43H274.54V174.482H276.592V172.43Z" fill="#F0F0F0"/>
<path d="M276.592 175.869H274.54V177.921H276.592V175.869Z" fill="#F0F0F0"/>
<path d="M276.592 179.301H274.54V181.353H276.592V179.301Z" fill="#F0F0F0"/>
<path d="M276.592 182.733H274.54V184.784H276.592V182.733Z" fill="#F0F0F0"/>
<path d="M276.592 186.171H274.54V188.223H276.592V186.171Z" fill="#F0F0F0"/>
<path d="M276.592 189.603H274.54V191.655H276.592V189.603Z" fill="#F0F0F0"/>
<path d="M276.592 193.042H274.54V195.094H276.592V193.042Z" fill="#F0F0F0"/>
<path d="M276.592 196.474H274.54V198.526H276.592V196.474Z" fill="#F0F0F0"/>
<path d="M276.592 199.906H274.54V201.957H276.592V199.906Z" fill="#F0F0F0"/>
<path d="M276.592 203.345H274.54V205.396H276.592V203.345Z" fill="#F0F0F0"/>
<path d="M276.592 206.776H274.54V208.828H276.592V206.776Z" fill="#F0F0F0"/>
<path d="M276.592 210.215H274.54V212.267H276.592V210.215Z" fill="#F0F0F0"/>
<path d="M276.592 213.647H274.54V215.699H276.592V213.647Z" fill="#F0F0F0"/>
<path d="M279.843 151.826H277.791V153.877H279.843V151.826Z" fill="#F0F0F0"/>
<path d="M279.843 155.257H277.791V157.309H279.843V155.257Z" fill="#F0F0F0"/>
<path d="M279.843 158.696H277.791V160.748H279.843V158.696Z" fill="#F0F0F0"/>
<path d="M279.843 162.128H277.791V164.18H279.843V162.128Z" fill="#F0F0F0"/>
<path d="M279.843 165.56H277.791V167.611H279.843V165.56Z" fill="#F0F0F0"/>
<path d="M279.843 168.999H277.791V171.05H279.843V168.999Z" fill="#F0F0F0"/>
<path d="M279.843 172.43H277.791V174.482H279.843V172.43Z" fill="#F0F0F0"/>
<path d="M279.843 175.869H277.791V177.921H279.843V175.869Z" fill="#F0F0F0"/>
<path d="M279.843 179.301H277.791V181.353H279.843V179.301Z" fill="#F0F0F0"/>
<path d="M279.843 182.733H277.791V184.784H279.843V182.733Z" fill="#F0F0F0"/>
<path d="M279.843 186.171H277.791V188.223H279.843V186.171Z" fill="#F0F0F0"/>
<path d="M279.843 189.603H277.791V191.655H279.843V189.603Z" fill="#F0F0F0"/>
<path d="M279.843 193.042H277.791V195.094H279.843V193.042Z" fill="#F0F0F0"/>
<path d="M279.843 196.474H277.791V198.526H279.843V196.474Z" fill="#F0F0F0"/>
<path d="M279.843 199.906H277.791V201.957H279.843V199.906Z" fill="#F0F0F0"/>
<path d="M283.094 151.826H281.042V153.877H283.094V151.826Z" fill="#F0F0F0"/>
<path d="M283.094 155.257H281.042V157.309H283.094V155.257Z" fill="#F0F0F0"/>
<path d="M283.094 158.696H281.042V160.748H283.094V158.696Z" fill="#F0F0F0"/>
<path d="M283.094 162.128H281.042V164.18H283.094V162.128Z" fill="#F0F0F0"/>
<path d="M283.094 165.56H281.042V167.611H283.094V165.56Z" fill="#F0F0F0"/>
<path d="M283.094 168.999H281.042V171.05H283.094V168.999Z" fill="#F0F0F0"/>
<path d="M283.094 172.43H281.042V174.482H283.094V172.43Z" fill="#F0F0F0"/>
<path d="M283.094 175.869H281.042V177.921H283.094V175.869Z" fill="#F0F0F0"/>
<path d="M283.094 179.301H281.042V181.353H283.094V179.301Z" fill="#F0F0F0"/>
<path d="M283.094 182.733H281.042V184.784H283.094V182.733Z" fill="#F0F0F0"/>
<path d="M283.094 186.171H281.042V188.223H283.094V186.171Z" fill="#F0F0F0"/>
<path d="M283.094 189.603H281.042V191.655H283.094V189.603Z" fill="#F0F0F0"/>
<path d="M283.094 193.042H281.042V195.094H283.094V193.042Z" fill="#F0F0F0"/>
<path d="M286.352 151.826H284.3V153.877H286.352V151.826Z" fill="#F0F0F0"/>
<path d="M286.352 155.257H284.3V157.309H286.352V155.257Z" fill="#F0F0F0"/>
<path d="M286.352 158.696H284.3V160.748H286.352V158.696Z" fill="#F0F0F0"/>
<path d="M286.352 162.128H284.3V164.18H286.352V162.128Z" fill="#F0F0F0"/>
<path d="M286.352 165.56H284.3V167.611H286.352V165.56Z" fill="#F0F0F0"/>
<path d="M286.352 168.999H284.3V171.05H286.352V168.999Z" fill="#F0F0F0"/>
<path d="M286.352 172.43H284.3V174.482H286.352V172.43Z" fill="#F0F0F0"/>
<path d="M286.352 175.869H284.3V177.921H286.352V175.869Z" fill="#F0F0F0"/>
<path d="M286.352 179.301H284.3V181.353H286.352V179.301Z" fill="#F0F0F0"/>
<path d="M286.352 182.733H284.3V184.784H286.352V182.733Z" fill="#F0F0F0"/>
<path d="M286.352 186.171H284.3V188.223H286.352V186.171Z" fill="#F0F0F0"/>
<path d="M286.352 189.603H284.3V191.655H286.352V189.603Z" fill="#F0F0F0"/>
<path d="M47.252 176.888H45.2002V178.94H47.252V176.888Z" fill="#F0F0F0"/>
<path d="M47.252 180.327H45.2002V182.378H47.252V180.327Z" fill="#F0F0F0"/>
<path d="M47.252 183.758H45.2002V185.81H47.252V183.758Z" fill="#F0F0F0"/>
<path d="M47.252 187.197H45.2002V189.249H47.252V187.197Z" fill="#F0F0F0"/>
<path d="M47.252 190.629H45.2002V192.681H47.252V190.629Z" fill="#F0F0F0"/>
<path d="M47.252 194.061H45.2002V196.113H47.252V194.061Z" fill="#F0F0F0"/>
<path d="M47.252 197.5H45.2002V199.552H47.252V197.5Z" fill="#F0F0F0"/>
<path d="M47.252 200.931H45.2002V202.983H47.252V200.931Z" fill="#F0F0F0"/>
<path d="M47.252 204.37H45.2002V206.422H47.252V204.37Z" fill="#F0F0F0"/>
<path d="M47.252 207.802H45.2002V209.854H47.252V207.802Z" fill="#F0F0F0"/>
<path d="M47.252 211.234H45.2002V213.286H47.252V211.234Z" fill="#F0F0F0"/>
<path d="M47.252 214.673H45.2002V216.725H47.252V214.673Z" fill="#F0F0F0"/>
<path d="M47.252 218.104H45.2002V220.156H47.252V218.104Z" fill="#F0F0F0"/>
<path d="M47.252 221.543H45.2002V223.595H47.252V221.543Z" fill="#F0F0F0"/>
<path d="M47.252 224.975H45.2002V227.027H47.252V224.975Z" fill="#F0F0F0"/>
<path d="M47.252 228.407H45.2002V230.459H47.252V228.407Z" fill="#F0F0F0"/>
<path d="M47.252 231.846H45.2002V233.898H47.252V231.846Z" fill="#F0F0F0"/>
<path d="M47.252 235.277H45.2002V237.329H47.252V235.277Z" fill="#F0F0F0"/>
<path d="M47.252 238.716H45.2002V240.768H47.252V238.716Z" fill="#F0F0F0"/>
<path d="M47.252 242.148H45.2002V244.2H47.252V242.148Z" fill="#F0F0F0"/>
<path d="M50.503 176.888H48.4512V178.94H50.503V176.888Z" fill="#F0F0F0"/>
<path d="M50.503 180.327H48.4512V182.378H50.503V180.327Z" fill="#F0F0F0"/>
<path d="M50.503 183.758H48.4512V185.81H50.503V183.758Z" fill="#F0F0F0"/>
<path d="M50.503 187.197H48.4512V189.249H50.503V187.197Z" fill="#F0F0F0"/>
<path d="M50.503 190.629H48.4512V192.681H50.503V190.629Z" fill="#F0F0F0"/>
<path d="M50.503 194.061H48.4512V196.113H50.503V194.061Z" fill="#F0F0F0"/>
<path d="M50.503 197.5H48.4512V199.552H50.503V197.5Z" fill="#F0F0F0"/>
<path d="M50.503 200.931H48.4512V202.983H50.503V200.931Z" fill="#F0F0F0"/>
<path d="M50.503 204.37H48.4512V206.422H50.503V204.37Z" fill="#F0F0F0"/>
<path d="M50.503 207.802H48.4512V209.854H50.503V207.802Z" fill="#F0F0F0"/>
<path d="M50.503 211.234H48.4512V213.286H50.503V211.234Z" fill="#F0F0F0"/>
<path d="M50.503 214.673H48.4512V216.725H50.503V214.673Z" fill="#F0F0F0"/>
<path d="M50.503 218.104H48.4512V220.156H50.503V218.104Z" fill="#F0F0F0"/>
<path d="M50.503 221.543H48.4512V223.595H50.503V221.543Z" fill="#F0F0F0"/>
<path d="M50.503 224.975H48.4512V227.027H50.503V224.975Z" fill="#F0F0F0"/>
<path d="M50.503 228.407H48.4512V230.459H50.503V228.407Z" fill="#F0F0F0"/>
<path d="M50.503 231.846H48.4512V233.898H50.503V231.846Z" fill="#F0F0F0"/>
<path d="M50.503 235.277H48.4512V237.329H50.503V235.277Z" fill="#F0F0F0"/>
<path d="M53.7618 176.888H51.71V178.94H53.7618V176.888Z" fill="#F0F0F0"/>
<path d="M53.7618 180.327H51.71V182.378H53.7618V180.327Z" fill="#F0F0F0"/>
<path d="M53.7618 183.758H51.71V185.81H53.7618V183.758Z" fill="#F0F0F0"/>
<path d="M53.7618 187.197H51.71V189.249H53.7618V187.197Z" fill="#F0F0F0"/>
<path d="M53.7618 190.629H51.71V192.681H53.7618V190.629Z" fill="#F0F0F0"/>
<path d="M53.7618 194.061H51.71V196.113H53.7618V194.061Z" fill="#F0F0F0"/>
<path d="M53.7618 197.5H51.71V199.552H53.7618V197.5Z" fill="#F0F0F0"/>
<path d="M53.7618 200.931H51.71V202.983H53.7618V200.931Z" fill="#F0F0F0"/>
<path d="M53.7618 204.37H51.71V206.422H53.7618V204.37Z" fill="#F0F0F0"/>
<path d="M53.7618 207.802H51.71V209.854H53.7618V207.802Z" fill="#F0F0F0"/>
<path d="M53.7618 211.234H51.71V213.286H53.7618V211.234Z" fill="#F0F0F0"/>
<path d="M53.7618 214.673H51.71V216.725H53.7618V214.673Z" fill="#F0F0F0"/>
<path d="M53.7618 218.104H51.71V220.156H53.7618V218.104Z" fill="#F0F0F0"/>
<path d="M53.7618 221.543H51.71V223.595H53.7618V221.543Z" fill="#F0F0F0"/>
<path d="M53.7618 224.975H51.71V227.027H53.7618V224.975Z" fill="#F0F0F0"/>
<path d="M53.7618 228.407H51.71V230.459H53.7618V228.407Z" fill="#F0F0F0"/>
<path d="M53.7618 231.846H51.71V233.898H53.7618V231.846Z" fill="#F0F0F0"/>
<path d="M53.7618 235.277H51.71V237.329H53.7618V235.277Z" fill="#F0F0F0"/>
<path d="M35.0782 201.957H33.0264V204.009H35.0782V201.957Z" fill="#F0F0F0"/>
<path d="M35.0782 205.389H33.0264V207.441H35.0782V205.389Z" fill="#F0F0F0"/>
<path d="M35.0782 208.828H33.0264V210.88H35.0782V208.828Z" fill="#F0F0F0"/>
<path d="M35.0782 212.26H33.0264V214.312H35.0782V212.26Z" fill="#F0F0F0"/>
<path d="M35.0782 215.699H33.0264V217.751H35.0782V215.699Z" fill="#F0F0F0"/>
<path d="M35.0782 219.13H33.0264V221.182H35.0782V219.13Z" fill="#F0F0F0"/>
<path d="M35.0782 222.562H33.0264V224.614H35.0782V222.562Z" fill="#F0F0F0"/>
<path d="M35.0782 226.001H33.0264V228.053H35.0782V226.001Z" fill="#F0F0F0"/>
<path d="M35.0782 229.433H33.0264V231.485H35.0782V229.433Z" fill="#F0F0F0"/>
<path d="M35.0782 232.872H33.0264V234.923H35.0782V232.872Z" fill="#F0F0F0"/>
<path d="M35.0782 236.303H33.0264V238.355H35.0782V236.303Z" fill="#F0F0F0"/>
<path d="M35.0782 239.742H33.0264V241.794H35.0782V239.742Z" fill="#F0F0F0"/>
<path d="M35.0782 243.174H33.0264V245.226H35.0782V243.174Z" fill="#F0F0F0"/>
<path d="M38.337 201.957H36.2852V204.009H38.337V201.957Z" fill="#F0F0F0"/>
<path d="M38.337 205.389H36.2852V207.441H38.337V205.389Z" fill="#F0F0F0"/>
<path d="M38.337 208.828H36.2852V210.88H38.337V208.828Z" fill="#F0F0F0"/>
<path d="M38.337 212.26H36.2852V214.312H38.337V212.26Z" fill="#F0F0F0"/>
<path d="M38.337 215.699H36.2852V217.751H38.337V215.699Z" fill="#F0F0F0"/>
<path d="M38.337 219.13H36.2852V221.182H38.337V219.13Z" fill="#F0F0F0"/>
<path d="M38.337 222.562H36.2852V224.614H38.337V222.562Z" fill="#F0F0F0"/>
<path d="M38.337 226.001H36.2852V228.053H38.337V226.001Z" fill="#F0F0F0"/>
<path d="M38.337 229.433H36.2852V231.485H38.337V229.433Z" fill="#F0F0F0"/>
<path d="M38.337 232.872H36.2852V234.923H38.337V232.872Z" fill="#F0F0F0"/>
<path d="M38.337 236.303H36.2852V238.355H38.337V236.303Z" fill="#F0F0F0"/>
<path d="M38.337 239.742H36.2852V241.794H38.337V239.742Z" fill="#F0F0F0"/>
<path d="M38.337 243.174H36.2852V245.226H38.337V243.174Z" fill="#F0F0F0"/>
<path d="M41.5879 201.957H39.5361V204.009H41.5879V201.957Z" fill="#F0F0F0"/>
<path d="M41.5879 205.389H39.5361V207.441H41.5879V205.389Z" fill="#F0F0F0"/>
<path d="M41.5879 208.828H39.5361V210.88H41.5879V208.828Z" fill="#F0F0F0"/>
<path d="M41.5879 212.26H39.5361V214.312H41.5879V212.26Z" fill="#F0F0F0"/>
<path d="M41.5879 215.699H39.5361V217.751H41.5879V215.699Z" fill="#F0F0F0"/>
<path d="M41.5879 219.13H39.5361V221.182H41.5879V219.13Z" fill="#F0F0F0"/>
<path d="M41.5879 222.562H39.5361V224.614H41.5879V222.562Z" fill="#F0F0F0"/>
<path d="M41.5879 226.001H39.5361V228.053H41.5879V226.001Z" fill="#F0F0F0"/>
<path d="M41.5879 229.433H39.5361V231.485H41.5879V229.433Z" fill="#F0F0F0"/>
<path d="M41.5879 232.872H39.5361V234.923H41.5879V232.872Z" fill="#F0F0F0"/>
<path d="M41.5879 236.303H39.5361V238.355H41.5879V236.303Z" fill="#F0F0F0"/>
<path d="M41.5879 239.742H39.5361V241.794H41.5879V239.742Z" fill="#F0F0F0"/>
<path d="M41.5879 243.174H39.5361V245.226H41.5879V243.174Z" fill="#F0F0F0"/>
<path d="M41.5879 246.606H39.5361V248.658H41.5879V246.606Z" fill="#F0F0F0"/>
<path d="M59.6641 202.983H57.6123V205.035H59.6641V202.983Z" fill="#F0F0F0"/>
<path d="M59.6641 206.415H57.6123V208.467H59.6641V206.415Z" fill="#F0F0F0"/>
<path d="M59.6641 209.854H57.6123V211.906H59.6641V209.854Z" fill="#F0F0F0"/>
<path d="M59.6641 213.286H57.6123V215.337H59.6641V213.286Z" fill="#F0F0F0"/>
<path d="M59.6641 216.717H57.6123V218.769H59.6641V216.717Z" fill="#F0F0F0"/>
<path d="M59.6641 220.156H57.6123V222.208H59.6641V220.156Z" fill="#F0F0F0"/>
<path d="M59.6641 223.588H57.6123V225.64H59.6641V223.588Z" fill="#F0F0F0"/>
<path d="M59.6641 227.027H57.6123V229.079H59.6641V227.027Z" fill="#F0F0F0"/>
<path d="M59.6641 230.459H57.6123V232.51H59.6641V230.459Z" fill="#F0F0F0"/>
<path d="M59.6641 233.89H57.6123V235.942H59.6641V233.89Z" fill="#F0F0F0"/>
<path d="M59.6641 244.2H57.6123V246.252H59.6641V244.2Z" fill="#F0F0F0"/>
<path d="M62.9151 202.983H60.8633V205.035H62.9151V202.983Z" fill="#F0F0F0"/>
<path d="M62.9151 206.415H60.8633V208.467H62.9151V206.415Z" fill="#F0F0F0"/>
<path d="M62.9151 209.854H60.8633V211.906H62.9151V209.854Z" fill="#F0F0F0"/>
<path d="M62.9151 213.286H60.8633V215.337H62.9151V213.286Z" fill="#F0F0F0"/>
<path d="M62.9151 216.717H60.8633V218.769H62.9151V216.717Z" fill="#F0F0F0"/>
<path d="M62.9151 220.156H60.8633V222.208H62.9151V220.156Z" fill="#F0F0F0"/>
<path d="M62.9151 223.588H60.8633V225.64H62.9151V223.588Z" fill="#F0F0F0"/>
<path d="M62.9151 227.027H60.8633V229.079H62.9151V227.027Z" fill="#F0F0F0"/>
<path d="M62.9151 230.459H60.8633V232.51H62.9151V230.459Z" fill="#F0F0F0"/>
<path d="M62.9151 240.761H60.8633V242.813H62.9151V240.761Z" fill="#F0F0F0"/>
<path d="M62.9151 244.2H60.8633V246.252H62.9151V244.2Z" fill="#F0F0F0"/>
<path d="M66.1729 202.983H64.1211V205.035H66.1729V202.983Z" fill="#F0F0F0"/>
<path d="M66.1729 206.415H64.1211V208.467H66.1729V206.415Z" fill="#F0F0F0"/>
<path d="M66.1729 209.854H64.1211V211.906H66.1729V209.854Z" fill="#F0F0F0"/>
<path d="M66.1729 213.286H64.1211V215.337H66.1729V213.286Z" fill="#F0F0F0"/>
<path d="M66.1729 216.717H64.1211V218.769H66.1729V216.717Z" fill="#F0F0F0"/>
<path d="M66.1729 220.156H64.1211V222.208H66.1729V220.156Z" fill="#F0F0F0"/>
<path d="M66.1729 223.588H64.1211V225.64H66.1729V223.588Z" fill="#F0F0F0"/>
<path d="M66.1729 227.027H64.1211V229.079H66.1729V227.027Z" fill="#F0F0F0"/>
<path d="M66.1729 237.329H64.1211V239.381H66.1729V237.329Z" fill="#F0F0F0"/>
<path d="M66.1729 240.761H64.1211V242.813H66.1729V240.761Z" fill="#F0F0F0"/>
<path d="M66.1729 244.2H64.1211V246.252H66.1729V244.2Z" fill="#F0F0F0"/>
<path d="M96.4229 150.8H94.3711V152.851H96.4229V150.8Z" fill="#F0F0F0"/>
<path d="M96.4229 154.231H94.3711V156.283H96.4229V154.231Z" fill="#F0F0F0"/>
<path d="M96.4229 157.67H94.3711V159.722H96.4229V157.67Z" fill="#F0F0F0"/>
<path d="M96.4229 161.102H94.3711V163.154H96.4229V161.102Z" fill="#F0F0F0"/>
<path d="M96.4229 164.541H94.3711V166.593H96.4229V164.541Z" fill="#F0F0F0"/>
<path d="M96.4229 167.973H94.3711V170.024H96.4229V167.973Z" fill="#F0F0F0"/>
<path d="M96.4229 171.404H94.3711V173.456H96.4229V171.404Z" fill="#F0F0F0"/>
<path d="M96.4229 174.843H94.3711V176.895H96.4229V174.843Z" fill="#F0F0F0"/>
<path d="M96.4229 178.275H94.3711V180.327H96.4229V178.275Z" fill="#F0F0F0"/>
<path d="M96.4229 181.714H94.3711V183.766H96.4229V181.714Z" fill="#F0F0F0"/>
<path d="M96.4229 185.146H94.3711V187.197H96.4229V185.146Z" fill="#F0F0F0"/>
<path d="M96.4229 188.577H94.3711V190.629H96.4229V188.577Z" fill="#F0F0F0"/>
<path d="M96.4229 192.016H94.3711V194.068H96.4229V192.016Z" fill="#F0F0F0"/>
<path d="M96.4229 195.448H94.3711V197.5H96.4229V195.448Z" fill="#F0F0F0"/>
<path d="M96.4229 198.887H94.3711V200.939H96.4229V198.887Z" fill="#F0F0F0"/>
<path d="M96.4229 202.318H94.3711V204.37H96.4229V202.318Z" fill="#F0F0F0"/>
<path d="M96.4229 205.75H94.3711V207.802H96.4229V205.75Z" fill="#F0F0F0"/>
<path d="M96.4229 212.621H94.3711V214.673H96.4229V212.621Z" fill="#F0F0F0"/>
<path d="M96.4229 216.06H94.3711V218.112H96.4229V216.06Z" fill="#F0F0F0"/>
<path d="M96.4229 219.492H94.3711V221.543H96.4229V219.492Z" fill="#F0F0F0"/>
<path d="M96.4229 222.931H94.3711V224.982H96.4229V222.931Z" fill="#F0F0F0"/>
<path d="M96.4229 226.362H94.3711V228.414H96.4229V226.362Z" fill="#F0F0F0"/>
<path d="M99.6739 150.8H97.6221V152.851H99.6739V150.8Z" fill="#F0F0F0"/>
<path d="M99.6739 154.231H97.6221V156.283H99.6739V154.231Z" fill="#F0F0F0"/>
<path d="M99.6739 157.67H97.6221V159.722H99.6739V157.67Z" fill="#F0F0F0"/>
<path d="M99.6739 161.102H97.6221V163.154H99.6739V161.102Z" fill="#F0F0F0"/>
<path d="M99.6739 164.541H97.6221V166.593H99.6739V164.541Z" fill="#F0F0F0"/>
<path d="M99.6739 167.973H97.6221V170.024H99.6739V167.973Z" fill="#F0F0F0"/>
<path d="M99.6739 171.404H97.6221V173.456H99.6739V171.404Z" fill="#F0F0F0"/>
<path d="M99.6739 174.843H97.6221V176.895H99.6739V174.843Z" fill="#F0F0F0"/>
<path d="M99.6739 178.275H97.6221V180.327H99.6739V178.275Z" fill="#F0F0F0"/>
<path d="M99.6739 181.714H97.6221V183.766H99.6739V181.714Z" fill="#F0F0F0"/>
<path d="M99.6739 185.146H97.6221V187.197H99.6739V185.146Z" fill="#F0F0F0"/>
<path d="M99.6739 188.577H97.6221V190.629H99.6739V188.577Z" fill="#F0F0F0"/>
<path d="M99.6739 192.016H97.6221V194.068H99.6739V192.016Z" fill="#F0F0F0"/>
<path d="M99.6739 195.448H97.6221V197.5H99.6739V195.448Z" fill="#F0F0F0"/>
<path d="M99.6739 198.887H97.6221V200.939H99.6739V198.887Z" fill="#F0F0F0"/>
<path d="M99.6739 202.318H97.6221V204.37H99.6739V202.318Z" fill="#F0F0F0"/>
<path d="M99.6739 222.931H97.6221V224.982H99.6739V222.931Z" fill="#F0F0F0"/>
<path d="M99.6739 226.362H97.6221V228.414H99.6739V226.362Z" fill="#F0F0F0"/>
<path d="M102.926 150.8H100.874V152.851H102.926V150.8Z" fill="#F0F0F0"/>
<path d="M102.926 154.231H100.874V156.283H102.926V154.231Z" fill="#F0F0F0"/>
<path d="M102.926 157.67H100.874V159.722H102.926V157.67Z" fill="#F0F0F0"/>
<path d="M102.926 161.102H100.874V163.154H102.926V161.102Z" fill="#F0F0F0"/>
<path d="M102.926 164.541H100.874V166.593H102.926V164.541Z" fill="#F0F0F0"/>
<path d="M102.926 167.973H100.874V170.024H102.926V167.973Z" fill="#F0F0F0"/>
<path d="M102.926 171.404H100.874V173.456H102.926V171.404Z" fill="#F0F0F0"/>
<path d="M102.926 174.843H100.874V176.895H102.926V174.843Z" fill="#F0F0F0"/>
<path d="M102.926 178.275H100.874V180.327H102.926V178.275Z" fill="#F0F0F0"/>
<path d="M102.926 181.714H100.874V183.766H102.926V181.714Z" fill="#F0F0F0"/>
<path d="M102.926 185.146H100.874V187.197H102.926V185.146Z" fill="#F0F0F0"/>
<path d="M102.926 188.577H100.874V190.629H102.926V188.577Z" fill="#F0F0F0"/>
<path d="M102.926 192.016H100.874V194.068H102.926V192.016Z" fill="#F0F0F0"/>
<path d="M102.926 195.448H100.874V197.5H102.926V195.448Z" fill="#F0F0F0"/>
<path d="M102.926 198.887H100.874V200.939H102.926V198.887Z" fill="#F0F0F0"/>
<path d="M102.926 202.318H100.874V204.37H102.926V202.318Z" fill="#F0F0F0"/>
<path d="M102.926 209.189H100.874V211.241H102.926V209.189Z" fill="#F0F0F0"/>
<path d="M102.926 212.621H100.874V214.673H102.926V212.621Z" fill="#F0F0F0"/>
<path d="M102.926 216.06H100.874V218.112H102.926V216.06Z" fill="#F0F0F0"/>
<path d="M102.926 219.492H100.874V221.543H102.926V219.492Z" fill="#F0F0F0"/>
<path d="M102.926 226.362H100.874V228.414H102.926V226.362Z" fill="#F0F0F0"/>
<path d="M84.6104 194.061H82.5586V196.113H84.6104V194.061Z" fill="#F0F0F0"/>
<path d="M84.6104 197.5H82.5586V199.552H84.6104V197.5Z" fill="#F0F0F0"/>
<path d="M84.6104 200.931H82.5586V202.983H84.6104V200.931Z" fill="#F0F0F0"/>
<path d="M84.6104 204.37H82.5586V206.422H84.6104V204.37Z" fill="#F0F0F0"/>
<path d="M84.6104 207.802H82.5586V209.854H84.6104V207.802Z" fill="#F0F0F0"/>
<path d="M84.6104 211.234H82.5586V213.286H84.6104V211.234Z" fill="#F0F0F0"/>
<path d="M84.6104 214.673H82.5586V216.725H84.6104V214.673Z" fill="#F0F0F0"/>
<path d="M84.6104 221.543H82.5586V223.595H84.6104V221.543Z" fill="#F0F0F0"/>
<path d="M84.6104 224.975H82.5586V227.027H84.6104V224.975Z" fill="#F0F0F0"/>
<path d="M84.6104 228.407H82.5586V230.459H84.6104V228.407Z" fill="#F0F0F0"/>
<path d="M84.6104 231.846H82.5586V233.898H84.6104V231.846Z" fill="#F0F0F0"/>
<path d="M84.6104 235.277H82.5586V237.329H84.6104V235.277Z" fill="#F0F0F0"/>
<path d="M84.6104 238.716H82.5586V240.768H84.6104V238.716Z" fill="#F0F0F0"/>
<path d="M84.6104 242.148H82.5586V244.2H84.6104V242.148Z" fill="#F0F0F0"/>
<path d="M84.6104 245.587H82.5586V247.639H84.6104V245.587Z" fill="#F0F0F0"/>
<path d="M87.8614 194.061H85.8096V196.113H87.8614V194.061Z" fill="#F0F0F0"/>
<path d="M87.8614 197.5H85.8096V199.552H87.8614V197.5Z" fill="#F0F0F0"/>
<path d="M87.8614 200.931H85.8096V202.983H87.8614V200.931Z" fill="#F0F0F0"/>
<path d="M87.8614 204.37H85.8096V206.422H87.8614V204.37Z" fill="#F0F0F0"/>
<path d="M87.8614 207.802H85.8096V209.854H87.8614V207.802Z" fill="#F0F0F0"/>
<path d="M87.8614 211.234H85.8096V213.286H87.8614V211.234Z" fill="#F0F0F0"/>
<path d="M87.8614 221.543H85.8096V223.595H87.8614V221.543Z" fill="#F0F0F0"/>
<path d="M87.8614 224.975H85.8096V227.027H87.8614V224.975Z" fill="#F0F0F0"/>
<path d="M87.8614 228.407H85.8096V230.459H87.8614V228.407Z" fill="#F0F0F0"/>
<path d="M87.8614 231.846H85.8096V233.898H87.8614V231.846Z" fill="#F0F0F0"/>
<path d="M87.8614 235.277H85.8096V237.329H87.8614V235.277Z" fill="#F0F0F0"/>
<path d="M87.8614 238.716H85.8096V240.768H87.8614V238.716Z" fill="#F0F0F0"/>
<path d="M87.8614 242.148H85.8096V244.2H87.8614V242.148Z" fill="#F0F0F0"/>
<path d="M87.8614 245.587H85.8096V247.639H87.8614V245.587Z" fill="#F0F0F0"/>
<path d="M91.1202 194.061H89.0684V196.113H91.1202V194.061Z" fill="#F0F0F0"/>
<path d="M91.1202 197.5H89.0684V199.552H91.1202V197.5Z" fill="#F0F0F0"/>
<path d="M91.1202 200.931H89.0684V202.983H91.1202V200.931Z" fill="#F0F0F0"/>
<path d="M91.1202 204.37H89.0684V206.422H91.1202V204.37Z" fill="#F0F0F0"/>
<path d="M91.1202 207.802H89.0684V209.854H91.1202V207.802Z" fill="#F0F0F0"/>
<path d="M91.1202 211.234H89.0684V213.286H91.1202V211.234Z" fill="#F0F0F0"/>
<path d="M91.1202 218.104H89.0684V220.156H91.1202V218.104Z" fill="#F0F0F0"/>
<path d="M91.1202 221.543H89.0684V223.595H91.1202V221.543Z" fill="#F0F0F0"/>
<path d="M91.1202 224.975H89.0684V227.027H91.1202V224.975Z" fill="#F0F0F0"/>
<path d="M91.1202 228.407H89.0684V230.459H91.1202V228.407Z" fill="#F0F0F0"/>
<path d="M91.1202 231.846H89.0684V233.898H91.1202V231.846Z" fill="#F0F0F0"/>
<path d="M91.1202 235.277H89.0684V237.329H91.1202V235.277Z" fill="#F0F0F0"/>
<path d="M91.1202 238.716H89.0684V240.768H91.1202V238.716Z" fill="#F0F0F0"/>
<path d="M91.1202 242.148H89.0684V244.2H91.1202V242.148Z" fill="#F0F0F0"/>
<path d="M91.1202 245.587H89.0684V247.639H91.1202V245.587Z" fill="#F0F0F0"/>
<path d="M159.69 174.843H157.638V176.895H159.69V174.843Z" fill="#F0F0F0"/>
<path d="M159.69 178.275H157.638V180.327H159.69V178.275Z" fill="#F0F0F0"/>
<path d="M159.69 181.714H157.638V183.766H159.69V181.714Z" fill="#F0F0F0"/>
<path d="M159.69 185.146H157.638V187.197H159.69V185.146Z" fill="#F0F0F0"/>
<path d="M159.69 188.577H157.638V190.629H159.69V188.577Z" fill="#F0F0F0"/>
<path d="M159.69 192.016H157.638V194.068H159.69V192.016Z" fill="#F0F0F0"/>
<path d="M159.69 195.448H157.638V197.5H159.69V195.448Z" fill="#F0F0F0"/>
<path d="M159.69 198.887H157.638V200.939H159.69V198.887Z" fill="#F0F0F0"/>
<path d="M159.69 202.318H157.638V204.37H159.69V202.318Z" fill="#F0F0F0"/>
<path d="M159.69 205.75H157.638V207.802H159.69V205.75Z" fill="#F0F0F0"/>
<path d="M159.69 209.189H157.638V211.241H159.69V209.189Z" fill="#F0F0F0"/>
<path d="M159.69 212.621H157.638V214.673H159.69V212.621Z" fill="#F0F0F0"/>
<path d="M159.69 216.06H157.638V218.112H159.69V216.06Z" fill="#F0F0F0"/>
<path d="M159.69 222.931H157.638V224.982H159.69V222.931Z" fill="#F0F0F0"/>
<path d="M159.69 226.362H157.638V228.414H159.69V226.362Z" fill="#F0F0F0"/>
<path d="M159.69 229.794H157.638V231.846H159.69V229.794Z" fill="#F0F0F0"/>
<path d="M159.69 233.233H157.638V235.285H159.69V233.233Z" fill="#F0F0F0"/>
<path d="M159.69 240.104H157.638V242.155H159.69V240.104Z" fill="#F0F0F0"/>
<path d="M159.69 243.535H157.638V245.587H159.69V243.535Z" fill="#F0F0F0"/>
<path d="M159.69 246.967H157.638V249.019H159.69V246.967Z" fill="#F0F0F0"/>
<path d="M162.947 174.843H160.896V176.895H162.947V174.843Z" fill="#F0F0F0"/>
<path d="M162.947 178.275H160.896V180.327H162.947V178.275Z" fill="#F0F0F0"/>
<path d="M162.947 181.714H160.896V183.766H162.947V181.714Z" fill="#F0F0F0"/>
<path d="M162.947 185.146H160.896V187.197H162.947V185.146Z" fill="#F0F0F0"/>
<path d="M162.947 188.577H160.896V190.629H162.947V188.577Z" fill="#F0F0F0"/>
<path d="M162.947 192.016H160.896V194.068H162.947V192.016Z" fill="#F0F0F0"/>
<path d="M162.947 195.448H160.896V197.5H162.947V195.448Z" fill="#F0F0F0"/>
<path d="M162.947 198.887H160.896V200.939H162.947V198.887Z" fill="#F0F0F0"/>
<path d="M162.947 202.318H160.896V204.37H162.947V202.318Z" fill="#F0F0F0"/>
<path d="M162.947 205.75H160.896V207.802H162.947V205.75Z" fill="#F0F0F0"/>
<path d="M162.947 209.189H160.896V211.241H162.947V209.189Z" fill="#F0F0F0"/>
<path d="M162.947 212.621H160.896V214.673H162.947V212.621Z" fill="#F0F0F0"/>
<path d="M162.947 216.06H160.896V218.112H162.947V216.06Z" fill="#F0F0F0"/>
<path d="M162.947 226.362H160.896V228.414H162.947V226.362Z" fill="#F0F0F0"/>
<path d="M162.947 229.794H160.896V231.846H162.947V229.794Z" fill="#F0F0F0"/>
<path d="M162.947 236.665H160.896V238.716H162.947V236.665Z" fill="#F0F0F0"/>
<path d="M162.947 240.104H160.896V242.155H162.947V240.104Z" fill="#F0F0F0"/>
<path d="M162.947 243.535H160.896V245.587H162.947V243.535Z" fill="#F0F0F0"/>
<path d="M162.947 246.967H160.896V249.019H162.947V246.967Z" fill="#F0F0F0"/>
<path d="M166.199 174.843H164.147V176.895H166.199V174.843Z" fill="#F0F0F0"/>
<path d="M166.199 178.275H164.147V180.327H166.199V178.275Z" fill="#F0F0F0"/>
<path d="M166.199 181.714H164.147V183.766H166.199V181.714Z" fill="#F0F0F0"/>
<path d="M166.199 185.146H164.147V187.197H166.199V185.146Z" fill="#F0F0F0"/>
<path d="M166.199 188.577H164.147V190.629H166.199V188.577Z" fill="#F0F0F0"/>
<path d="M166.199 192.016H164.147V194.068H166.199V192.016Z" fill="#F0F0F0"/>
<path d="M166.199 195.448H164.147V197.5H166.199V195.448Z" fill="#F0F0F0"/>
<path d="M166.199 198.887H164.147V200.939H166.199V198.887Z" fill="#F0F0F0"/>
<path d="M166.199 202.318H164.147V204.37H166.199V202.318Z" fill="#F0F0F0"/>
<path d="M166.199 205.75H164.147V207.802H166.199V205.75Z" fill="#F0F0F0"/>
<path d="M166.199 209.189H164.147V211.241H166.199V209.189Z" fill="#F0F0F0"/>
<path d="M166.199 212.621H164.147V214.673H166.199V212.621Z" fill="#F0F0F0"/>
<path d="M166.199 216.06H164.147V218.112H166.199V216.06Z" fill="#F0F0F0"/>
<path d="M166.199 219.492H164.147V221.543H166.199V219.492Z" fill="#F0F0F0"/>
<path d="M166.199 226.362H164.147V228.414H166.199V226.362Z" fill="#F0F0F0"/>
<path d="M166.199 233.233H164.147V235.285H166.199V233.233Z" fill="#F0F0F0"/>
<path d="M166.199 236.665H164.147V238.716H166.199V236.665Z" fill="#F0F0F0"/>
<path d="M166.199 240.104H164.147V242.155H166.199V240.104Z" fill="#F0F0F0"/>
<path d="M166.199 243.535H164.147V245.587H166.199V243.535Z" fill="#F0F0F0"/>
<path d="M166.199 246.967H164.147V249.019H166.199V246.967Z" fill="#F0F0F0"/>
<path d="M146.432 194.422H144.38V196.474H146.432V194.422Z" fill="#F0F0F0"/>
<path d="M146.432 197.861H144.38V199.913H146.432V197.861Z" fill="#F0F0F0"/>
<path d="M146.432 201.293H144.38V203.345H146.432V201.293Z" fill="#F0F0F0"/>
<path d="M146.432 204.732H144.38V206.783H146.432V204.732Z" fill="#F0F0F0"/>
<path d="M146.432 208.163H144.38V210.215H146.432V208.163Z" fill="#F0F0F0"/>
<path d="M146.432 211.602H144.38V213.654H146.432V211.602Z" fill="#F0F0F0"/>
<path d="M146.432 221.905H144.38V223.956H146.432V221.905Z" fill="#F0F0F0"/>
<path d="M146.432 225.336H144.38V227.388H146.432V225.336Z" fill="#F0F0F0"/>
<path d="M146.432 228.775H144.38V230.827H146.432V228.775Z" fill="#F0F0F0"/>
<path d="M146.432 232.207H144.38V234.259H146.432V232.207Z" fill="#F0F0F0"/>
<path d="M146.432 235.639H144.38V237.69H146.432V235.639Z" fill="#F0F0F0"/>
<path d="M146.432 239.078H144.38V241.129H146.432V239.078Z" fill="#F0F0F0"/>
<path d="M146.432 242.509H144.38V244.561H146.432V242.509Z" fill="#F0F0F0"/>
<path d="M149.69 194.422H147.639V196.474H149.69V194.422Z" fill="#F0F0F0"/>
<path d="M149.69 197.861H147.639V199.913H149.69V197.861Z" fill="#F0F0F0"/>
<path d="M149.69 201.293H147.639V203.345H149.69V201.293Z" fill="#F0F0F0"/>
<path d="M149.69 204.732H147.639V206.783H149.69V204.732Z" fill="#F0F0F0"/>
<path d="M149.69 208.163H147.639V210.215H149.69V208.163Z" fill="#F0F0F0"/>
<path d="M149.69 211.602H147.639V213.654H149.69V211.602Z" fill="#F0F0F0"/>
<path d="M149.69 221.905H147.639V223.956H149.69V221.905Z" fill="#F0F0F0"/>
<path d="M149.69 225.336H147.639V227.388H149.69V225.336Z" fill="#F0F0F0"/>
<path d="M149.69 228.775H147.639V230.827H149.69V228.775Z" fill="#F0F0F0"/>
<path d="M149.69 232.207H147.639V234.259H149.69V232.207Z" fill="#F0F0F0"/>
<path d="M149.69 235.639H147.639V237.69H149.69V235.639Z" fill="#F0F0F0"/>
<path d="M149.69 239.078H147.639V241.129H149.69V239.078Z" fill="#F0F0F0"/>
<path d="M149.69 245.948H147.639V248H149.69V245.948Z" fill="#F0F0F0"/>
<path d="M257.786 179.301H255.734V181.353H257.786V179.301Z" fill="#F0F0F0"/>
<path d="M257.786 182.733H255.734V184.784H257.786V182.733Z" fill="#F0F0F0"/>
<path d="M257.786 186.171H255.734V188.223H257.786V186.171Z" fill="#F0F0F0"/>
<path d="M257.786 189.603H255.734V191.655H257.786V189.603Z" fill="#F0F0F0"/>
<path d="M257.786 193.042H255.734V195.094H257.786V193.042Z" fill="#F0F0F0"/>
<path d="M257.786 196.474H255.734V198.526H257.786V196.474Z" fill="#F0F0F0"/>
<path d="M257.786 199.906H255.734V201.957H257.786V199.906Z" fill="#F0F0F0"/>
<path d="M257.786 203.345H255.734V205.396H257.786V203.345Z" fill="#F0F0F0"/>
<path d="M257.786 206.776H255.734V208.828H257.786V206.776Z" fill="#F0F0F0"/>
<path d="M257.786 210.215H255.734V212.267H257.786V210.215Z" fill="#F0F0F0"/>
<path d="M257.786 213.647H255.734V215.699H257.786V213.647Z" fill="#F0F0F0"/>
<path d="M257.786 220.518H255.734V222.569H257.786V220.518Z" fill="#F0F0F0"/>
<path d="M257.786 223.949H255.734V226.001H257.786V223.949Z" fill="#F0F0F0"/>
<path d="M257.786 227.388H255.734V229.44H257.786V227.388Z" fill="#F0F0F0"/>
<path d="M257.786 230.82H255.734V232.872H257.786V230.82Z" fill="#F0F0F0"/>
<path d="M257.786 234.259H255.734V236.31H257.786V234.259Z" fill="#F0F0F0"/>
<path d="M257.786 237.69H255.734V239.742H257.786V237.69Z" fill="#F0F0F0"/>
<path d="M257.786 241.122H255.734V243.174H257.786V241.122Z" fill="#F0F0F0"/>
<path d="M257.786 244.561H255.734V246.613H257.786V244.561Z" fill="#F0F0F0"/>
<path d="M261.044 179.301H258.992V181.353H261.044V179.301Z" fill="#F0F0F0"/>
<path d="M261.044 182.733H258.992V184.784H261.044V182.733Z" fill="#F0F0F0"/>
<path d="M261.044 186.171H258.992V188.223H261.044V186.171Z" fill="#F0F0F0"/>
<path d="M261.044 189.603H258.992V191.655H261.044V189.603Z" fill="#F0F0F0"/>
<path d="M261.044 193.042H258.992V195.094H261.044V193.042Z" fill="#F0F0F0"/>
<path d="M261.044 196.474H258.992V198.526H261.044V196.474Z" fill="#F0F0F0"/>
<path d="M261.044 199.906H258.992V201.957H261.044V199.906Z" fill="#F0F0F0"/>
<path d="M261.044 203.345H258.992V205.396H261.044V203.345Z" fill="#F0F0F0"/>
<path d="M261.044 206.776H258.992V208.828H261.044V206.776Z" fill="#F0F0F0"/>
<path d="M261.044 210.215H258.992V212.267H261.044V210.215Z" fill="#F0F0F0"/>
<path d="M261.044 213.647H258.992V215.699H261.044V213.647Z" fill="#F0F0F0"/>
<path d="M261.044 217.079H258.992V219.13H261.044V217.079Z" fill="#F0F0F0"/>
<path d="M261.044 220.518H258.992V222.569H261.044V220.518Z" fill="#F0F0F0"/>
<path d="M261.044 223.949H258.992V226.001H261.044V223.949Z" fill="#F0F0F0"/>
<path d="M261.044 227.388H258.992V229.44H261.044V227.388Z" fill="#F0F0F0"/>
<path d="M261.044 230.82H258.992V232.872H261.044V230.82Z" fill="#F0F0F0"/>
<path d="M261.044 234.259H258.992V236.31H261.044V234.259Z" fill="#F0F0F0"/>
<path d="M261.044 237.69H258.992V239.742H261.044V237.69Z" fill="#F0F0F0"/>
<path d="M261.044 241.122H258.992V243.174H261.044V241.122Z" fill="#F0F0F0"/>
<path d="M261.044 244.561H258.992V246.613H261.044V244.561Z" fill="#F0F0F0"/>
<path d="M241.762 192.681H239.71V194.733H241.762V192.681Z" fill="#F0F0F0"/>
<path d="M241.762 196.113H239.71V198.164H241.762V196.113Z" fill="#F0F0F0"/>
<path d="M241.762 199.544H239.71V201.596H241.762V199.544Z" fill="#F0F0F0"/>
<path d="M241.762 202.983H239.71V205.035H241.762V202.983Z" fill="#F0F0F0"/>
<path d="M241.762 206.415H239.71V208.467H241.762V206.415Z" fill="#F0F0F0"/>
<path d="M241.762 209.854H239.71V211.906H241.762V209.854Z" fill="#F0F0F0"/>
<path d="M241.762 213.286H239.71V215.337H241.762V213.286Z" fill="#F0F0F0"/>
<path d="M241.762 216.717H239.71V218.769H241.762V216.717Z" fill="#F0F0F0"/>
<path d="M241.762 220.156H239.71V222.208H241.762V220.156Z" fill="#F0F0F0"/>
<path d="M241.762 223.588H239.71V225.64H241.762V223.588Z" fill="#F0F0F0"/>
<path d="M245.013 192.681H242.961V194.733H245.013V192.681Z" fill="#F0F0F0"/>
<path d="M245.013 196.113H242.961V198.164H245.013V196.113Z" fill="#F0F0F0"/>
<path d="M245.013 199.544H242.961V201.596H245.013V199.544Z" fill="#F0F0F0"/>
<path d="M245.013 202.983H242.961V205.035H245.013V202.983Z" fill="#F0F0F0"/>
<path d="M245.013 206.415H242.961V208.467H245.013V206.415Z" fill="#F0F0F0"/>
<path d="M245.013 209.854H242.961V211.906H245.013V209.854Z" fill="#F0F0F0"/>
<path d="M245.013 213.286H242.961V215.337H245.013V213.286Z" fill="#F0F0F0"/>
<path d="M245.013 216.717H242.961V218.769H245.013V216.717Z" fill="#F0F0F0"/>
<path d="M245.013 220.156H242.961V222.208H245.013V220.156Z" fill="#F0F0F0"/>
<path d="M85.687 110.529C85.6905 109.535 85.4606 108.554 85.0158 107.665C84.571 106.776 83.9237 106.004 83.126 105.411C82.3283 104.818 81.4025 104.42 80.423 104.25C79.4436 104.08 78.438 104.142 77.487 104.432C77.7694 102.515 77.6354 100.561 77.0943 98.7008C76.5532 96.8409 75.6177 95.1194 74.3514 93.6536C73.0851 92.1878 71.5178 91.0121 69.7562 90.2065C67.9946 89.401 66.0801 88.9845 64.1431 88.9855C63.3092 88.9848 62.4772 89.0622 61.6578 89.2167C60.3282 87.0316 58.324 85.3382 55.9477 84.3918C53.5714 83.4455 50.9518 83.2976 48.4841 83.9704C46.0163 84.6432 43.8343 86.1002 42.2671 88.1217C40.6999 90.1432 39.8326 92.6195 39.796 95.177H39.6009C36.7182 95.177 33.9535 96.3222 31.915 98.3606C29.8766 100.399 28.7314 103.164 28.7314 106.046C28.7314 108.929 29.8766 111.694 31.915 113.732C33.9535 115.771 36.7182 116.916 39.6009 116.916H79.5027C81.163 116.869 82.7392 116.175 83.8946 114.981C85.0501 113.788 85.6933 112.19 85.687 110.529Z" fill="#F0F0F0"/>
<path d="M137.51 99.0784C137.51 97.9996 137.938 96.965 138.701 96.2022C139.464 95.4394 140.498 95.0109 141.577 95.0109C141.973 95.0109 142.367 95.0668 142.748 95.1771C142.684 94.766 142.652 94.3505 142.654 93.9344C142.654 91.6504 143.561 89.46 145.176 87.845C146.791 86.23 148.982 85.3226 151.266 85.3226C151.799 85.3228 152.331 85.3712 152.855 85.4671C153.704 84.072 154.984 82.9909 156.501 82.3868C158.018 81.7827 159.691 81.6885 161.267 82.1183C162.842 82.548 164.235 83.4786 165.236 84.7694C166.236 86.0603 166.79 87.6415 166.813 89.2745H166.936C168.737 89.3327 170.446 90.0892 171.7 91.3843C172.954 92.6793 173.655 94.4112 173.655 96.2138C173.655 98.0164 172.954 99.7483 171.7 101.043C170.446 102.338 168.737 103.095 166.936 103.153H141.462C140.402 103.123 139.396 102.68 138.657 101.919C137.919 101.158 137.507 100.139 137.51 99.0784Z" fill="#F0F0F0"/>
<path d="M255.589 109.2C255.589 108.121 256.017 107.087 256.78 106.324C257.543 105.561 258.578 105.133 259.656 105.133C260.053 105.131 260.448 105.189 260.827 105.306C260.766 104.892 260.735 104.474 260.733 104.056C260.733 101.772 261.64 99.5817 263.255 97.9667C264.87 96.3517 267.061 95.4443 269.345 95.4443C269.878 95.4445 270.41 95.4929 270.934 95.5888C271.783 94.1937 273.063 93.1126 274.58 92.5085C276.098 91.9044 277.77 91.8102 279.346 92.24C280.921 92.6697 282.315 93.6003 283.315 94.8911C284.315 96.182 284.869 97.7632 284.892 99.3962H284.986C285.916 99.3662 286.843 99.5235 287.711 99.8587C288.579 100.194 289.371 100.7 290.039 101.348C290.708 101.995 291.24 102.77 291.603 103.627C291.966 104.484 292.153 105.405 292.153 106.336C292.153 107.266 291.966 108.187 291.603 109.044C291.24 109.901 290.708 110.676 290.039 111.323C289.371 111.971 288.579 112.477 287.711 112.812C286.843 113.148 285.916 113.305 284.986 113.275H259.541C258.481 113.245 257.475 112.802 256.737 112.041C255.998 111.28 255.587 110.26 255.589 109.2Z" fill="#F0F0F0"/>
<path d="M93.4756 58.4613C93.4747 58.1337 93.5385 57.8092 93.6634 57.5063C93.7883 57.2035 93.9719 56.9284 94.2035 56.6967C94.4352 56.4651 94.7103 56.2815 95.0132 56.1566C95.316 56.0317 95.6405 55.9679 95.9681 55.9688C96.2131 55.9676 96.4568 56.0042 96.6906 56.0772C96.6531 55.8236 96.6338 55.5677 96.6328 55.3114C96.6328 53.9126 97.1885 52.5711 98.1775 51.5821C99.1666 50.593 100.508 50.0374 101.907 50.0374C102.234 50.0369 102.56 50.0659 102.882 50.1241C103.402 49.2695 104.186 48.6072 105.115 48.2373C106.045 47.8673 107.069 47.8097 108.034 48.0732C108.999 48.3366 109.852 48.9069 110.465 49.6978C111.077 50.4887 111.415 51.4574 111.429 52.4576H111.508C112.606 52.5029 113.643 52.9706 114.403 53.763C115.164 54.5554 115.588 55.6111 115.588 56.7093C115.588 57.8076 115.164 58.8633 114.403 59.6557C113.643 60.4481 112.606 60.9158 111.508 60.961H95.9031C95.2515 60.9459 94.632 60.6754 94.1779 60.2078C93.7239 59.7403 93.4717 59.1131 93.4756 58.4613Z" fill="#F0F0F0"/>
<path d="M199.642 60.2964C199.642 59.6353 199.904 59.0013 200.372 58.5339C200.839 58.0665 201.473 57.8039 202.134 57.8039C202.378 57.8034 202.622 57.8374 202.857 57.905C202.744 57.1549 202.795 56.3893 203.006 55.6608C203.217 54.9322 203.584 54.258 204.08 53.6842C204.576 53.1105 205.19 52.6509 205.881 52.3369C206.571 52.0229 207.321 51.862 208.08 51.8652C208.405 51.8671 208.729 51.8985 209.048 51.9591C209.566 51.1016 210.35 50.4363 211.28 50.0639C212.21 49.6915 213.236 49.6323 214.203 49.8952C215.169 50.1581 216.024 50.7289 216.638 51.521C217.251 52.3132 217.59 53.2837 217.602 54.2855H217.674C218.801 54.2855 219.882 54.733 220.678 55.5297C221.475 56.3264 221.922 57.4069 221.922 58.5336C221.922 59.6602 221.475 60.7407 220.678 61.5374C219.882 62.3341 218.801 62.7817 217.674 62.7817H202.069C201.42 62.7666 200.803 62.4981 200.349 62.0336C199.895 61.5692 199.641 60.9456 199.642 60.2964Z" fill="#F0F0F0"/>
<path d="M160 289C237.363 289 300.078 285.338 300.078 280.822C300.078 276.305 237.363 272.643 160 272.643C82.6363 272.643 19.9209 276.305 19.9209 280.822C19.9209 285.338 82.6363 289 160 289Z" fill="#F5F5F5"/>
<path d="M40.9524 145.706H32.3262V270.18H40.9524V145.706Z" fill="#FFDFBA"/>
<path d="M57.5471 172.083H48.9209V270.18H57.5471V172.083Z" fill="#FFDFBA"/>
<path d="M74.1419 192.667H65.5156V270.18H74.1419V192.667Z" fill="#FFDFBA"/>
<path d="M90.7376 210.894H82.1113V270.18H90.7376V210.894Z" fill="#FFDFBA"/>
<path d="M107.325 226.839H98.6992V270.187H107.325V226.839Z" fill="#FFDFBA"/>
<path d="M123.92 238.37H115.294V270.18H123.92V238.37Z" fill="#FFDFBA"/>
<path d="M140.515 247.848H131.889V270.18H140.515V247.848Z" fill="#FFDFBA"/>
<g opacity="0.7">
<path d="M40.9524 145.706H32.3262V270.18H40.9524V145.706Z" fill="white"/>
<path d="M57.5471 172.083H48.9209V270.18H57.5471V172.083Z" fill="white"/>
<path d="M74.1419 192.667H65.5156V270.18H74.1419V192.667Z" fill="white"/>
<path d="M90.7376 210.894H82.1113V270.18H90.7376V210.894Z" fill="white"/>
<path d="M107.325 226.839H98.6992V270.187H107.325V226.839Z" fill="white"/>
<path d="M123.92 238.37H115.294V270.18H123.92V238.37Z" fill="white"/>
<path d="M140.515 247.848H131.889V270.18H140.515V247.848Z" fill="white"/>
</g>
<path d="M31.1269 112.025L29.3857 121.771L39.1246 117.87L31.1269 112.025Z" fill="#FFDFBA"/>
<path d="M152.775 251.627C107.18 229.881 76.5622 195.34 58.8979 170.198C39.7815 142.961 31.531 121.164 31.1914 120.261L36.6027 118.238C36.6821 118.455 44.9977 140.375 63.7385 167.034C80.9909 191.554 110.872 225.235 155.268 246.411L152.775 251.627Z" fill="#FFDFBA"/>
<path d="M238.286 272.976C238.286 272.976 232.507 261.763 233.952 260.694C235.397 259.625 238.286 270.086 238.286 269.248C238.286 268.41 238.12 254.177 240.779 254.741C243.438 255.304 240.779 268.431 240.779 268.431C240.779 268.431 244.348 261.727 245.749 262.233C247.151 262.738 241.639 270.686 241.639 270.686C241.639 270.686 244.94 268.692 245.771 268.843C246.602 268.995 241.639 272.976 241.639 272.976H238.286Z" fill="#FFDFBA"/>
<path d="M83.1725 276.119C83.1725 276.119 88.9523 264.913 87.5073 263.837C86.0624 262.76 83.2159 273.229 83.1725 272.383C83.1292 271.538 83.3387 257.32 80.68 257.884C78.0214 258.447 80.68 271.61 80.68 271.61C80.68 271.61 75.7167 262.132 74.3946 264.552C73.2531 266.647 79.8347 273.893 79.8347 273.893C79.8347 273.893 73.2892 269.457 73.2531 271.408C73.217 273.503 79.8347 276.176 79.8347 276.176L83.1725 276.119Z" fill="#FFDFBA"/>
<path d="M171.256 266.69C171.256 266.69 165.801 259.906 167.896 259.285C169.991 258.664 171.429 264.306 171.797 263.562C172.166 262.818 171.927 255.362 175.41 256.482C178.892 257.602 174.109 263.959 174.109 263.959C174.109 263.959 177.259 261.554 178.105 262.168C178.95 262.782 174.326 267.225 174.326 267.225L171.256 266.69Z" fill="#FFDFBA"/>
<path d="M121.319 258.36C121.319 258.36 125.004 250.478 122.822 250.37C120.64 250.261 119.932 256.366 119.932 256.366C119.932 256.366 118.704 248.188 115.438 249.322C111.978 250.522 117.938 256.966 117.938 256.966C117.938 256.966 112.216 253.354 111.841 255.348C111.371 257.804 119.231 259.271 119.231 259.271L121.319 258.36Z" fill="#FFDFBA"/>
<path d="M63.5723 281.306H258.168L250.171 272.644L192.2 266.539H171.928L157.283 254.676L119.253 257.775L88.0205 269.479L81.5978 275.403H71.6205L63.5723 281.306Z" fill="#263238"/>
<path opacity="0.5" d="M63.5723 281.306H258.168L250.171 272.644L192.2 266.539H171.928L157.283 254.676L119.253 257.775L88.0205 269.479L81.5978 275.403H71.6205L63.5723 281.306Z" fill="white"/>
<path opacity="0.2" d="M81.5977 275.403L102.08 278.893H113.169L100.598 276.718L88.0204 269.479L81.5977 275.403Z" fill="black"/>
<path opacity="0.2" d="M171.928 266.539H160.874L143.087 272.875L152.233 263.837L165.447 261.294L171.928 266.539Z" fill="black"/>
<path opacity="0.2" d="M250.171 272.644L229.213 278.893L211.014 274.19L227.211 281.306H258.169L250.171 272.644Z" fill="black"/>
<path d="M150.318 259.393L145.254 257.963L147.132 245.84L152.19 247.27L150.318 259.393Z" fill="#E4897B"/>
<path d="M145.146 253.722H151.554C151.658 253.72 151.76 253.754 151.842 253.818C151.924 253.883 151.98 253.974 152.002 254.076L153.093 258.75C153.118 258.864 153.117 258.982 153.09 259.096C153.063 259.209 153.011 259.315 152.937 259.405C152.864 259.495 152.77 259.568 152.665 259.617C152.559 259.667 152.444 259.691 152.327 259.69C150.268 259.653 148.758 259.531 146.165 259.531C144.568 259.531 139.749 259.697 137.538 259.697C135.328 259.697 135.024 257.529 135.927 257.32C139.966 256.431 143.007 255.21 144.293 254.04C144.528 253.831 144.832 253.718 145.146 253.722Z" fill="#263238"/>
<path d="M231.978 273.445L226.835 274.529L222.868 262.919L228.012 261.843L231.978 273.445Z" fill="#E4897B"/>
<path d="M186.94 158.761C186.94 158.761 162.89 185.283 156.424 195.744C149.957 206.206 144.286 250.579 144.286 250.579L153.852 252.891C153.852 252.891 164.978 209.652 167.94 205.317C170.902 200.982 202.365 171.636 202.365 171.636L186.94 158.761Z" fill="#263238"/>
<path opacity="0.1" d="M202.365 171.635L199.244 174.525C196.643 176.975 192.684 180.695 188.443 184.748C179.615 193.158 169.558 202.925 167.94 205.288C164.978 209.623 153.852 252.869 153.852 252.869L144.286 250.55C144.286 250.55 149.936 206.205 156.431 195.723C162.926 185.24 186.94 158.74 186.94 158.74L202.365 171.635Z" fill="white"/>
<path opacity="0.2" d="M199.244 174.554C196.643 177.004 192.684 180.724 188.443 184.777C191.254 177.155 198.045 172.221 198.045 172.221L199.244 174.554Z" fill="black"/>
<path d="M195.307 160.661C195.307 160.661 201.484 205.758 204.467 220.893C207.733 237.467 222.276 268.222 222.276 268.222L231.668 266.242C231.668 266.242 221.763 237.813 219.567 221.175C217.118 202.564 213.441 160.488 213.441 160.488L195.307 160.661Z" fill="#263238"/>
<g opacity="0.1">
<path d="M195.307 160.661C195.307 160.661 201.484 205.758 204.467 220.893C207.733 237.467 222.276 268.222 222.276 268.222L231.668 266.242C231.668 266.242 221.763 237.813 219.567 221.175C217.118 202.564 213.441 160.488 213.441 160.488L195.307 160.661Z" fill="white"/>
</g>
<path d="M158.677 104.287L158.266 98.941L163.807 101.108C163.807 101.108 163.886 105.898 161.416 105.833L158.677 104.287Z" fill="#E4897B"/>
<path d="M160.419 95.8562L165.656 96.1885L163.807 101.087L158.266 98.9411L160.419 95.8562Z" fill="#E4897B"/>
<path d="M158.49 105.227L158.635 103.745L163.114 104.663L162.76 106.216L158.49 105.227Z" fill="#FFDFBA"/>
<path opacity="0.7" d="M158.49 105.227L158.635 103.745L163.114 104.663L162.76 106.216L158.49 105.227Z" fill="white"/>
<path d="M179.853 97.2866H168.258C167.846 97.2866 167.535 98.1753 167.535 99.2662C167.535 100.357 167.867 101.239 168.258 101.239H179.853C180.258 101.239 180.576 100.357 180.576 99.2662C180.576 98.1753 180.229 97.2866 179.853 97.2866Z" fill="#FFDFBA"/>
<path opacity="0.4" d="M179.853 97.2866H168.258C167.846 97.2866 167.535 98.1753 167.535 99.2662C167.535 100.357 167.867 101.239 168.258 101.239H179.853C180.258 101.239 180.576 100.357 180.576 99.2662C180.576 98.1753 180.229 97.2866 179.853 97.2866Z" fill="white"/>
<path d="M168.085 96.7449H154.22C153.7 96.7449 153.281 97.8719 153.281 99.2663C153.281 100.661 153.7 101.78 154.22 101.78H168.056C168.576 101.78 169.002 100.653 169.002 99.2663C169.002 97.8791 168.605 96.7449 168.085 96.7449Z" fill="#FFDFBA"/>
<path opacity="0.2" d="M168.085 96.7449H154.22C153.7 96.7449 153.281 97.8719 153.281 99.2663C153.281 100.661 153.7 101.78 154.22 101.78H168.056C168.576 101.78 169.002 100.653 169.002 99.2663C169.002 97.8791 168.605 96.7449 168.085 96.7449Z" fill="white"/>
<path d="M154.444 96.2391H139.995C139.366 96.2391 138.86 97.5901 138.86 99.2663C138.86 100.942 139.366 102.286 139.995 102.286H154.444C155.065 102.286 155.578 100.935 155.578 99.2663C155.578 97.5974 155.065 96.2391 154.444 96.2391Z" fill="#FFDFBA"/>
<path opacity="0.4" d="M154.444 96.2391H139.995C139.366 96.2391 138.86 97.5901 138.86 99.2663C138.86 100.942 139.366 102.286 139.995 102.286H154.444C155.065 102.286 155.578 100.935 155.578 99.2663C155.578 97.5974 155.065 96.2391 154.444 96.2391Z" fill="white"/>
<path opacity="0.2" d="M141.122 99.2663C141.122 100.935 140.616 102.286 139.988 102.286C139.359 102.286 138.854 100.935 138.854 99.2663C138.854 97.5974 139.359 96.2391 139.988 96.2391C140.616 96.2391 141.122 97.5901 141.122 99.2663Z" fill="white"/>
<path d="M139.988 101.947C139.706 101.947 139.193 100.928 139.193 99.2662C139.193 97.6045 139.706 96.5786 139.988 96.5786C140.27 96.5786 140.776 97.5973 140.776 99.2662C140.776 100.935 140.27 101.947 139.988 101.947Z" fill="black"/>
<path d="M224.963 269.284H231.372C231.477 269.284 231.579 269.32 231.662 269.386C231.744 269.451 231.802 269.543 231.827 269.645L232.91 274.319C232.936 274.432 232.935 274.549 232.908 274.662C232.882 274.774 232.83 274.879 232.757 274.969C232.684 275.059 232.592 275.131 232.487 275.18C232.382 275.229 232.267 275.253 232.152 275.251C230.086 275.251 228.583 275.1 225.982 275.1C224.385 275.1 219.567 275.266 217.356 275.266C215.145 275.266 214.842 273.098 215.745 272.882C219.783 272 222.825 270.779 224.111 269.609C224.345 269.398 224.649 269.282 224.963 269.284Z" fill="#263238"/>
<path d="M177.809 117.675C177.809 117.675 174.962 118.397 171.942 118.823C170.425 119.04 168.922 119.25 167.47 119.401C166.748 119.474 166.025 119.517 165.382 119.553H164.999C164.819 119.041 164.665 118.52 164.537 117.993C164.197 116.62 163.916 115.103 163.67 113.614C163.186 110.602 163.041 105.472 163.041 105.472L158.389 104.367C157.944 107.599 157.719 110.858 157.717 114.12C157.714 115.81 157.806 117.498 157.991 119.177C158.096 120.113 158.268 121.04 158.504 121.952C158.649 122.523 158.847 123.079 159.097 123.613C159.27 123.98 159.475 124.331 159.711 124.661C160.082 125.177 160.545 125.62 161.076 125.969C161.265 126.086 161.46 126.192 161.662 126.286C161.897 126.382 162.139 126.464 162.384 126.532L162.883 126.655C163.222 126.734 163.482 126.77 163.771 126.814C164.306 126.886 164.804 126.929 165.274 126.958C166.206 127.016 167.087 127.009 167.94 126.958C169.652 126.958 171.299 126.799 172.932 126.633C176.205 126.308 179.362 125.824 182.584 125.188L177.809 117.675Z" fill="#263238"/>
<path d="M207.906 115.963C207.765 121.464 208.047 126.969 208.752 132.427C209.229 136.495 209.85 140.375 210.5 143.842C212.017 152.035 213.664 158.191 213.932 160.344L185.756 164.476C174.543 134.487 178.452 117.559 178.452 117.559C180.634 116.814 182.861 116.206 185.12 115.739C185.597 115.637 186.081 115.551 186.565 115.471C190.54 114.949 194.542 114.657 198.55 114.597C199.273 114.597 200.06 114.597 200.797 114.597C203.224 114.681 205.622 115.142 207.906 115.963Z" fill="#FFDFBA"/>
<path opacity="0.7" d="M207.906 115.963C207.765 121.464 208.047 126.969 208.752 132.427C209.229 136.495 209.85 140.375 210.5 143.842C212.017 152.035 213.664 158.191 213.932 160.344L185.756 164.476C174.543 134.487 178.452 117.559 178.452 117.559C180.634 116.814 182.861 116.206 185.12 115.739C185.597 115.637 186.081 115.551 186.565 115.471C190.54 114.949 194.542 114.657 198.55 114.597C199.273 114.597 200.06 114.597 200.797 114.597C203.224 114.681 205.622 115.142 207.906 115.963Z" fill="white"/>
<path d="M189.079 122.277C188.725 124.444 187.634 130.072 187.634 135.606C188.154 136.675 188.855 139.291 189.483 140.353C189.946 139.146 190.748 136.654 191.297 135.433C190.813 130.173 189.852 124.899 190.162 122.139L189.079 122.277Z" fill="#FFDFBA"/>
<path d="M189.411 123.938L188.031 121.482L189.78 120.369L191.326 121.012L189.411 123.938Z" fill="#FFDFBA"/>
<path d="M195.061 102.25C194.931 106.159 195.322 113.224 198.399 115.348C197.422 116.749 196.153 117.922 194.681 118.787C193.208 119.653 191.566 120.19 189.867 120.362C186.58 120.788 186.695 118.036 187.216 116.663C190.64 115.218 190.026 112.379 188.805 109.54L195.061 102.25Z" fill="#E4897B"/>
<path d="M189.779 120.369C189.779 120.369 191.224 121.764 192.958 123.115C194.938 121.67 199.54 117.862 198.933 115.059C198.555 114.515 198.002 114.117 197.365 113.932C195.199 116.472 192.637 118.645 189.779 120.369Z" fill="white"/>
<path d="M189.78 120.369C188.846 121.424 188.063 122.604 187.453 123.873C185.748 123.014 186.355 117.371 186.854 116.728C187.573 115.805 188.499 115.063 189.556 114.561C188.915 116.459 188.995 118.526 189.78 120.369Z" fill="white"/>
<path opacity="0.2" d="M192.511 105.227L188.812 109.561C189.111 110.218 189.353 110.9 189.534 111.599C191.123 111.115 193.06 108.998 192.951 107.264C192.93 106.564 192.781 105.873 192.511 105.227Z" fill="black"/>
<path d="M181.558 93.2264C180.749 95.1843 180.749 99.3602 183.675 98.2837C186.601 97.2072 182.945 89.8525 181.558 93.2264Z" fill="#263238"/>
<path d="M195.856 97.1854C195.726 102.394 195.914 105.45 193.378 108.196C189.57 112.314 183.047 110.103 181.616 104.945C180.33 100.299 180.756 92.5617 185.785 90.3509C186.899 89.8728 188.115 89.6827 189.322 89.7983C190.529 89.9138 191.688 90.3312 192.691 91.0119C193.694 91.6927 194.51 92.6151 195.063 93.6939C195.616 94.7728 195.889 95.9735 195.856 97.1854Z" fill="#E4897B"/>
<path d="M192.706 88.3425C192.518 88.3425 192.373 88.422 192.222 88.422C192.222 88.422 192.67 98.6087 195.01 100.834C201 99.1434 204.07 87.7934 192.706 88.3425Z" fill="#263238"/>
<path d="M198.023 101.477C197.847 102.099 197.55 102.681 197.148 103.188C196.746 103.695 196.248 104.118 195.683 104.432C194.158 105.255 192.995 103.984 193.082 102.337C193.161 100.892 194.05 98.6448 195.74 98.5003C196.111 98.4757 196.481 98.5429 196.819 98.6959C197.158 98.849 197.453 99.0831 197.678 99.3776C197.904 99.6721 198.054 100.018 198.114 100.384C198.174 100.75 198.143 101.126 198.023 101.477Z" fill="#E4897B"/>
<path d="M183.213 98.9773C183.213 99.3963 183.011 99.7503 182.736 99.7576C182.462 99.7648 182.223 99.4252 182.209 98.999C182.194 98.5727 182.404 98.226 182.678 98.2187C182.953 98.2115 183.191 98.5872 183.213 98.9773Z" fill="#263238"/>
<path d="M184.744 99.1433C184.267 100.413 183.616 101.609 182.808 102.698C183.108 102.883 183.443 103.004 183.793 103.053C184.143 103.101 184.498 103.076 184.838 102.98L184.744 99.1433Z" fill="#DE5753"/>
<path d="M187.172 104.54C186.988 104.572 186.802 104.589 186.616 104.591C186.585 104.591 186.554 104.579 186.532 104.557C186.509 104.536 186.495 104.506 186.493 104.475C186.491 104.459 186.492 104.442 186.497 104.426C186.502 104.411 186.51 104.396 186.521 104.384C186.532 104.372 186.546 104.362 186.561 104.355C186.576 104.348 186.592 104.345 186.609 104.345C187.136 104.344 187.655 104.218 188.123 103.977C188.592 103.735 188.996 103.386 189.303 102.958C189.312 102.944 189.324 102.932 189.337 102.922C189.351 102.913 189.366 102.906 189.382 102.903C189.399 102.9 189.415 102.9 189.432 102.903C189.448 102.906 189.463 102.912 189.477 102.922C189.491 102.93 189.503 102.941 189.512 102.954C189.521 102.967 189.528 102.981 189.531 102.997C189.535 103.013 189.535 103.029 189.532 103.044C189.529 103.06 189.522 103.075 189.513 103.088C189.245 103.479 188.898 103.81 188.495 104.06C188.092 104.31 187.642 104.474 187.172 104.54Z" fill="#263238"/>
<path d="M188.349 97.7274C188.311 97.7503 188.268 97.7624 188.223 97.7624C188.178 97.7624 188.135 97.7503 188.097 97.7274C187.825 97.5704 187.52 97.4788 187.206 97.46C186.893 97.4412 186.579 97.4957 186.29 97.619C186.262 97.6347 186.231 97.6446 186.198 97.6482C186.166 97.6517 186.133 97.6489 186.102 97.6399C186.071 97.6308 186.042 97.6157 186.017 97.5954C185.991 97.5751 185.97 97.55 185.954 97.5215C185.939 97.493 185.929 97.4618 185.925 97.4295C185.922 97.3972 185.925 97.3645 185.934 97.3333C185.943 97.3021 185.958 97.273 185.978 97.2477C185.998 97.2223 186.024 97.2012 186.052 97.1856C186.414 97.0202 186.809 96.9438 187.207 96.9626C187.604 96.9815 187.991 97.0951 188.335 97.2939C188.372 97.3154 188.404 97.3465 188.425 97.3839C188.447 97.4213 188.458 97.4638 188.458 97.5071C188.458 97.5503 188.447 97.5928 188.425 97.6302C188.404 97.6676 188.372 97.6987 188.335 97.7202L188.349 97.7274Z" fill="#263238"/>
<path d="M180.814 97.0699C180.768 97.0614 180.725 97.0387 180.691 97.0049C180.645 96.9577 180.619 96.8941 180.619 96.8279C180.619 96.7617 180.645 96.6982 180.691 96.6509C180.968 96.3649 181.309 96.1499 181.687 96.0241C182.064 95.8983 182.466 95.8655 182.859 95.9285C182.923 95.944 182.978 95.9832 183.015 96.0382C183.051 96.0931 183.065 96.1598 183.054 96.2247C183.048 96.2565 183.036 96.2868 183.018 96.3139C183 96.3409 182.977 96.3642 182.95 96.3824C182.923 96.4005 182.893 96.4131 182.861 96.4195C182.829 96.426 182.797 96.426 182.765 96.4197C182.454 96.3764 182.138 96.4097 181.843 96.5168C181.549 96.6238 181.285 96.8013 181.074 97.0338C181.038 97.0631 180.995 97.0819 180.949 97.0883C180.903 97.0947 180.857 97.0883 180.814 97.0699Z" fill="#263238"/>
<path d="M186.832 99.1001C186.802 99.099 186.773 99.086 186.753 99.064C186.733 99.0438 186.722 99.0165 186.722 98.9882C186.722 98.9598 186.733 98.9326 186.753 98.9123C186.923 98.7511 187.138 98.6438 187.369 98.604C187.6 98.5641 187.838 98.5935 188.053 98.6883C188.078 98.7021 188.096 98.7244 188.106 98.751C188.115 98.7776 188.114 98.8067 188.104 98.8328C188.09 98.8574 188.068 98.8761 188.041 98.8855C188.014 98.8948 187.985 98.894 187.959 98.8834C187.785 98.8055 187.592 98.7811 187.404 98.8133C187.216 98.8454 187.042 98.9327 186.904 99.064C186.885 99.0844 186.86 99.0972 186.832 99.1001Z" fill="#263238"/>
<path d="M194.1 95.0904C193.401 95.0268 192.732 94.7759 192.164 94.3639C191.595 93.9519 191.149 93.3942 190.871 92.7496C189.939 90.5316 189.144 92.3378 189.144 92.3378C189.144 92.3378 188.841 91.6731 186.832 91.2685C184.824 90.864 183.502 96.2608 181.334 95.3866C180.743 95.1628 180.258 94.7252 179.974 94.1606C179.691 93.596 179.629 92.9455 179.803 92.3378C179.803 92.3378 180.749 91.8754 181.818 88.935C183.018 85.6189 188.804 84.145 193.818 86.652C198.832 89.1589 194.1 95.0904 194.1 95.0904Z" fill="#263238"/>
<path d="M217.862 167.221L196.845 171.636L191.333 163.688L188.053 171.108L178.892 165.914L183.768 158.797C174.73 136.849 177.815 117.704 177.815 117.704C180.712 116.445 183.798 115.681 186.947 115.442C181.702 123.389 189.519 140.382 189.519 140.382C194.223 127.276 199.851 114.611 199.851 114.611C202.848 114.42 205.857 114.732 208.751 115.536C208.751 115.536 210.803 145.439 213.512 153.039C216.222 160.64 217.862 167.221 217.862 167.221Z" fill="#263238"/>
<path opacity="0.1" d="M196.773 125.419L201.18 130.954C201.18 130.954 190.921 138.301 187.901 150.46L188.984 143.337L180.546 131.488L184.426 126.64L179.816 123.216C179.816 123.216 183.783 116.533 186.954 115.377C181.709 123.324 189.526 140.317 189.526 140.317C194.23 127.211 199.858 114.546 199.858 114.546C202.488 116.678 204.467 119.503 205.572 122.703L196.773 125.419Z" fill="white"/>
<path d="M232.514 167.359C232.05 167.362 231.586 167.33 231.127 167.265C229.602 167.041 228.641 166.434 228.432 165.56C228.005 163.833 230.65 161.817 234.565 160.864C238.481 159.91 241.79 160.488 242.18 162.207C242.39 163.089 241.819 164.064 240.569 164.967C239.191 165.885 237.655 166.541 236.039 166.903C234.886 167.195 233.703 167.348 232.514 167.359ZM238.106 161.268C236.982 161.283 235.865 161.428 234.775 161.702C231.213 162.569 228.995 164.324 229.27 165.357C229.393 165.849 230.13 166.246 231.249 166.405C232.786 166.574 234.342 166.459 235.837 166.065C237.346 165.73 238.779 165.118 240.063 164.259C240.981 163.602 241.458 162.915 241.335 162.417C241.176 161.738 239.933 161.268 238.106 161.268Z" fill="#263238"/>
<path d="M251.702 160.538L257.265 183.383C257.31 183.561 257.319 183.747 257.292 183.929C257.265 184.111 257.202 184.286 257.106 184.443C257.011 184.6 256.885 184.737 256.736 184.845C256.587 184.954 256.418 185.031 256.239 185.073L222.919 193.187C222.741 193.231 222.555 193.239 222.373 193.212C222.192 193.184 222.017 193.121 221.86 193.025C221.703 192.93 221.567 192.804 221.458 192.656C221.35 192.508 221.272 192.339 221.228 192.161L215.665 169.316C215.578 168.956 215.637 168.576 215.829 168.259C216.022 167.943 216.332 167.715 216.691 167.626L250.011 159.513C250.19 159.468 250.375 159.46 250.557 159.488C250.738 159.515 250.913 159.579 251.07 159.674C251.227 159.769 251.364 159.895 251.472 160.043C251.581 160.192 251.659 160.36 251.702 160.538Z" fill="#263238"/>
<path opacity="0.1" d="M251.702 160.538L257.265 183.383C257.31 183.561 257.319 183.747 257.292 183.929C257.265 184.111 257.202 184.286 257.106 184.443C257.011 184.6 256.885 184.737 256.736 184.845C256.587 184.954 256.418 185.031 256.239 185.073L222.919 193.187C222.741 193.231 222.555 193.239 222.373 193.212C222.192 193.184 222.017 193.121 221.86 193.025C221.703 192.93 221.567 192.804 221.458 192.656C221.35 192.508 221.272 192.339 221.228 192.161L215.665 169.316C215.578 168.956 215.637 168.576 215.829 168.259C216.022 167.943 216.332 167.715 216.691 167.626L250.011 159.513C250.19 159.468 250.375 159.46 250.557 159.488C250.738 159.515 250.913 159.579 251.07 159.674C251.227 159.769 251.364 159.895 251.472 160.043C251.581 160.192 251.659 160.36 251.702 160.538Z" fill="white"/>
<path d="M218.938 168.522L224.501 191.366C224.577 191.725 224.513 192.1 224.323 192.414C224.132 192.728 223.829 192.958 223.475 193.057L222.919 193.187C222.741 193.231 222.555 193.239 222.373 193.212C222.192 193.184 222.017 193.121 221.86 193.025C221.703 192.93 221.567 192.804 221.458 192.656C221.35 192.508 221.272 192.339 221.228 192.161L215.665 169.316C215.578 168.956 215.637 168.576 215.829 168.259C216.022 167.943 216.332 167.715 216.691 167.626L217.248 167.496C217.426 167.451 217.612 167.441 217.794 167.469C217.976 167.496 218.15 167.559 218.308 167.655C218.465 167.75 218.602 167.876 218.71 168.025C218.818 168.174 218.896 168.343 218.938 168.522Z" fill="#263238"/>
<path d="M217.616 167.424C217.967 167.358 218.329 167.431 218.628 167.626C218.927 167.821 219.139 168.124 219.22 168.471L221.799 179.063C221.869 179.349 222.05 179.596 222.302 179.749C222.554 179.902 222.856 179.949 223.143 179.879L253.754 172.423C253.895 172.388 254.029 172.326 254.146 172.24C254.264 172.153 254.363 172.044 254.438 171.92C254.513 171.795 254.563 171.656 254.584 171.512C254.606 171.368 254.599 171.221 254.563 171.079L251.976 160.459C251.889 160.102 251.664 159.794 251.349 159.603C251.035 159.412 250.658 159.353 250.3 159.44L216.966 167.561L217.616 167.424Z" fill="#263238"/>
<path opacity="0.2" d="M217.616 167.424C217.967 167.358 218.329 167.431 218.628 167.626C218.927 167.821 219.139 168.124 219.22 168.471L221.799 179.063C221.869 179.349 222.05 179.596 222.302 179.749C222.554 179.902 222.856 179.949 223.143 179.879L253.754 172.423C253.895 172.388 254.029 172.326 254.146 172.24C254.264 172.153 254.363 172.044 254.438 171.92C254.513 171.795 254.563 171.656 254.584 171.512C254.606 171.368 254.599 171.221 254.563 171.079L251.976 160.459C251.889 160.102 251.664 159.794 251.349 159.603C251.035 159.412 250.658 159.353 250.3 159.44L216.966 167.561L217.616 167.424Z" fill="white"/>
<path d="M236.971 174.966L240.249 174.168L241.743 180.303C241.769 180.409 241.752 180.521 241.695 180.614C241.638 180.708 241.547 180.775 241.441 180.8L238.963 181.404C238.857 181.43 238.745 181.413 238.651 181.356C238.558 181.299 238.491 181.207 238.465 181.101L236.971 174.966Z" fill="#263238"/>
<path d="M238.199 179.987C238.041 179.987 237.887 179.944 237.751 179.864C237.655 179.805 237.572 179.727 237.506 179.636C237.44 179.544 237.393 179.44 237.368 179.33L237.036 177.964C237.008 177.855 237.001 177.741 237.018 177.63C237.034 177.518 237.072 177.411 237.13 177.314C237.251 177.12 237.442 176.98 237.664 176.924L240.554 176.202C240.664 176.173 240.778 176.167 240.89 176.184C241.002 176.202 241.109 176.242 241.204 176.303C241.301 176.36 241.385 176.437 241.452 176.527C241.519 176.618 241.568 176.721 241.594 176.83L241.927 178.203C241.977 178.422 241.941 178.652 241.826 178.846C241.768 178.942 241.692 179.027 241.601 179.094C241.51 179.161 241.408 179.209 241.298 179.236L238.408 179.958C238.341 179.979 238.27 179.989 238.199 179.987ZM240.735 176.635H240.626L237.737 177.357C237.682 177.371 237.631 177.395 237.587 177.429C237.542 177.462 237.505 177.504 237.476 177.553C237.445 177.599 237.425 177.651 237.416 177.706C237.407 177.761 237.411 177.817 237.426 177.87L237.758 179.243C237.785 179.351 237.852 179.444 237.946 179.503C237.994 179.534 238.047 179.554 238.103 179.563C238.159 179.572 238.216 179.569 238.271 179.554L241.161 178.831C241.215 178.818 241.266 178.794 241.311 178.76C241.355 178.727 241.393 178.684 241.421 178.636C241.477 178.54 241.495 178.427 241.472 178.318L241.139 176.946C241.11 176.837 241.04 176.744 240.944 176.686C240.883 176.642 240.81 176.617 240.735 176.613V176.635Z" fill="white"/>
<path d="M231.734 155.163L230.802 160.416L237.304 158.653C237.304 158.653 237.094 154.015 234.609 153.877L231.734 155.163Z" fill="#E4897B"/>
<path d="M232.874 164.274L238.185 162.561L237.332 158.653L230.815 160.416L232.874 164.274Z" fill="#E4897B"/>
<path d="M231.329 153.054L231.495 155.409L235.808 154.52L235.469 152.302L231.329 153.054Z" fill="#FFDFBA"/>
<path opacity="0.7" d="M231.329 153.054L231.495 155.409L235.808 154.52L235.469 152.302L231.329 153.054Z" fill="white"/>
<path d="M208.636 115.442C212.423 116.932 216.113 118.66 219.682 120.615C221.517 121.609 223.299 122.696 225.021 123.873C225.896 124.488 226.777 125.152 227.651 125.904C228.627 126.724 229.505 127.655 230.267 128.678C230.499 129 230.709 129.338 230.895 129.689C230.996 129.877 231.105 130.079 231.191 130.253L231.357 130.665L231.683 131.495L231.943 132.268C232.123 132.789 232.268 133.294 232.405 133.793C232.542 134.291 232.687 134.797 232.81 135.288C233.337 137.261 233.742 139.226 234.132 141.184C234.854 145.099 235.476 149.015 235.887 152.982L231.242 153.849C231.242 153.849 229.501 146.4 228.258 142.73C227.651 140.895 227.008 139.074 226.358 137.304C226.199 136.856 226.033 136.423 225.86 135.996C225.686 135.57 225.52 135.137 225.347 134.747L225.086 134.14L224.826 133.619L224.696 133.359C224.678 133.33 224.656 133.304 224.631 133.28C224.579 133.204 224.521 133.131 224.458 133.063C223.987 132.556 223.466 132.096 222.905 131.691C222.262 131.199 221.546 130.715 220.788 130.246C219.271 129.321 217.645 128.425 215.969 127.572C212.638 125.889 209.098 124.278 205.674 122.811L208.636 115.442Z" fill="#263238"/>
<path d="M251.205 117.465C270.13 117.465 285.472 102.124 285.472 83.1987C285.472 64.2738 270.13 48.9321 251.205 48.9321C232.28 48.9321 216.938 64.2738 216.938 83.1987C216.938 102.124 232.28 117.465 251.205 117.465Z" fill="#FFDFBA"/>
<path opacity="0.7" d="M251.205 117.465C270.13 117.465 285.472 102.124 285.472 83.1987C285.472 64.2738 270.13 48.9321 251.205 48.9321C232.28 48.9321 216.938 64.2738 216.938 83.1987C216.938 102.124 232.28 117.465 251.205 117.465Z" fill="white"/>
<path d="M215.985 99.8587C217.984 99.8587 219.604 98.2382 219.604 96.2392C219.604 94.2402 217.984 92.6196 215.985 92.6196C213.986 92.6196 212.365 94.2402 212.365 96.2392C212.365 98.2382 213.986 99.8587 215.985 99.8587Z" fill="#FFDFBA"/>
<path opacity="0.7" d="M215.985 99.8587C217.984 99.8587 219.604 98.2382 219.604 96.2392C219.604 94.2402 217.984 92.6196 215.985 92.6196C213.986 92.6196 212.365 94.2402 212.365 96.2392C212.365 98.2382 213.986 99.8587 215.985 99.8587Z" fill="white"/>
<path d="M210.306 98.7244C210.278 99.1337 210.129 99.5254 209.878 99.85C209.627 100.175 209.285 100.417 208.896 100.548C208.507 100.678 208.089 100.69 207.693 100.582C207.297 100.475 206.942 100.252 206.673 99.9422C206.403 99.6326 206.232 99.25 206.181 98.843C206.129 98.436 206.199 98.0228 206.382 97.6557C206.566 97.2887 206.854 96.9842 207.21 96.7809C207.566 96.5776 207.975 96.4846 208.384 96.5136C208.932 96.5525 209.442 96.8071 209.802 97.2216C210.163 97.636 210.344 98.1765 210.306 98.7244Z" fill="#FFDFBA"/>
<path opacity="0.7" d="M210.306 98.7244C210.278 99.1337 210.129 99.5254 209.878 99.85C209.627 100.175 209.285 100.417 208.896 100.548C208.507 100.678 208.089 100.69 207.693 100.582C207.297 100.475 206.942 100.252 206.673 99.9422C206.403 99.6326 206.232 99.25 206.181 98.843C206.129 98.436 206.199 98.0228 206.382 97.6557C206.566 97.2887 206.854 96.9842 207.21 96.7809C207.566 96.5776 207.975 96.4846 208.384 96.5136C208.932 96.5525 209.442 96.8071 209.802 97.2216C210.163 97.636 210.344 98.1765 210.306 98.7244Z" fill="white"/>
<path d="M204.071 98.1683C204.057 98.3737 203.983 98.5706 203.858 98.734C203.733 98.8973 203.562 99.0199 203.367 99.086C203.172 99.1522 202.962 99.1591 202.763 99.1057C202.564 99.0524 202.386 98.9412 202.25 98.7863C202.114 98.6315 202.028 98.4398 202.001 98.2357C201.974 98.0315 202.009 97.8241 202.1 97.6395C202.191 97.455 202.335 97.3017 202.514 97.1991C202.692 97.0964 202.897 97.049 203.103 97.0629C203.377 97.0833 203.632 97.2106 203.813 97.4174C203.994 97.6242 204.087 97.8939 204.071 98.1683Z" fill="#FFDFBA"/>
<path opacity="0.7" d="M204.071 98.1683C204.057 98.3737 203.983 98.5706 203.858 98.734C203.733 98.8973 203.562 99.0199 203.367 99.086C203.172 99.1522 202.962 99.1591 202.763 99.1057C202.564 99.0524 202.386 98.9412 202.25 98.7863C202.114 98.6315 202.028 98.4398 202.001 98.2357C201.974 98.0315 202.009 97.8241 202.1 97.6395C202.191 97.455 202.335 97.3017 202.514 97.1991C202.692 97.0964 202.897 97.049 203.103 97.0629C203.377 97.0833 203.632 97.2106 203.813 97.4174C203.994 97.6242 204.087 97.8939 204.071 98.1683Z" fill="white"/>
<path d="M256.001 99.532C262.936 97.0515 266.058 88.0509 262.975 79.4286C259.891 70.8062 251.768 65.8273 244.833 68.3078C237.898 70.7883 234.775 79.789 237.859 88.4113C240.943 97.0336 249.065 102.012 256.001 99.532Z" fill="#FFDFBA"/>
<path d="M255.903 96.1648C261.501 94.1627 264.021 86.8991 261.533 79.9411C259.044 72.9832 252.489 68.9657 246.891 70.9678C241.293 72.97 238.772 80.2336 241.261 87.1915C243.749 94.1495 250.305 98.167 255.903 96.1648Z" fill="white"/>
<path d="M260.373 80.3594C262.367 85.9368 260.373 91.7527 255.865 93.3638C251.356 94.9749 246.126 91.7454 244.132 86.1752C242.138 80.605 244.132 74.7892 248.647 73.1709C253.163 71.5525 258.379 74.7892 260.373 80.3594Z" fill="#FFDFBA"/>
<path d="M255.626 90.7956C258.933 89.6131 260.372 85.1855 258.842 80.9063C257.311 76.6271 253.39 74.1167 250.084 75.2991C246.778 76.4816 245.338 80.9092 246.869 85.1884C248.399 89.4676 252.32 91.978 255.626 90.7956Z" fill="white"/>
<path d="M257.721 81.5731C258.812 84.6219 257.866 87.7502 255.611 88.5593C253.357 89.3685 250.648 87.5407 249.557 84.4919C248.466 81.4431 249.405 78.3148 251.66 77.5056C253.914 76.6965 256.63 78.5243 257.721 81.5731Z" fill="#FFDFBA"/>
<path d="M256.926 81.855C257.721 84.0224 257.121 86.2909 255.59 86.8328C254.058 87.3746 252.187 86.0381 251.399 83.8346C250.612 81.631 251.212 79.3986 252.736 78.8495C254.26 78.3005 256.139 79.6515 256.926 81.855Z" fill="white"/>
<path d="M275.125 71.8993L271.022 73.3659L270.234 77.0938L273.211 79.4852L277.315 78.0114L274.273 75.6561L275.125 71.8993Z" fill="#FFDFBA"/>
<path d="M254.802 83.336C254.632 83.3358 254.468 83.2757 254.338 83.1664C254.208 83.0571 254.12 82.9055 254.091 82.7382C254.062 82.5709 254.092 82.3987 254.177 82.2517C254.262 82.1047 254.396 81.9923 254.556 81.9344L274.655 74.7459C274.836 74.6817 275.035 74.692 275.209 74.7747C275.382 74.8573 275.516 75.0055 275.58 75.1866C275.644 75.3676 275.634 75.5668 275.551 75.7402C275.468 75.9136 275.32 76.0471 275.139 76.1113L255.047 83.2926C254.969 83.3212 254.885 83.3359 254.802 83.336Z" fill="#263238"/>
</g>
<defs>
<clipPath id="clip0_434_7072">
<rect width="320" height="320" fill="white"/>
</clipPath>
</defs>
</svg>
